G04 ================== begin FILE IDENTIFICATION RECORD ==================*
G04 Layout Name:  radiotelescope.brd*
G04 Film Name:    TOP*
G04 File Format:  Gerber RS274X*
G04 File Origin:  Cadence Allegro 17.4-S035*
G04 Origin Date:  Tue Feb 21 10:10:28 2023*
G04 *
G04 Layer:  ETCH/TOP*
G04 Layer:  PIN/TOP*
G04 Layer:  VIA CLASS/TOP*
G04 *
G04 Offset:    (0.00 0.00)*
G04 Mirror:    No*
G04 Mode:      Positive*
G04 Rotation:  0*
G04 FullContactRelief:  No*
G04 UndefLineWidth:     0.00*
G04 ================== end FILE IDENTIFICATION RECORD ====================*
%FSLAX35Y35*MOMM*%
%IR0*IPPOS*OFA0.00000B0.00000*MIA0B0*SFA1.00000B1.00000*%
%ADD14C,.6096*%
%ADD12C,1.5748*%
%ADD13C,1.397*%
%ADD16R,1.27X1.27*%
%ADD40R,1.524X1.524*%
%ADD17C,1.4732*%
%ADD20C,.991108*%
%ADD11R,1.5748X1.5748*%
%ADD18C,2.3749*%
%ADD28R,1.4732X1.4732*%
%ADD19C,.786892*%
%ADD22C,1.450086*%
%ADD37R,5.588X5.842*%
%ADD31R,2.7432X2.6162*%
%ADD38C,2.54*%
%ADD35R,.4318X.508*%
%ADD34R,.508X.4318*%
%ADD32R,1.016X.8636*%
%ADD10C,2.794*%
%ADD33R,1.27X.8636*%
%ADD27R,1.27X.635*%
%ADD30R,.4826X1.27*%
%ADD29R,1.27X.4826*%
%ADD39R,2.54X2.54*%
%ADD36R,1.4224X1.8288*%
%ADD15R,1.2192X1.9304*%
%ADD23O,.94996X1.89992*%
%ADD25R,.40005X1.35001*%
%ADD24R,1.199896X1.89992*%
%ADD21R,1.500124X.40005*%
%ADD26R,1.500124X1.89992*%
%ADD41C,.254*%
%ADD42C,.508*%
%ADD43C,.762*%
%ADD44C,1.27*%
%ADD45C,.381*%
%ADD46C,3.048*%
%ADD49C,1.829816*%
%ADD48C,1.398524*%
%ADD47C,1.728216*%
%ADD51C,2.795016*%
%ADD50C,3.201416*%
G75*
%LPD*%
G75*
G36*
G01X2894025Y4268775D02*
G03X2882849Y4241800I26966J-26975D01*
G01Y1498651D01*
X2814345D01*
G03X2794025Y1503731I-20333J-38154D01*
G01X2794000D01*
G03Y1417269I0J-43231D01*
G01X2794025D01*
G03X2814345Y1422349I-13J43234D01*
G01X2882849D01*
Y1270051D01*
X2857500D01*
G03X2844749Y1257300I0J-12751D01*
G01Y1130300D01*
G03X2857500Y1117549I12751J0D01*
G01X2984500D01*
G03X2997251Y1130300I0J12751D01*
G01Y1257300D01*
G03X2984500Y1270051I-12751J0D01*
G01X2959151D01*
Y4226001D01*
X3030652Y4297528D01*
G02X3048000Y4290339I7186J-7185D01*
G01Y628701D01*
X3023057D01*
X3014726Y637007D01*
Y747776D01*
G03X3005430Y770230I-31783J-8D01*
G01X2973400Y802259D01*
G03X2950921Y811581I-22492J-22474D01*
G01X2943911D01*
Y822960D01*
G03X2931160Y835711I-12751J0D01*
G01X2804160D01*
G03X2791409Y822960I0J-12751D01*
G01Y736600D01*
G03X2804160Y723849I12751J0D01*
G01X2931160D01*
G03X2936646Y725094I-8J12749D01*
G02X2951175Y715924I4368J-9173D01*
G01Y623824D01*
G03X2960472Y601370I31783J8D01*
G01X2987421Y574421D01*
G03X3009900Y565099I22492J22474D01*
G01X3048000D01*
Y473278D01*
X3044800Y472008D01*
G03Y391592I15912J-40208D01*
G01X3048000Y390322D01*
Y362001D01*
X3041650D01*
G03X3028899Y349250I0J-12751D01*
G01Y285750D01*
G03X3041650Y272999I12751J0D01*
G01X3048000D01*
Y235001D01*
X3041650D01*
G03X3028899Y222250I0J-12751D01*
G01Y158750D01*
G03X3041650Y145999I12751J0D01*
G01X3048000D01*
Y108001D01*
X3041650D01*
G03X3028899Y95250I0J-12751D01*
G01Y31750D01*
G03X3041650Y18999I12751J0D01*
G01X3048000D01*
Y-18999D01*
X3041650D01*
G03X3028899Y-31750I0J-12751D01*
G01Y-38049D01*
X2931541D01*
X2882951Y10541D01*
Y482600D01*
G03X2875483Y500583I-25441J-23D01*
G01X2850083Y525983D01*
G03X2832100Y533451I-18006J-17974D01*
G01X1587500D01*
G03X1569517Y525983I23J-25441D01*
G01X1132459Y88951D01*
X-114249D01*
Y127000D01*
G03X-127000Y139751I-12751J0D01*
G01X-254000D01*
G03X-266751Y127000I0J-12751D01*
G01Y88951D01*
X-469900D01*
G03X-488061Y81331I0J-25452D01*
G01X-695528D01*
X-696773Y84582D01*
G03X-699846Y89205I-11889J-4571D01*
G02Y103835I7051J7315D01*
G03X-696773Y108458I-8815J9194D01*
G01X-695528Y111709D01*
X-624840D01*
G03X-606857Y119177I-23J25441D01*
G01X-294259Y431749D01*
X676250D01*
G03X711200Y413969I34950J25461D01*
G03Y500431I0J43231D01*
G03X676250Y482651I0J-43241D01*
G01X-304800D01*
G03X-322783Y475183I23J-25441D01*
G01X-635381Y162611D01*
X-695528D01*
X-696773Y165862D01*
G03X-699846Y170485I-11889J-4571D01*
G02Y185115I7051J7315D01*
G03X-695909Y194310I-8807J9211D01*
G01Y242570D01*
G03X-699846Y251765I-12744J-16D01*
G02Y266395I7051J7315D01*
G03X-695909Y275590I-8807J9211D01*
G01Y323850D01*
G03X-699846Y333045I-12744J-16D01*
G02Y347675I7051J7315D01*
G03X-695909Y356870I-8807J9211D01*
G01Y405130D01*
G03X-699846Y414325I-12744J-16D01*
G02Y428955I7051J7315D01*
G03X-695909Y438150I-8807J9211D01*
G01Y486410D01*
G03X-699846Y495605I-12744J-16D01*
G02X-697814Y511759I7051J7318D01*
G01X-510540D01*
G03X-488061Y521081I-13J31795D01*
G01X-422021Y587121D01*
G03X-412699Y609600I-22474J22492D01*
G01Y1002843D01*
X-367843Y1047699D01*
X-353111D01*
Y1016000D01*
G03X-340360Y1003249I12751J0D01*
G01X-213360D01*
G03X-200609Y1016000I0J12751D01*
G01Y1143000D01*
G03X-213360Y1155751I-12751J0D01*
G01X-340360D01*
G03X-353111Y1143000I0J-12751D01*
G01Y1111301D01*
X-381000D01*
G03X-403479Y1101979I13J-31795D01*
G01X-414452Y1091006D01*
G02X-431800Y1098169I-7190J7177D01*
G01Y1301242D01*
X-431343Y1301699D01*
X-353111D01*
Y1270000D01*
G03X-340360Y1257249I12751J0D01*
G01X-213360D01*
G03X-200609Y1270000I0J12751D01*
G01Y1397000D01*
G03X-213360Y1409751I-12751J0D01*
G01X-340360D01*
G03X-353111Y1397000I0J-12751D01*
G01Y1365301D01*
X-431800D01*
Y1473149D01*
X254000D01*
G03X271983Y1480617I-23J25441D01*
G01X373583Y1582217D01*
G03X381051Y1600200I-17974J18006D01*
G01Y2681859D01*
X493141Y2793949D01*
X812800D01*
G03X830783Y2801417I-23J25441D01*
G01X900633Y2871267D01*
G03X908101Y2889250I-17974J18006D01*
G01Y2927299D01*
X946150D01*
G03X958901Y2940050I0J12751D01*
G01Y3003550D01*
G03X946150Y3016301I-12751J0D01*
G01X819150D01*
G03X806399Y3003550I0J-12751D01*
G01Y2940050D01*
G03X819150Y2927299I12751J0D01*
G01X857199D01*
Y2899791D01*
X802259Y2844851D01*
X492328D01*
G02X485165Y2862174I21J10151D01*
G01X551383Y2928417D01*
G03X558851Y2946400I-17974J18006D01*
G01Y3302000D01*
G03X551383Y3319983I-25441J-23D01*
G01X500583Y3370783D01*
G03X482600Y3378251I-18006J-17974D01*
G01X463601D01*
Y3384550D01*
G03X450850Y3397301I-12751J0D01*
G01X323850D01*
G03X311099Y3384550I0J-12751D01*
G01Y3321050D01*
G03X323850Y3308299I12751J0D01*
G01X450850D01*
G03X463601Y3321050I0J12751D01*
G01Y3327349D01*
X472059D01*
X507949Y3291459D01*
Y2956941D01*
X271374Y2720365D01*
G02X254051Y2727528I-7172J7184D01*
G01Y2835529D01*
G02X271932Y2842133I10158J5D01*
G03X338277Y2842870I32865J28039D01*
G01X339801Y2844749D01*
X342900D01*
G03X360883Y2852217I-23J25441D01*
G01X405333Y2896667D01*
G03X412801Y2914650I-17974J18006D01*
G01Y2927299D01*
X450850D01*
G03X463601Y2940050I0J12751D01*
G01Y3003550D01*
G03X450850Y3016301I-12751J0D01*
G01X323850D01*
G03X311099Y3003550I0J-12751D01*
G01Y2940050D01*
G03X323850Y2927299I12751J0D01*
G01X339522D01*
G02X346685Y2909976I-21J-10151D01*
G01X339928Y2903195D01*
G02X333019Y2902941I-3591J3598D01*
G03X304800Y2913431I-28219J-32711D01*
G03X271932Y2898267I0J-43202D01*
G02X254051Y2904871I-7723J6599D01*
G01Y3018409D01*
X297434Y3061818D01*
G02X313157Y3060141I7184J-7189D01*
G03X323850Y3054299I10711J6899D01*
G01X450850D01*
G03X463601Y3067050I0J12751D01*
G01Y3130550D01*
G03X450850Y3143301I-12751J0D01*
G01X323850D01*
G03X311099Y3130550I0J-12751D01*
G01Y3124251D01*
X298450D01*
G03X280467Y3116783I23J-25441D01*
G01X210617Y3046933D01*
G03X203149Y3028950I17974J-18006D01*
G01Y1757020D01*
X160807Y1714652D01*
X-647573D01*
G03X-665556Y1707210I0J-25448D01*
G01X-754583Y1618183D01*
G03X-762051Y1600200I17974J-18006D01*
G01Y1305941D01*
X-772541Y1295451D01*
X-1046480D01*
G03X-1064463Y1287983I23J-25441D01*
G01X-1074826Y1277645D01*
G02X-1092149Y1284808I-7172J7184D01*
G01Y1311250D01*
G03X-1074369Y1346200I-25461J34950D01*
G03X-1160831I-43231J0D01*
G03X-1143051Y1311250I43241J0D01*
G01Y1222121D01*
X-1252423Y1112723D01*
G03X-1259891Y1094740I17974J-18006D01*
G01Y1082091D01*
X-1290269D01*
Y1171550D01*
G03X-1272489Y1206500I-25461J34950D01*
G03X-1315720Y1249731I-43231J0D01*
G03X-1342415Y1240485I21J-43223D01*
G02X-1358849Y1248461I-6274J7991D01*
G01Y1325855D01*
G03X-1353769Y1346175I-38154J20333D01*
G01Y1346200D01*
G03X-1440231I-43231J0D01*
G01Y1346175D01*
G03X-1435151Y1325855I43234J13D01*
G01Y1082091D01*
X-1534109D01*
Y1381760D01*
G03X-1541577Y1399743I-25441J-23D01*
G01X-1559560Y1417726D01*
G03X-1577543Y1425194I-18006J-17974D01*
G01X-2375129D01*
G02X-2382291Y1442517I21J10151D01*
G01X-2369617Y1455217D01*
G03X-2362149Y1473200I-17974J18006D01*
G01Y1970659D01*
X-2351659Y1981149D01*
X-1153541D01*
X-1143051Y1970659D01*
Y1558950D01*
G03X-1160831Y1524000I25461J-34950D01*
G03X-1074369I43231J0D01*
G03X-1092149Y1558950I-43241J0D01*
G01Y1981200D01*
G03X-1099617Y1999183I-25441J-23D01*
G01X-1125017Y2024583D01*
G03X-1143000Y2032051I-18006J-17974D01*
G01X-2362200D01*
G03X-2380183Y2024583I23J-25441D01*
G01X-2405583Y1999183D01*
G03X-2413051Y1981200I17974J-18006D01*
G01Y1483741D01*
X-2448941Y1447851D01*
X-6299200D01*
G03X-6317183Y1440383I23J-25441D01*
G01X-6335141Y1422451D01*
X-6350051D01*
G03X-6368009Y1415009I30J-25459D01*
G01X-6369380Y1413637D01*
G03X-6413500Y1424991I-44142J-80132D01*
G03Y1242009I0J-91491D01*
G03X-6365519Y1255598I0J91500D01*
G02X-6350051Y1246962I5314J-8653D01*
G01Y1166038D01*
G02X-6365519Y1157402I-10154J17D01*
G03X-6413500Y1170991I-47981J-77911D01*
G03X-6322009Y1079500I0J-91491D01*
G01Y1079602D01*
G03X-6324117Y1099109I-91499J-21D01*
G01X-6324702Y1101827D01*
X-6306617Y1119911D01*
G03X-6299149Y1137895I-17974J18006D01*
G01Y1259459D01*
X-6202299Y1356309D01*
X-6197168D01*
G02X-6190005Y1338986I-21J-10151D01*
G01X-6266383Y1262583D01*
G03X-6273851Y1244600I17974J-18006D01*
G01Y874141D01*
X-6284341Y863651D01*
X-6330340D01*
G03X-6413500Y916991I-83160J-38155D01*
G03Y734009I0J-91491D01*
G03X-6323584Y808609I0J91488D01*
G01X-6322797Y812749D01*
X-6273800D01*
G03X-6255817Y820217I-23J25441D01*
G01X-6230417Y845617D01*
G03X-6222949Y863600I-17974J18006D01*
G01Y1234059D01*
X-6141339Y1315669D01*
X-6136208D01*
G02X-6129045Y1298346I-21J-10151D01*
G01X-6190183Y1237209D01*
G03X-6197651Y1219225I17980J-18008D01*
G01Y620141D01*
X-6208141Y609651D01*
X-6330340D01*
G03X-6413500Y662991I-83160J-38155D01*
G03Y480009I0J-91491D01*
G03X-6325514Y546405I0J91496D01*
G01X-6325159Y547675D01*
X-6314084Y558749D01*
X-6197575D01*
G03X-6179591Y566217I-25J25447D01*
G01X-6154217Y591591D01*
G03X-6146749Y609575I-17980J18008D01*
G01Y1208659D01*
X-6090539Y1264869D01*
X-1758061D01*
X-1747571Y1254379D01*
Y1082091D01*
X-1777949D01*
Y1117600D01*
G03X-1785417Y1135583I-25441J-23D01*
G01X-1810817Y1160983D01*
G03X-1828800Y1168451I-18006J-17974D01*
G01X-2657450D01*
G03X-2692400Y1186231I-34950J-25461D01*
G03Y1099769I0J-43231D01*
G03X-2657450Y1117549I0J43241D01*
G01X-1839341D01*
X-1828851Y1107059D01*
Y1082497D01*
X-1832102Y1081253D01*
G03X-1840281Y1069340I4586J-11913D01*
G01Y942340D01*
G03X-1827530Y929589I12751J0D01*
G01X-1435151D01*
Y858545D01*
G03X-1440231Y838225I38154J-20333D01*
G01Y838200D01*
G03X-1353769I43231J0D01*
G01Y838225D01*
G03X-1358849Y858545I-43234J-13D01*
G01Y929589D01*
X-1201014D01*
G02X-1193825Y912241I5J-10161D01*
G01X-1237183Y868883D01*
G03X-1244651Y850900I17974J-18006D01*
G01Y188341D01*
X-1255141Y177851D01*
X-1676400D01*
G03X-1694383Y170383I23J-25441D01*
G01X-1948383Y-83617D01*
G03X-1955851Y-101600I17974J-18006D01*
G01Y-954659D01*
X-1966341Y-965149D01*
X-2895600D01*
G03X-2913583Y-972617I23J-25441D01*
G01X-3065983Y-1125017D01*
G03X-3073451Y-1143000I17974J-18006D01*
G01Y-3418459D01*
X-3249041Y-3594049D01*
X-3282899D01*
Y-3587750D01*
G03X-3295650Y-3574999I-12751J0D01*
G01X-3422650D01*
G03X-3435401Y-3587750I0J-12751D01*
G01Y-3651250D01*
G03X-3422650Y-3664001I12751J0D01*
G01X-3295650D01*
G03X-3282899Y-3651250I0J12751D01*
G01Y-3644951D01*
X-3238500D01*
G03X-3220517Y-3637483I-23J25441D01*
G01X-3030017Y-3446983D01*
G03X-3022549Y-3429000I-17974J18006D01*
G01Y-1153541D01*
X-2885059Y-1016051D01*
X-1955800D01*
G03X-1937817Y-1008583I-23J25441D01*
G01X-1922374Y-993165D01*
G02X-1905051Y-1000328I7172J-7184D01*
G01Y-1030834D01*
X-1915566Y-1041349D01*
X-2108200D01*
G03X-2126183Y-1048817I23J-25441D01*
G01X-2202383Y-1125017D01*
G03X-2209851Y-1143000I17974J-18006D01*
G01Y-3443859D01*
X-2220341Y-3454349D01*
X-2762250D01*
G03X-2775331Y-3457981I21J-25445D01*
G02X-2789326Y-3454349I-5206J8720D01*
G03X-2800350Y-3447999I-11024J-6393D01*
G01X-2927350D01*
G03X-2940101Y-3460750I0J-12751D01*
G01Y-3524250D01*
G03X-2927350Y-3537001I12751J0D01*
G01X-2800350D01*
G03X-2787599Y-3524250I0J12751D01*
G01Y-3517951D01*
X-2774950D01*
G03X-2756967Y-3510483I-23J25441D01*
G01X-2751709Y-3505251D01*
X-2209800D01*
G03X-2191817Y-3497783I-23J25441D01*
G01X-2166417Y-3472383D01*
G03X-2158949Y-3454400I-17974J18006D01*
G01Y-1253871D01*
G02X-2141068Y-1247267I10158J5D01*
G03X-2133651Y-1254150I32912J28025D01*
G01Y-1275080D01*
G03X-2128368Y-1290599I25436J0D01*
G01Y-3710559D01*
X-2138858Y-3721049D01*
X-2787599D01*
Y-3714750D01*
G03X-2800350Y-3701999I-12751J0D01*
G01X-2927350D01*
G03X-2940101Y-3714750I0J-12751D01*
G01Y-3778250D01*
G03X-2927350Y-3791001I12751J0D01*
G01X-2800350D01*
G03X-2787599Y-3778250I0J12751D01*
G01Y-3771951D01*
X-2128317D01*
G03X-2110334Y-3764483I-23J25441D01*
G01X-2084934Y-3739083D01*
G03X-2077466Y-3721100I-17974J18006D01*
G01Y-1280363D01*
G03X-2081860Y-1266088I-25444J-19D01*
G01X-2082749Y-1264793D01*
Y-1254150D01*
G03X-2064969Y-1219200I-25461J34950D01*
G03X-2108200Y-1175969I-43231J0D01*
G03X-2141068Y-1191133I0J-43202D01*
G02X-2158949Y-1184529I-7723J6599D01*
G01Y-1153541D01*
X-2097659Y-1092251D01*
X-1905025D01*
G03X-1887042Y-1084783I-23J25441D01*
G01X-1871574Y-1069340D01*
G02X-1854251Y-1076503I7172J-7184D01*
G01Y-2870200D01*
G03X-1846783Y-2888183I25441J23D01*
G01X-1745183Y-2989783D01*
G03X-1727200Y-2997251I18006J17974D01*
G01X-493141D01*
X-469951Y-3020441D01*
Y-4112412D01*
G03X-527101Y-4191000I25458J-78588D01*
G03X-361899I82601J0D01*
G03X-419049Y-4112412I-82608J0D01*
G01Y-3009900D01*
G03X-426517Y-2991917I-25441J-23D01*
G01X-454635Y-2963774D01*
G02X-447472Y-2946451I7184J7172D01*
G01X-239141D01*
X-215951Y-2969641D01*
Y-4112412D01*
G03X-273101Y-4191000I25458J-78588D01*
G03X-107899I82601J0D01*
G03X-165049Y-4112412I-82608J0D01*
G01Y-2959100D01*
G03X-172517Y-2941117I-25441J-23D01*
G01X-200635Y-2912974D01*
G02X-193472Y-2895651I7184J7172D01*
G01X14859D01*
X38049Y-2918841D01*
Y-4112412D01*
G03X-19101Y-4191000I25458J-78588D01*
G03X146101I82601J0D01*
G03X88951Y-4112412I-82608J0D01*
G01Y-2908300D01*
G03X81483Y-2890317I-25441J-23D01*
G01X53365Y-2862174D01*
G02X60528Y-2844851I7184J7172D01*
G01X243459D01*
X292049Y-2893441D01*
Y-4112412D01*
G03X234899Y-4191000I25458J-78588D01*
G03X400101I82601J0D01*
G03X342951Y-4112412I-82608J0D01*
G01Y-2882900D01*
G03X335483Y-2864917I-25441J-23D01*
G01X271983Y-2801417D01*
G03X254000Y-2793949I-18006J-17974D01*
G01X-1640459D01*
X-1650949Y-2783459D01*
Y-721741D01*
X-1541577Y-612343D01*
G03X-1534109Y-594360I-17974J18006D01*
G01Y-320091D01*
X-1503731D01*
Y-619379D01*
X-1541983Y-657657D01*
G03X-1549451Y-675640I17974J-18006D01*
G01Y-749249D01*
X-1587500D01*
G03X-1600251Y-762000I0J-12751D01*
G01Y-889000D01*
G03X-1587500Y-901751I12751J0D01*
G01X-1562151D01*
Y-995655D01*
G03X-1567231Y-1015975I38154J-20333D01*
G01Y-1016000D01*
G03X-1480769I43231J0D01*
G01Y-1015975D01*
G03X-1485849Y-995655I-43234J-13D01*
G01Y-901751D01*
X-1460500D01*
G03X-1447749Y-889000I0J12751D01*
G01Y-762000D01*
G03X-1460500Y-749249I-12751J0D01*
G01X-1498549D01*
Y-686181D01*
X-1460297Y-647903D01*
G03X-1452829Y-629920I-17974J18006D01*
G01Y-320091D01*
X-1362812D01*
G02X-1354023Y-335331I-11J-10160D01*
G03X-1359205Y-350723I20315J-15407D01*
G01Y-388417D01*
G03X-1359027Y-390449I25427J1201D01*
G01X-1359002Y-390754D01*
Y-409575D01*
G03X-1376731Y-444500I25535J-34925D01*
G03X-1290269I43231J0D01*
G03X-1307998Y-409575I-43264J0D01*
G01Y-388620D01*
G03X-1308176Y-386588I-25427J-1201D01*
G01X-1308202Y-386283D01*
Y-361213D01*
X-1297737Y-350723D01*
G03X-1290269Y-332740I-17974J18006D01*
G01Y-320091D01*
X-1266241D01*
Y-594360D01*
G03X-1256919Y-616839I31795J13D01*
G01X-1111301Y-762457D01*
Y-952500D01*
G03X-1101979Y-974979I31795J13D01*
G01X-1038479Y-1038479D01*
G03X-1016000Y-1047801I22492J22474D01*
G01X-924611D01*
Y-1079500D01*
G03X-911860Y-1092251I12751J0D01*
G01X-784860D01*
G03X-772109Y-1079500I0J12751D01*
G01Y-952500D01*
G03X-784860Y-939749I-12751J0D01*
G01X-911860D01*
G03X-924611Y-952500I0J-12751D01*
G01Y-984199D01*
X-1002843D01*
X-1047699Y-939343D01*
Y-749300D01*
G03X-1057021Y-726821I-31795J-13D01*
G01X-1202639Y-581203D01*
Y-320091D01*
X-1184961D01*
Y-552450D01*
G03X-1175639Y-574929I31795J13D01*
G01X-966089Y-784479D01*
G03X-943610Y-793801I22492J22474D01*
G01X-924611D01*
Y-825500D01*
G03X-911860Y-838251I12751J0D01*
G01X-784860D01*
G03X-772109Y-825500I0J12751D01*
G01Y-698500D01*
G03X-784860Y-685749I-12751J0D01*
G01X-911860D01*
G03X-924611Y-698500I0J-12751D01*
G01Y-711530D01*
G02X-941934Y-718718I-10154J4D01*
G01X-1121359Y-539293D01*
Y-320091D01*
X-1097331D01*
Y-447040D01*
G03X-1089863Y-465023I25441J23D01*
G01X-1066851Y-488061D01*
Y-498373D01*
X-1068730Y-499897D01*
G03X-1084631Y-533400I27345J-33503D01*
G03X-998169I43231J0D01*
G03X-1015949Y-498450I-43241J0D01*
G01Y-477520D01*
G03X-1023417Y-459537I-25441J-23D01*
G01X-1046429Y-436499D01*
Y-320091D01*
X-1016051D01*
Y-431800D01*
G03X-1008583Y-449783I25441J23D01*
G01X-931774Y-526618D01*
X-932002Y-529031D01*
Y-529057D01*
G03X-932231Y-533400I42997J-4441D01*
G03X-889000Y-490169I43231J0D01*
G03X-893369Y-490398I72J-43227D01*
G01X-895782Y-490626D01*
X-965149Y-421259D01*
Y-320497D01*
X-961898Y-319253D01*
G03X-953719Y-307340I-4586J11913D01*
G01Y-180340D01*
G03X-966470Y-167589I-12751J0D01*
G01X-1440129D01*
Y-121945D01*
G03X-1435049Y-101625I-38154J20333D01*
G01Y-101600D01*
G03X-1521511I-43231J0D01*
G01Y-101625D01*
G03X-1516431Y-121945I43234J13D01*
G01Y-167589D01*
X-1827530D01*
G03X-1840281Y-180340I0J-12751D01*
G01Y-307340D01*
G03X-1832102Y-319253I12765J0D01*
G01X-1828851Y-320497D01*
Y-573659D01*
X-1836826Y-581635D01*
G02X-1854149Y-574472I-7172J7184D01*
G01Y-162941D01*
X-1665783Y25451D01*
X-1128141D01*
X-1117651Y35966D01*
Y75794D01*
X-1113409Y76505D01*
G03X-1099617Y83617I-4207J25087D01*
G01X-1074217Y109017D01*
G03X-1066749Y127000I-17974J18006D01*
G01Y243459D01*
X-1035939Y274269D01*
X-848792D01*
X-847547Y271018D01*
G03X-844474Y266395I11889J4571D01*
G02Y251765I-7051J-7315D01*
G03X-847547Y247142I8815J-9194D01*
G01X-848792Y243891D01*
X-924560D01*
G03X-942543Y236423I23J-25441D01*
G01X-960526Y218440D01*
G03X-967994Y200457I17974J-18006D01*
G01Y-73457D01*
G03X-960526Y-91440I25441J23D01*
G01X-779374Y-272618D01*
X-779602Y-275031D01*
Y-275057D01*
G03X-779831Y-279400I42997J-4441D01*
G03X-736600Y-236169I43231J0D01*
G03X-740969Y-236398I72J-43227D01*
G01X-743382Y-236626D01*
X-917092Y-62916D01*
Y189916D01*
X-914019Y192989D01*
X-848792D01*
X-847547Y189738D01*
G03X-844474Y185115I11889J4571D01*
G02Y170485I-7051J-7315D01*
G03X-848411Y161290I8807J-9211D01*
G01Y113030D01*
G03X-844474Y103835I12744J16D01*
G02Y89205I-7051J-7315D01*
G03X-848411Y80010I8807J-9211D01*
G01Y31750D01*
G03X-844474Y22555I12744J16D01*
G02Y7925I-7051J-7315D01*
G03X-848411Y-1270I8807J-9211D01*
G01Y-49530D01*
G03X-835660Y-62281I12751J0D01*
G01X-708660D01*
G03X-696773Y-54102I0J12728D01*
G01X-695528Y-50851D01*
X-556641D01*
X-398983Y-208483D01*
G03X-381000Y-215951I18006J17974D01*
G01X-266751D01*
Y-254000D01*
G03X-254000Y-266751I12751J0D01*
G01X-127000D01*
G03X-114249Y-254000I0J12751D01*
G01Y-215951D01*
X1830959D01*
X1950517Y-335483D01*
G03X1968500Y-342951I18006J17974D01*
G01X2260600D01*
G03X2278583Y-335483I-23J25441D01*
G01X2326843Y-287223D01*
G03X2334311Y-269240I-17974J18006D01*
G01Y-203251D01*
X2372360D01*
G03X2385111Y-190500I0J12751D01*
G01Y-104699D01*
X2515159Y25349D01*
X2535072D01*
X2536596Y23546D01*
G03X2546350Y18999I9754J8189D01*
G01X2673350D01*
G03X2686101Y31750I0J12751D01*
G01Y95250D01*
G03X2673350Y108001I-12751J0D01*
G01X2546350D01*
G03X2536596Y103454I0J-12735D01*
G01X2535072Y101651D01*
X2499360D01*
G03X2472385Y90475I0J-38142D01*
G01X2331161Y-50749D01*
X2245360D01*
G03X2232609Y-63500I0J-12751D01*
G01Y-190500D01*
G03X2245360Y-203251I12751J0D01*
G01X2283409D01*
Y-258699D01*
X2250059Y-292049D01*
X1979041D01*
X1859483Y-172517D01*
G03X1841500Y-165049I-18006J-17974D01*
G01X-114249D01*
Y-127000D01*
G03X-127000Y-114249I-12751J0D01*
G01X-254000D01*
G03X-266751Y-127000I0J-12751D01*
G01Y-165049D01*
X-370459D01*
X-528117Y-7417D01*
G03X-546100Y51I-18006J-17974D01*
G01X-695528D01*
X-696773Y3302D01*
G03X-699846Y7925I-11889J-4571D01*
G02Y22555I7051J7315D01*
G03X-696773Y27178I-8815J9194D01*
G01X-695528Y30429D01*
X-477520D01*
G03X-459359Y38049I0J25452D01*
G01X-266751D01*
Y0D01*
G03X-254000Y-12751I12751J0D01*
G01X-127000D01*
G03X-114249Y0I0J12751D01*
G01Y38049D01*
X1143000D01*
G03X1160983Y45517I-23J25441D01*
G01X1598041Y482549D01*
X2821559D01*
X2832049Y472059D01*
Y0D01*
G03X2839517Y-17983I25441J23D01*
G01X2903017Y-81483D01*
G03X2921000Y-88951I18006J17974D01*
G01X3028899D01*
Y-95250D01*
G03X3041650Y-108001I12751J0D01*
G01X3048000D01*
Y-215849D01*
X3020111D01*
Y-190500D01*
G03X3007360Y-177749I-12751J0D01*
G01X2880360D01*
G03X2867609Y-190500I0J-12751D01*
G01Y-317500D01*
G03X2880360Y-330251I12751J0D01*
G01X3007360D01*
G03X3020111Y-317500I0J12751D01*
G01Y-292151D01*
X3048000D01*
Y-1041349D01*
X2946400D01*
G03X2930754Y-1044727I47J-38141D01*
G01X2929738Y-1045159D01*
X2921000D01*
G03X2908249Y-1057910I0J-12751D01*
G01Y-1101090D01*
G03X2921000Y-1113841I12751J0D01*
G01X2929738D01*
X2930754Y-1114273D01*
G03X2946400Y-1117651I15693J34762D01*
G01X3019501D01*
X3048000Y-1146124D01*
Y-4806899D01*
X3023057D01*
X3014726Y-4798593D01*
Y-4687824D01*
G03X3005430Y-4665370I-31783J-8D01*
G01X2973400Y-4633341D01*
G03X2950921Y-4624019I-22492J-22474D01*
G01X2943911D01*
Y-4612640D01*
G03X2931160Y-4599889I-12751J0D01*
G01X2804160D01*
G03X2791409Y-4612640I0J-12751D01*
G01Y-4699000D01*
G03X2804160Y-4711751I12751J0D01*
G01X2931160D01*
G03X2936646Y-4710506I-8J12749D01*
G02X2951175Y-4719676I4368J-9173D01*
G01Y-4811776D01*
G03X2960472Y-4834230I31783J8D01*
G01X2987421Y-4861179D01*
G03X3009900Y-4870501I22492J22474D01*
G01X3048000D01*
Y-5054575D01*
X-7023075D01*
Y5054575D01*
X3048000D01*
Y4562424D01*
X2767025Y4281475D01*
G03X2755849Y4254500I26966J-26975D01*
G01Y1730273D01*
X2449525Y1423949D01*
G03X2438349Y1396975I26966J-26975D01*
G01Y782345D01*
G03X2433269Y762025I38154J-20333D01*
G01Y762000D01*
G03X2519731I43231J0D01*
G01Y762025D01*
G03X2514651Y782345I-43234J-13D01*
G01Y1381176D01*
X2820975Y1687500D01*
G03X2832151Y1714475I-26966J26975D01*
G01Y4238701D01*
X3030652Y4437228D01*
G02X3048000Y4430039I7186J-7185D01*
G01Y4422724D01*
X2894025Y4268775D01*
G37*
G36*
G01X-1615059Y76149D02*
X-1182395D01*
G02X-1175207Y58826I-5J-10155D01*
G01X-1175817Y58217D01*
G02X-1193800Y50749I-18006J17974D01*
G01X-1615948D01*
G02X-1623136Y68097I-5J10161D01*
G01X-1615059Y76149D01*
G37*
G36*
G01X-1193749Y840359D02*
X-1160297Y873836D01*
G02X-1142949Y866648I7187J-7183D01*
G01Y695427D01*
G03Y625373I25364J-35027D01*
G01Y127051D01*
X-1209472D01*
G02X-1216635Y144374I21J10151D01*
G01X-1201217Y159817D01*
G03X-1193749Y177800I-17974J18006D01*
G01Y840359D01*
G37*
G36*
G01X3429000Y4368800D02*
X4635500D01*
X4699000Y4305300D01*
Y3987800D01*
X4635500Y3924300D01*
X4318000D01*
X4254500Y3860800D01*
Y3606800D01*
X4127500Y3479800D01*
X3873500D01*
X3746500Y3352800D01*
Y2209800D01*
X3873500Y2082800D01*
X3937000D01*
Y1972361D01*
X3926840D01*
G03X3914089Y1959610I0J-12751D01*
G01Y1697990D01*
G03X3926840Y1685239I12751J0D01*
G01X3937000D01*
Y1524051D01*
X3873500D01*
G03X3860749Y1511300I0J-12751D01*
G01Y1384300D01*
G03X3873500Y1371549I12751J0D01*
G01X3937000D01*
Y1320800D01*
X4064000Y1193800D01*
X4572000D01*
X4699000Y1320800D01*
Y1511300D01*
X4762500Y1574800D01*
X5080000D01*
X5143500Y1511300D01*
Y1066800D01*
X5110074Y1033374D01*
G02X5092751Y1040562I-7168J7193D01*
G01Y1079500D01*
G03X5080000Y1092251I-12751J0D01*
G01X4953000D01*
G03X4940249Y1079500I0J-12751D01*
G01Y952500D01*
G03X4953000Y939749I12751J0D01*
G01X4991938D01*
G02X4999126Y922426I-5J-10155D01*
G01X4953000Y876300D01*
X4940300D01*
X4878934Y814934D01*
G02X4861611Y822122I-7168J7193D01*
G01Y825500D01*
G03X4848860Y838251I-12751J0D01*
G01X4826000D01*
Y889000D01*
X4699000D01*
Y381000D01*
X4826000D01*
Y-63500D01*
X5016500Y-254000D01*
X5185486D01*
G02X5195545Y-265532I-10J-10161D01*
G03X5194249Y-284480I138453J-18984D01*
G03X5473751I139751J0D01*
G03X5472455Y-265532I-139748J-35D01*
G02X5482514Y-254000I10068J1371D01*
G01X5588000D01*
X5651500Y-317500D01*
Y-952500D01*
X5588000Y-1016000D01*
X4826000D01*
X4699000Y-1143000D01*
Y-1447800D01*
X4635500Y-1511300D01*
X4318000D01*
X4254500Y-1574800D01*
Y-1828800D01*
X4127500Y-1955800D01*
X3873500D01*
X3746500Y-2082800D01*
Y-3225800D01*
X3873500Y-3352800D01*
X3937000D01*
Y-3463239D01*
X3926840D01*
G03X3914089Y-3475990I0J-12751D01*
G01Y-3737610D01*
G03X3926840Y-3750361I12751J0D01*
G01X3937000D01*
Y-3911549D01*
X3873500D01*
G03X3860749Y-3924300I0J-12751D01*
G01Y-4051300D01*
G03X3873500Y-4064051I12751J0D01*
G01X3937000D01*
Y-4114800D01*
X4064000Y-4241800D01*
X4572000D01*
X4699000Y-4114800D01*
Y-3924300D01*
X4762500Y-3860800D01*
X5080000D01*
X5143500Y-3924300D01*
Y-4368800D01*
X4953000Y-4559300D01*
X3556000D01*
X3175000Y-4178300D01*
Y-1320800D01*
X3429000Y-1066800D01*
X3746500D01*
X3873500Y-939800D01*
Y508000D01*
X3175000Y1206500D01*
Y4114800D01*
X3429000Y4368800D01*
G37*
G36*
G01X5483911Y-2967990D02*
G03X5471160Y-2955239I-12751J0D01*
G01X5196840D01*
G03X5184089Y-2967990I0J-12751D01*
G01Y-3229610D01*
G03X5187544Y-3238322I12746J13D01*
G01X5190896Y-3241904D01*
X5080000Y-3352800D01*
Y-3606800D01*
X4953000Y-3733800D01*
X4445000D01*
X4318000Y-3606800D01*
Y-3352800D01*
X4213911Y-3248711D01*
Y-3006090D01*
G03X4201160Y-2993339I-12751J0D01*
G01X3926840D01*
G03X3914089Y-3006090I0J-12751D01*
G01Y-3178378D01*
G02X3896766Y-3185566I-10155J5D01*
G01X3810000Y-3098800D01*
Y-2844800D01*
X3937000Y-2717800D01*
X6604000D01*
Y-3606800D01*
X6477000Y-3733800D01*
X5715000D01*
X5588000Y-3606800D01*
Y-3352800D01*
X5477104Y-3241904D01*
X5480456Y-3238322D01*
G03X5483911Y-3229610I-9291J8725D01*
G01Y-2967990D01*
G37*
G36*
G01X6718249Y-2463800D02*
G03X6731000Y-2476551I12751J0D01*
G01X6847688D01*
G02X6852437Y-2495677I-7J-10155D01*
G01X6845275Y-2499462D01*
X6604000Y-2527300D01*
X6480937Y-2590317D01*
X6477000Y-2590800D01*
X3937000D01*
X3810000Y-2463800D01*
Y-2209800D01*
X3896766Y-2123034D01*
G02X3914089Y-2130222I7168J-7193D01*
G01Y-2302510D01*
G03X3926840Y-2315261I12751J0D01*
G01X4201160D01*
G03X4213911Y-2302510I0J12751D01*
G01Y-2059889D01*
X4318000Y-1955800D01*
Y-1701800D01*
X4445000Y-1574800D01*
X4953000D01*
X5080000Y-1701800D01*
Y-1955800D01*
X5190896Y-2066696D01*
X5187544Y-2070278D01*
G03X5184089Y-2078990I9291J-8725D01*
G01Y-2340610D01*
G03X5196840Y-2353361I12751J0D01*
G01X5471160D01*
G03X5483911Y-2340610I0J12751D01*
G01Y-2078990D01*
G03X5480456Y-2070278I-12746J-13D01*
G01X5477104Y-2066696D01*
X5588000Y-1955800D01*
Y-1701800D01*
X5715000Y-1574800D01*
X6858000D01*
X6985000Y-1701800D01*
Y-2197049D01*
X6731000D01*
G03X6718249Y-2209800I0J-12751D01*
G01Y-2463800D01*
G37*
G36*
G01X5483911Y2467610D02*
G03X5471160Y2480361I-12751J0D01*
G01X5196840D01*
G03X5184089Y2467610I0J-12751D01*
G01Y2205990D01*
G03X5187544Y2197278I12746J13D01*
G01X5190896Y2193696D01*
X5080000Y2082800D01*
Y1828800D01*
X4953000Y1701800D01*
X4445000D01*
X4318000Y1828800D01*
Y2082800D01*
X4213911Y2186889D01*
Y2429510D01*
G03X4201160Y2442261I-12751J0D01*
G01X3926840D01*
G03X3914089Y2429510I0J-12751D01*
G01Y2257222D01*
G02X3896766Y2250034I-10155J5D01*
G01X3810000Y2336800D01*
Y2590800D01*
X3937000Y2717800D01*
X6604000D01*
Y1828800D01*
X6477000Y1701800D01*
X5715000D01*
X5588000Y1828800D01*
Y2082800D01*
X5477104Y2193696D01*
X5480456Y2197278D01*
G03X5483911Y2205990I-9291J8725D01*
G01Y2467610D01*
G37*
G36*
G01X5715000Y3860800D02*
X6858000D01*
X6985000Y3733800D01*
Y3238551D01*
X6731000D01*
G03X6718249Y3225800I0J-12751D01*
G01Y2971800D01*
G03X6731000Y2959049I12751J0D01*
G01X6847688D01*
G02X6852437Y2939923I-7J-10155D01*
G01X6845275Y2936138D01*
X6604000Y2908300D01*
X6480937Y2845283D01*
X6477000Y2844800D01*
X3937000D01*
X3810000Y2971800D01*
Y3225800D01*
X3896766Y3312566D01*
G02X3914089Y3305378I7168J-7193D01*
G01Y3133090D01*
G03X3926840Y3120339I12751J0D01*
G01X4201160D01*
G03X4213911Y3133090I0J12751D01*
G01Y3375711D01*
X4318000Y3479800D01*
Y3733800D01*
X4445000Y3860800D01*
X4953000D01*
X5080000Y3733800D01*
Y3479800D01*
X5190896Y3368904D01*
X5187544Y3365322D01*
G03X5184089Y3356610I9291J-8725D01*
G01Y3094990D01*
G03X5196840Y3082239I12751J0D01*
G01X5471160D01*
G03X5483911Y3094990I0J12751D01*
G01Y3356610D01*
G03X5480456Y3365322I-12746J-13D01*
G01X5477104Y3368904D01*
X5588000Y3479800D01*
Y3733800D01*
X5715000Y3860800D01*
G37*
G36*
G01X7200951Y698500D02*
X7239000D01*
X7366000Y571500D01*
Y-444500D01*
X7239000Y-571500D01*
X7200951D01*
Y-406400D01*
G03X7188200Y-393649I-12751J0D01*
G01X7035800D01*
G03X7023049Y-406400I0J-12751D01*
G01Y-571500D01*
X6819951D01*
Y-406400D01*
G03X6807200Y-393649I-12751J0D01*
G01X6654800D01*
G03X6642049Y-406400I0J-12751D01*
G01Y-571500D01*
X6438951D01*
Y-406400D01*
G03X6426200Y-393649I-12751J0D01*
G01X6273800D01*
G03X6261049Y-406400I0J-12751D01*
G01Y-571500D01*
X6057951D01*
Y-406400D01*
G03X6045200Y-393649I-12751J0D01*
G01X5892800D01*
G03X5880049Y-406400I0J-12751D01*
G01Y-571500D01*
X5778500D01*
Y-63500D01*
X5651500Y63500D01*
X5478983D01*
G02X5469153Y76251I-2J10163D01*
G03X5473751Y111760I-135148J35550D01*
G03X5194249I-139751J0D01*
G03X5198847Y76251I139746J41D01*
G02X5189017Y63500I-9828J-2588D01*
G01X5143500D01*
X5016500Y190500D01*
Y571500D01*
X5143500Y698500D01*
X5880049D01*
Y533400D01*
G03X5892800Y520649I12751J0D01*
G01X6045200D01*
G03X6057951Y533400I0J12751D01*
G01Y698500D01*
X6261049D01*
Y533400D01*
G03X6273800Y520649I12751J0D01*
G01X6426200D01*
G03X6438951Y533400I0J12751D01*
G01Y698500D01*
X6642049D01*
Y533400D01*
G03X6654800Y520649I12751J0D01*
G01X6807200D01*
G03X6819951Y533400I0J12751D01*
G01Y698500D01*
X7023049D01*
Y533400D01*
G03X7035800Y520649I12751J0D01*
G01X7188200D01*
G03X7200951Y533400I0J12751D01*
G01Y698500D01*
G37*
G36*
G01X5778500Y-698500D02*
X7239000D01*
X7366000Y-825500D01*
Y-1206500D01*
X6032500D01*
X5969000Y-1270000D01*
Y-1460500D01*
X5588000D01*
Y-1143000D01*
X5778500Y-952500D01*
Y-698500D01*
G37*
G36*
G01X7366000Y939800D02*
X7239000Y812800D01*
X5842000D01*
Y1193800D01*
X5969000Y1320800D01*
Y1574800D01*
X7366000D01*
Y939800D01*
G37*
%LPC*%
G75*
G36*
G01X-4409237Y4586986D02*
G02X-4421988Y4574235I-12763J13D01*
G01X-4481576D01*
Y4548378D01*
G02X-4489018Y4530395I-25448J0D01*
G01X-4493717Y4525670D01*
Y4352925D01*
G02X-4501185Y4334942I-25441J23D01*
G01X-4674438Y4161688D01*
G02X-4692421Y4154221I-18006J17974D01*
G01X-4734662D01*
X-4739386Y4149522D01*
G02X-4757369Y4142080I-17983J18006D01*
G01X-4784192D01*
X-4785716Y4139997D01*
G02X-4786935Y4138574I-10248J7551D01*
G03Y4131437I3633J-3569D01*
G02X-4783277Y4122522I-9068J-8928D01*
G01Y4082491D01*
G02X-4786935Y4073576I-12725J13D01*
G03Y4066438I3633J-3569D01*
G02X-4785716Y4065016I-9029J-8973D01*
G01X-4784192Y4062933D01*
X-4735043D01*
G02X-4700092Y4080739I34950J-25400D01*
G02Y3994277I0J-43231D01*
G02X-4735043Y4012082I0J43205D01*
G01X-4784192D01*
X-4785716Y4010000D01*
G02X-4786935Y4008577I-10248J7551D01*
G03Y4001440I3633J-3569D01*
G02X-4783277Y3992524I-9068J-8928D01*
G01Y3952494D01*
G02X-4786935Y3943579I-12725J13D01*
G03Y3936441I3633J-3569D01*
G02X-4783277Y3927526I-9068J-8928D01*
G01Y3887495D01*
G02X-4786935Y3878580I-12725J13D01*
G03Y3871443I3633J-3569D01*
G02X-4785716Y3870020I-9029J-8973D01*
G01X-4784192Y3867963D01*
X-4770603D01*
G02X-4761611Y3866312I-24J-25441D01*
G02X-4752619Y3860495I-9011J-23788D01*
G01X-4681017Y3788893D01*
G02X-4675200Y3779901I-17971J-18003D01*
G02X-4673549Y3770909I-23790J-9016D01*
G01Y3616630D01*
G02X-4656861Y3582492I-26573J-34138D01*
G02X-4700092Y3539261I-43231J0D01*
G02X-4704461Y3539490I72J43227D01*
G01X-4706874Y3539719D01*
X-4724679Y3521939D01*
X-4747108Y3499510D01*
G02X-4756099Y3493694I-18003J17971D01*
G02X-4765091Y3492043I-9016J23790D01*
G01X-4784192D01*
X-4785716Y3489985D01*
G02X-4786935Y3488563I-10248J7551D01*
G03Y3481426I3633J-3569D01*
G02X-4783277Y3472510I-9068J-8928D01*
G01Y3432480D01*
G02X-4786935Y3423564I-12725J13D01*
G03Y3416427I3633J-3569D01*
G02X-4783277Y3407512I-9068J-8928D01*
G01Y3367481D01*
G02X-4796003Y3354756I-12725J0D01*
G01X-4946015D01*
G02X-4958740Y3367481I0J12725D01*
G01Y3407512D01*
G02X-4955083Y3416427I12725J-13D01*
G03Y3423564I-3633J3569D01*
G02X-4958740Y3432480I9068J8928D01*
G01Y3472510D01*
G02X-4955083Y3481426I12725J-13D01*
G03Y3488563I-3633J3569D01*
G02X-4958740Y3497478I9068J8928D01*
G01Y3537509D01*
G02X-4955083Y3546424I12725J-13D01*
G03Y3553562I-3633J3569D01*
G02X-4958740Y3562477I9068J8928D01*
G01Y3602507D01*
G02X-4955083Y3611423I12725J-13D01*
G03Y3618560I-3633J3569D01*
G02X-4958740Y3627476I9068J8928D01*
G01Y3667506D01*
G02X-4955083Y3676421I12725J-13D01*
G03Y3683559I-3633J3569D01*
G02X-4955794Y3684321I8944J9061D01*
G01X-4955946Y3684499D01*
X-4958486Y3687013D01*
X-4960874D01*
X-5105349Y3542563D01*
Y2906141D01*
X-4739259Y2540051D01*
X-4635500D01*
G02X-4622749Y2527300I0J-12751D01*
G01Y2400300D01*
G02X-4635500Y2387549I-12751J0D01*
G01X-4762500D01*
G02X-4775251Y2400300I0J12751D01*
G01Y2504059D01*
X-5148783Y2877617D01*
G02X-5156251Y2895600I17974J18006D01*
G01Y3532175D01*
G03X-5173574Y3539338I-10151J-21D01*
G01X-5181549Y3531362D01*
Y2667000D01*
G02X-5189017Y2649017I-25441J23D01*
G01X-5333949Y2504059D01*
Y2400300D01*
G02X-5346700Y2387549I-12751J0D01*
G01X-5473700D01*
G02X-5486451Y2400300I0J12751D01*
G01Y2527300D01*
G02X-5473700Y2540051I12751J0D01*
G01X-5369941D01*
X-5232451Y2677541D01*
Y3541903D01*
G02X-5224983Y3559886I25441J-23D01*
G01X-4989398Y3795471D01*
G02X-4971415Y3802939I18006J-17974D01*
G01X-4957826D01*
X-4956302Y3804996D01*
G02X-4955083Y3806444I10327J-7459D01*
G03Y3813556I-3627J3556D01*
G02X-4958740Y3822471I9078J8932D01*
G01Y3862527D01*
G02X-4955083Y3871443I12725J-13D01*
G03Y3878580I-3633J3569D01*
G02X-4958740Y3887495I9068J8928D01*
G01Y3927526D01*
G02X-4955083Y3936441I12725J-13D01*
G03Y3943579I-3633J3569D01*
G02X-4955794Y3944341I8944J9061D01*
G01X-4955946Y3944518D01*
X-4958486Y3947058D01*
X-4960899D01*
X-4963541Y3944417D01*
G02X-4981524Y3936949I-18006J17974D01*
G01X-4993259D01*
X-5290617Y3639617D01*
G02X-5308600Y3632149I-18006J17974D01*
G01X-5359349D01*
Y3594100D01*
G02X-5372100Y3581349I-12751J0D01*
G01X-5499100D01*
G02X-5511851Y3594100I0J12751D01*
G01Y3748659D01*
X-5522341Y3759149D01*
X-5816600D01*
G02X-5834583Y3766617I23J25441D01*
G01X-5885383Y3817417D01*
G02X-5892851Y3835400I17974J18006D01*
G01Y4064000D01*
G02X-5885383Y4081983I25441J-23D01*
G01X-5783783Y4183583D01*
G02X-5765800Y4191051I18006J-17974D01*
G01X-5725211D01*
Y4229100D01*
G02X-5712460Y4241851I12751J0D01*
G01X-5585460D01*
G02X-5572709Y4229100I0J-12751D01*
G01Y4102100D01*
G02X-5585460Y4089349I-12751J0D01*
G01X-5712460D01*
G02X-5725211Y4102100I0J12751D01*
G01Y4140149D01*
X-5755259D01*
X-5841949Y4053459D01*
Y3845941D01*
X-5806059Y3810051D01*
X-5511800D01*
G02X-5493817Y3802583I-23J-25441D01*
G01X-5468417Y3777183D01*
G02X-5460949Y3759200I-17974J-18006D01*
G01Y3733851D01*
X-5372100D01*
G02X-5359349Y3721100I0J-12751D01*
G01Y3683051D01*
X-5319141D01*
X-5021783Y3980383D01*
G02X-5003800Y3987851I18006J-17974D01*
G01X-4992065D01*
X-4990160Y3989730D01*
X-4990084Y3989832D01*
G02X-4971440Y3997960I18652J-17338D01*
G01X-4957826D01*
X-4956302Y4000017D01*
G02X-4955083Y4001440I10248J-7551D01*
G03Y4008577I-3633J3569D01*
G02X-4958740Y4017493I9068J8928D01*
G01Y4057523D01*
G02X-4955083Y4066438I12725J-13D01*
G03Y4073576I-3633J3569D01*
G02X-4955794Y4074338I8944J9061D01*
G01X-4955946Y4074516D01*
X-4958486Y4077056D01*
X-4960899D01*
X-4966538Y4071417D01*
G02X-4984521Y4063949I-18006J17974D01*
G01X-5044059D01*
X-5214417Y3893617D01*
G02X-5232400Y3886149I-18006J17974D01*
G01X-5359349D01*
Y3848100D01*
G02X-5372100Y3835349I-12751J0D01*
G01X-5499100D01*
G02X-5511851Y3848100I0J12751D01*
G01Y3975100D01*
G02X-5499100Y3987851I12751J0D01*
G01X-5372100D01*
G02X-5359349Y3975100I0J-12751D01*
G01Y3937051D01*
X-5242941D01*
X-5072583Y4107383D01*
G02X-5054600Y4114851I18006J-17974D01*
G01X-4995062D01*
X-4990186Y4119702D01*
X-4990109Y4119778D01*
X-4990059Y4119855D01*
G02X-4971440Y4127957I18627J-17359D01*
G01X-4957826D01*
X-4956302Y4130015D01*
G02X-4955083Y4131437I10248J-7551D01*
G03Y4138574I-3633J3569D01*
G02X-4958740Y4147490I9068J8928D01*
G01Y4187520D01*
G02X-4955083Y4196436I12725J-13D01*
G03Y4203573I-3633J3569D01*
G02X-4958740Y4212488I9068J8928D01*
G01Y4252519D01*
G02X-4946015Y4265244I12725J0D01*
G01X-4796003D01*
G02X-4785741Y4260037I0J-12715D01*
G01X-4784217Y4257954D01*
X-4757395D01*
G02X-4739411Y4250487I-23J-25441D01*
G01X-4734662Y4245762D01*
X-4719803D01*
X-4585259Y4380306D01*
Y4525670D01*
X-4589983Y4530420D01*
G02X-4596790Y4542663I17970J18006D01*
G01X-4597705Y4546600D01*
X-4616018D01*
X-4761001Y4401617D01*
G02X-4778985Y4394149I-18006J17974D01*
G01X-5103012D01*
G02X-5181600Y4336999I-78588J25458D01*
G02Y4502201I0J82601D01*
G02X-5103012Y4445051I0J-82608D01*
G01X-4789526D01*
X-4705299Y4529252D01*
G03X-4712487Y4546600I-7183J7187D01*
G01X-4726432D01*
X-4769815Y4503217D01*
G02X-4787798Y4495749I-18006J17974D01*
G01X-4867250D01*
G02X-4902200Y4477969I-34950J25461D01*
G02X-4945431Y4521200I0J43231D01*
G02X-4943627Y4533544I43229J-11D01*
G03X-4953356Y4546600I-9739J2895D01*
G01X-4978400D01*
Y4749749D01*
X-5272659D01*
X-5410149Y4612259D01*
Y4241851D01*
X-5372100D01*
G02X-5359349Y4229100I0J-12751D01*
G01Y4102100D01*
G02X-5372100Y4089349I-12751J0D01*
G01X-5499100D01*
G02X-5511851Y4102100I0J12751D01*
G01Y4229100D01*
G02X-5499100Y4241851I12751J0D01*
G01X-5461051D01*
Y4622800D01*
G02X-5453583Y4640783I25441J-23D01*
G01X-5301183Y4793183D01*
G02X-5283200Y4800651I18006J-17974D01*
G01X-4469790D01*
G02X-4451807Y4793183I-23J-25441D01*
G01X-4424020Y4765396D01*
G02X-4416552Y4747412I-17974J-18006D01*
G01Y4733823D01*
X-4414469Y4732299D01*
G02X-4409237Y4722012I-7525J-10302D01*
G01Y4710684D01*
G03X-4390873Y4704690I10159J-4D01*
G02X-4321988Y4739742I68885J-50161D01*
G02Y4569257I0J-85242D01*
G02X-4390873Y4604309I0J85213D01*
G03X-4409237Y4598314I-8205J-5990D01*
G01Y4586986D01*
G37*
G36*
G01X-4246423Y3542944D02*
X-4232808D01*
X-4231284Y3545002D01*
G02X-4230065Y3546424I10248J-7551D01*
G03Y3553562I-3633J3569D01*
G02X-4233723Y3562477I9068J8928D01*
G01Y3602507D01*
G02X-4230065Y3611423I12725J-13D01*
G03Y3618560I-3633J3569D01*
G02X-4233723Y3627476I9068J8928D01*
G01Y3667506D01*
G02X-4230065Y3676421I12725J-13D01*
G03Y3683559I-3633J3569D01*
G02X-4233723Y3692474I9068J8928D01*
G01Y3732505D01*
G02X-4230065Y3741420I12725J-13D01*
G03Y3748557I-3633J3569D01*
G02X-4231284Y3749980I9029J8973D01*
G01X-4232808Y3752037D01*
X-4326738D01*
G02X-4361688Y3734257I-34950J25461D01*
G02Y3820719I0J43231D01*
G02X-4326738Y3802939I0J-43241D01*
G01X-4232808D01*
X-4231284Y3804996D01*
G02X-4230065Y3806444I10327J-7459D01*
G03Y3813556I-3620J3556D01*
G02X-4233723Y3822471I9078J8932D01*
G01Y3862527D01*
G02X-4230065Y3871443I12725J-13D01*
G03Y3878580I-3633J3569D01*
G02X-4233723Y3887495I9068J8928D01*
G01Y3927526D01*
G02X-4230065Y3936441I12725J-13D01*
G03Y3943579I-3633J3569D01*
G02X-4233723Y3952494I9068J8928D01*
G01Y3992524D01*
G02X-4230065Y4001440I12725J-13D01*
G03Y4008577I-3633J3569D01*
G02X-4233723Y4017493I9068J8928D01*
G01Y4057523D01*
G02X-4230065Y4066438I12725J-13D01*
G03Y4073576I-3633J3569D01*
G02X-4233723Y4082491I9068J8928D01*
G01Y4122522D01*
G02X-4230065Y4131437I12725J-13D01*
G03Y4138574I-3633J3569D01*
G02X-4233723Y4147490I9068J8928D01*
G01Y4187520D01*
G02X-4230065Y4196436I12725J-13D01*
G03Y4203573I-3633J3569D01*
G02X-4233723Y4212488I9068J8928D01*
G01Y4252519D01*
G02X-4220997Y4265244I12725J0D01*
G01X-4070985D01*
G02X-4058260Y4252519I0J-12725D01*
G01Y4212488D01*
G02X-4061917Y4203573I-12725J13D01*
G03Y4196436I3633J-3569D01*
G02X-4058260Y4187520I-9068J-8928D01*
G01Y4147490D01*
G02X-4061917Y4138574I-12725J13D01*
G03Y4131437I3633J-3569D01*
G02X-4058260Y4122522I-9068J-8928D01*
G01Y4082491D01*
G02X-4061917Y4073576I-12725J13D01*
G03Y4066438I3633J-3569D01*
G02X-4060698Y4065016I-9029J-8973D01*
G01X-4059174Y4062933D01*
X-4037533D01*
X-3764483Y4335983D01*
G02X-3746500Y4343451I18006J-17974D01*
G01X-3695751D01*
Y4381500D01*
G02X-3683000Y4394251I12751J0D01*
G01X-3556000D01*
G02X-3543249Y4381500I0J-12751D01*
G01Y4254500D01*
G02X-3556000Y4241749I-12751J0D01*
G01X-3683000D01*
G02X-3695751Y4254500I0J12751D01*
G01Y4292549D01*
X-3735959D01*
X-4009009Y4019525D01*
G02X-4026992Y4012082I-17983J18006D01*
G01X-4059174D01*
X-4060698Y4010000D01*
G02X-4061917Y4008577I-10248J7551D01*
G03Y4001440I3633J-3569D01*
G02X-4060698Y4000017I-9029J-8973D01*
G01X-4059174Y3997960D01*
X-3975532D01*
X-3891483Y4081983D01*
G02X-3873500Y4089451I18006J-17974D01*
G01X-3695751D01*
Y4127500D01*
G02X-3683000Y4140251I12751J0D01*
G01X-3556000D01*
G02X-3543249Y4127500I0J-12751D01*
G01Y4000500D01*
G02X-3556000Y3987749I-12751J0D01*
G01X-3683000D01*
G02X-3695751Y4000500I0J12751D01*
G01Y4038549D01*
X-3862959D01*
X-3947008Y3954526D01*
G02X-3964991Y3947058I-18006J17974D01*
G01X-4059174D01*
X-4060698Y3945001D01*
G02X-4061917Y3943579I-10248J7551D01*
G03Y3936441I3633J-3569D01*
G02X-4060698Y3935019I-9029J-8973D01*
G01X-4059174Y3932936D01*
X-3971011D01*
G02X-3953027Y3925494I0J-25448D01*
G01X-3862959Y3835451D01*
X-3695751D01*
Y3873500D01*
G02X-3683000Y3886251I12751J0D01*
G01X-3556000D01*
G02X-3543249Y3873500I0J-12751D01*
G01Y3746500D01*
G02X-3556000Y3733749I-12751J0D01*
G01X-3683000D01*
G02X-3695751Y3746500I0J12751D01*
G01Y3784549D01*
X-3873500D01*
G02X-3891483Y3792017I23J25441D01*
G01X-3981552Y3882085D01*
X-4059174D01*
X-4060698Y3880002D01*
G02X-4061917Y3878580I-10248J7551D01*
G03Y3871443I3633J-3569D01*
G02X-4058260Y3862527I-9068J-8928D01*
G01Y3822471D01*
G02X-4061917Y3813556I-12736J17D01*
G03Y3806444I3620J-3556D01*
G02X-4058260Y3797529I-9078J-8932D01*
G01Y3757473D01*
G02X-4061917Y3748557I-12725J13D01*
G03Y3741420I3633J-3569D01*
G02X-4060698Y3739998I-9029J-8973D01*
G01X-4059174Y3737915D01*
X-3966489D01*
G02X-3948506Y3730473I0J-25448D01*
G01X-3799459Y3581451D01*
X-3695751D01*
Y3619500D01*
G02X-3683000Y3632251I12751J0D01*
G01X-3556000D01*
G02X-3543249Y3619500I0J-12751D01*
G01Y3492500D01*
G02X-3556000Y3479749I-12751J0D01*
G01X-3683000D01*
G02X-3695751Y3492500I0J12751D01*
G01Y3530549D01*
X-3787572D01*
G03X-3794735Y3513226I21J-10151D01*
G01X-3659759Y3378251D01*
X-3556000D01*
G02X-3543249Y3365500I0J-12751D01*
G01Y3238500D01*
G02X-3556000Y3225749I-12751J0D01*
G01X-3683000D01*
G02X-3695751Y3238500I0J12751D01*
G01Y3342259D01*
X-3975532Y3622040D01*
X-4059174D01*
X-4060698Y3619983D01*
G02X-4061917Y3618560I-10248J7551D01*
G03Y3611423I3633J-3569D01*
G02X-4058260Y3602507I-9068J-8928D01*
G01Y3562477D01*
G02X-4061917Y3553562I-12725J13D01*
G03Y3546424I3633J-3569D01*
G02X-4058260Y3537509I-9068J-8928D01*
G01Y3497478D01*
G02X-4061917Y3488563I-12725J13D01*
G03Y3481426I3633J-3569D01*
G02X-4058260Y3472510I-9068J-8928D01*
G01Y3432480D01*
G02X-4061917Y3423564I-12725J13D01*
G03Y3416427I3633J-3569D01*
G02X-4060698Y3415005I-9029J-8973D01*
G01X-4059174Y3412947D01*
X-4022496D01*
G02X-4004513Y3405480I-23J-25441D01*
G01X-3989959Y3390951D01*
X-3937000D01*
G02X-3919017Y3383483I-23J-25441D01*
G01X-3659759Y3124251D01*
X-3556000D01*
G02X-3543249Y3111500I0J-12751D01*
G01Y2984500D01*
G02X-3556000Y2971749I-12751J0D01*
G01X-3683000D01*
G02X-3695751Y2984500I0J12751D01*
G01Y3088259D01*
X-3947541Y3340049D01*
X-4000500D01*
G02X-4018483Y3347517I23J25441D01*
G01X-4033037Y3362046D01*
X-4059174D01*
X-4060698Y3359988D01*
G02X-4070985Y3354756I-10287J7496D01*
G01X-4220997D01*
G02X-4233723Y3367481I0J12725D01*
G01Y3407512D01*
G02X-4230065Y3416427I12725J-13D01*
G03Y3423564I-3633J3569D01*
G02X-4233723Y3432480I9068J8928D01*
G01Y3472510D01*
G02X-4230065Y3481426I12725J-13D01*
G03Y3488563I-3633J3569D01*
G02X-4230776Y3489325I8944J9061D01*
G01X-4230929Y3489503D01*
X-4233469Y3492043D01*
X-4235856D01*
X-4267149Y3460750D01*
Y3363341D01*
X-3969817Y3065983D01*
G02X-3962349Y3048000I-17974J-18006D01*
G01Y3037891D01*
G03X-3950538Y3027883I10155J12D01*
G02X-3937000Y3029001I13542J-81483D01*
G02X-4019601Y2946400I0J-82601D01*
G02X-4010076Y2984906I82597J0D01*
G02X-4013251Y2997200I22272J12309D01*
G01Y3037459D01*
X-4310583Y3334817D01*
G02X-4318051Y3352800I17974J18006D01*
G01Y3471291D01*
G02X-4310583Y3489274I25441J-23D01*
G01X-4265270Y3534588D01*
G02X-4246423Y3542944I18858J-17100D01*
G37*
G36*
G01X1381709Y4264660D02*
Y4422140D01*
G02X1394460Y4434891I12751J0D01*
G01X1551940D01*
G02X1564691Y4422140I0J-12751D01*
G01Y4264660D01*
G02X1551940Y4251909I-12751J0D01*
G01X1394460D01*
G02X1381709Y4264660I0J12751D01*
G37*
G36*
G01X-472491D02*
Y4422140D01*
G02X-459740Y4434891I12751J0D01*
G01X-302260D01*
G02X-289509Y4422140I0J-12751D01*
G01Y4264660D01*
G02X-302260Y4251909I-12751J0D01*
G01X-459740D01*
G02X-472491Y4264660I0J12751D01*
G37*
G36*
G01X-1813611Y4269740D02*
Y4417060D01*
G02X-1800860Y4429811I12751J0D01*
G01X-1653540D01*
G02X-1640789Y4417060I0J-12751D01*
G01Y4269740D01*
G02X-1653540Y4256989I-12751J0D01*
G01X-1800860D01*
G02X-1813611Y4269740I0J12751D01*
G37*
G36*
G01X2250389Y3746500D02*
Y3873500D01*
G02X2263140Y3886251I12751J0D01*
G01X2390140D01*
G02X2402891Y3873500I0J-12751D01*
G01Y3746500D01*
G02X2390140Y3733749I-12751J0D01*
G01X2263140D01*
G02X2250389Y3746500I0J12751D01*
G37*
G36*
G01X1120089Y3771900D02*
Y3898900D01*
G02X1132840Y3911651I12751J0D01*
G01X1259840D01*
G02X1272591Y3898900I0J-12751D01*
G01Y3771900D01*
G02X1259840Y3759149I-12751J0D01*
G01X1132840D01*
G02X1120089Y3771900I0J12751D01*
G37*
G36*
G01X1117549Y3517900D02*
Y3644900D01*
G02X1130300Y3657651I12751J0D01*
G01X1257300D01*
G02X1270051Y3644900I0J-12751D01*
G01Y3517900D01*
G02X1257300Y3505149I-12751J0D01*
G01X1130300D01*
G02X1117549Y3517900I0J12751D01*
G37*
G36*
G01X806399Y3448050D02*
Y3511550D01*
G02X819150Y3524301I12751J0D01*
G01X946150D01*
G02X958901Y3511550I0J-12751D01*
G01Y3448050D01*
G02X946150Y3435299I-12751J0D01*
G01X819150D01*
G02X806399Y3448050I0J12751D01*
G37*
G36*
G01Y3702050D02*
Y3765550D01*
G02X819150Y3778301I12751J0D01*
G01X946150D01*
G02X958901Y3765550I0J-12751D01*
G01Y3702050D01*
G02X946150Y3689299I-12751J0D01*
G01X819150D01*
G02X806399Y3702050I0J12751D01*
G37*
G36*
G01X1854149Y3111500D02*
Y3238500D01*
G02X1866900Y3251251I12751J0D01*
G01X1993900D01*
G02X2006651Y3238500I0J-12751D01*
G01Y3111500D01*
G02X1993900Y3098749I-12751J0D01*
G01X1866900D01*
G02X1854149Y3111500I0J12751D01*
G37*
G36*
G01X806399Y3194050D02*
Y3257550D01*
G02X819150Y3270301I12751J0D01*
G01X946150D01*
G02X958901Y3257550I0J-12751D01*
G01Y3194050D01*
G02X946150Y3181299I-12751J0D01*
G01X819150D01*
G02X806399Y3194050I0J12751D01*
G37*
G36*
G01X-355651Y3340100D02*
Y3467100D01*
G02X-342900Y3479851I12751J0D01*
G01X-215900D01*
G02X-203149Y3467100I0J-12751D01*
G01Y3340100D01*
G02X-215900Y3327349I-12751J0D01*
G01X-342900D01*
G02X-355651Y3340100I0J12751D01*
G37*
G36*
G01X-1752651Y3289300D02*
Y3416300D01*
G02X-1739900Y3429051I12751J0D01*
G01X-1612900D01*
G02X-1600149Y3416300I0J-12751D01*
G01Y3289300D01*
G02X-1612900Y3276549I-12751J0D01*
G01X-1739900D01*
G02X-1752651Y3289300I0J12751D01*
G37*
G36*
G01X-5511851Y3365500D02*
Y3492500D01*
G02X-5499100Y3505251I12751J0D01*
G01X-5372100D01*
G02X-5359349Y3492500I0J-12751D01*
G01Y3365500D01*
G02X-5372100Y3352749I-12751J0D01*
G01X-5499100D01*
G02X-5511851Y3365500I0J12751D01*
G37*
G36*
G01X-1419911Y3069590D02*
Y3331210D01*
G02X-1407160Y3343961I12751J0D01*
G01X-1132840D01*
G02X-1120089Y3331210I0J-12751D01*
G01Y3069590D01*
G02X-1132840Y3056839I-12751J0D01*
G01X-1407160D01*
G02X-1419911Y3069590I0J12751D01*
G37*
G36*
G01X-1752651Y2781300D02*
Y2908300D01*
G02X-1739900Y2921051I12751J0D01*
G01X-1612900D01*
G02X-1600149Y2908300I0J-12751D01*
G01Y2781300D01*
G02X-1612900Y2768549I-12751J0D01*
G01X-1739900D01*
G02X-1752651Y2781300I0J12751D01*
G37*
G36*
G01Y3035300D02*
Y3162300D01*
G02X-1739900Y3175051I12751J0D01*
G01X-1612900D01*
G02X-1600149Y3162300I0J-12751D01*
G01Y3035300D01*
G02X-1612900Y3022549I-12751J0D01*
G01X-1739900D01*
G02X-1752651Y3035300I0J12751D01*
G37*
G36*
G01X-4470451Y3060700D02*
Y3187700D01*
G02X-4457700Y3200451I12751J0D01*
G01X-4330700D01*
G02X-4317949Y3187700I0J-12751D01*
G01Y3060700D01*
G02X-4330700Y3047949I-12751J0D01*
G01X-4457700D01*
G02X-4470451Y3060700I0J12751D01*
G37*
G36*
G01X789889Y2400300D02*
Y2527300D01*
G02X802640Y2540051I12751J0D01*
G01X929640D01*
G02X942391Y2527300I0J-12751D01*
G01Y2400300D01*
G02X929640Y2387549I-12751J0D01*
G01X802640D01*
G02X789889Y2400300I0J12751D01*
G37*
G36*
G01X-3896411D02*
Y2527300D01*
G02X-3883660Y2540051I12751J0D01*
G01X-3756660D01*
G02X-3743909Y2527300I0J-12751D01*
G01Y2400300D01*
G02X-3756660Y2387549I-12751J0D01*
G01X-3883660D01*
G02X-3896411Y2400300I0J12751D01*
G37*
G36*
G01X-4775251Y2087880D02*
Y2280920D01*
G02X-4762500Y2293671I12751J0D01*
G01X-4640580D01*
G02X-4627829Y2280920I0J-12751D01*
G01Y2087880D01*
G02X-4640580Y2075129I-12751J0D01*
G01X-4762500D01*
G02X-4775251Y2087880I0J12751D01*
G37*
G36*
G01X-5486451D02*
Y2280920D01*
G02X-5473700Y2293671I12751J0D01*
G01X-5351780D01*
G02X-5339029Y2280920I0J-12751D01*
G01Y2087880D01*
G02X-5351780Y2075129I-12751J0D01*
G01X-5473700D01*
G02X-5486451Y2087880I0J12751D01*
G37*
G36*
G01X-1564691Y1790700D02*
Y1917700D01*
G02X-1551940Y1930451I12751J0D01*
G01X-1424940D01*
G02X-1412189Y1917700I0J-12751D01*
G01Y1790700D01*
G02X-1424940Y1777949I-12751J0D01*
G01X-1551940D01*
G02X-1564691Y1790700I0J12751D01*
G37*
G36*
G01Y1511300D02*
Y1638300D01*
G02X-1551940Y1651051I12751J0D01*
G01X-1424940D01*
G02X-1412189Y1638300I0J-12751D01*
G01Y1511300D01*
G02X-1424940Y1498549I-12751J0D01*
G01X-1551940D01*
G02X-1564691Y1511300I0J12751D01*
G37*
G36*
G01X-264211Y749300D02*
Y876300D01*
G02X-251460Y889051I12751J0D01*
G01X-124460D01*
G02X-111709Y876300I0J-12751D01*
G01Y749300D01*
G02X-124460Y736549I-12751J0D01*
G01X-251460D01*
G02X-264211Y749300I0J12751D01*
G37*
G36*
G01X2654249Y-317500D02*
Y-190500D01*
G02X2667000Y-177749I12751J0D01*
G01X2794000D01*
G02X2806751Y-190500I0J-12751D01*
G01Y-317500D01*
G02X2794000Y-330251I-12751J0D01*
G01X2667000D01*
G02X2654249Y-317500I0J12751D01*
G37*
G36*
G01X2533599Y-95250D02*
Y-31750D01*
G02X2546350Y-18999I12751J0D01*
G01X2673350D01*
G02X2686101Y-31750I0J-12751D01*
G01Y-95250D01*
G02X2673350Y-108001I-12751J0D01*
G01X2546350D01*
G02X2533599Y-95250I0J12751D01*
G37*
G36*
G01X-6504991Y-269240D02*
Y-111760D01*
G02X-6492240Y-99009I12751J0D01*
G01X-6334760D01*
G02X-6322009Y-111760I0J-12751D01*
G01Y-269240D01*
G02X-6334760Y-281991I-12751J0D01*
G01X-6492240D01*
G02X-6504991Y-269240I0J12751D01*
G37*
G36*
G01X-3355391Y-381000D02*
Y-254000D01*
G02X-3342640Y-241249I12751J0D01*
G01X-3215640D01*
G02X-3202889Y-254000I0J-12751D01*
G01Y-381000D01*
G02X-3215640Y-393751I-12751J0D01*
G01X-3342640D01*
G02X-3355391Y-381000I0J12751D01*
G37*
G36*
G01X-1386891Y-889000D02*
Y-762000D01*
G02X-1374140Y-749249I12751J0D01*
G01X-1247140D01*
G02X-1234389Y-762000I0J-12751D01*
G01Y-889000D01*
G02X-1247140Y-901751I-12751J0D01*
G01X-1374140D01*
G02X-1386891Y-889000I0J12751D01*
G37*
G36*
G01X2730449Y-1197610D02*
Y-1154430D01*
G02X2743200Y-1141679I12751J0D01*
G01X2794000D01*
G02X2806751Y-1154430I0J-12751D01*
G01Y-1197610D01*
G02X2794000Y-1210361I-12751J0D01*
G01X2743200D01*
G02X2730449Y-1197610I0J12751D01*
G37*
G36*
G01X-2628951Y-2844800D02*
Y-2717800D01*
G02X-2616200Y-2705049I12751J0D01*
G01X-2489200D01*
G02X-2476449Y-2717800I0J-12751D01*
G01Y-2844800D01*
G02X-2489200Y-2857551I-12751J0D01*
G01X-2616200D01*
G02X-2628951Y-2844800I0J12751D01*
G37*
G36*
G01X-2940101Y-3016250D02*
Y-2952750D01*
G02X-2927350Y-2939999I12751J0D01*
G01X-2800350D01*
G02X-2787599Y-2952750I0J-12751D01*
G01Y-3016250D01*
G02X-2800350Y-3029001I-12751J0D01*
G01X-2927350D01*
G02X-2940101Y-3016250I0J12751D01*
G37*
G36*
G01X-4457751Y-3619500D02*
Y-3492500D01*
G02X-4445000Y-3479749I12751J0D01*
G01X-4318000D01*
G02X-4305249Y-3492500I0J-12751D01*
G01Y-3619500D01*
G02X-4318000Y-3632251I-12751J0D01*
G01X-4445000D01*
G02X-4457751Y-3619500I0J12751D01*
G37*
G36*
G01X-4775251D02*
Y-3492500D01*
G02X-4762500Y-3479749I12751J0D01*
G01X-4635500D01*
G02X-4622749Y-3492500I0J-12751D01*
G01Y-3619500D01*
G02X-4635500Y-3632251I-12751J0D01*
G01X-4762500D01*
G02X-4775251Y-3619500I0J12751D01*
G37*
G36*
G01X-4892091Y-4140200D02*
Y-4013200D01*
G02X-4879340Y-4000449I12751J0D01*
G01X-4752340D01*
G02X-4739589Y-4013200I0J-12751D01*
G01Y-4140200D01*
G02X-4752340Y-4152951I-12751J0D01*
G01X-4879340D01*
G02X-4892091Y-4140200I0J12751D01*
G37*
G36*
G01X-1727251Y-4191000D02*
Y-4064000D01*
G02X-1714500Y-4051249I12751J0D01*
G01X-1587500D01*
G02X-1574749Y-4064000I0J-12751D01*
G01Y-4191000D01*
G02X-1587500Y-4203751I-12751J0D01*
G01X-1714500D01*
G02X-1727251Y-4191000I0J12751D01*
G37*
G36*
G01Y-4445000D02*
Y-4318000D01*
G02X-1714500Y-4305249I12751J0D01*
G01X-1587500D01*
G02X-1574749Y-4318000I0J-12751D01*
G01Y-4445000D01*
G02X-1587500Y-4457751I-12751J0D01*
G01X-1714500D01*
G02X-1727251Y-4445000I0J12751D01*
G37*
G36*
G01Y-4699000D02*
Y-4572000D01*
G02X-1714500Y-4559249I12751J0D01*
G01X-1587500D01*
G02X-1574749Y-4572000I0J-12751D01*
G01Y-4699000D01*
G02X-1587500Y-4711751I-12751J0D01*
G01X-1714500D01*
G02X-1727251Y-4699000I0J12751D01*
G37*
G36*
G01X-2626411Y-4518660D02*
Y-4371340D01*
G02X-2613660Y-4358589I12751J0D01*
G01X-2466340D01*
G02X-2453589Y-4371340I0J-12751D01*
G01Y-4518660D01*
G02X-2466340Y-4531411I-12751J0D01*
G01X-2613660D01*
G02X-2626411Y-4518660I0J12751D01*
G37*
G36*
G01X2578100Y-4711649D02*
X2603449D01*
X2603475Y-4706595D01*
G02X2616200Y-4693869I12725J0D01*
G01X2717800D01*
G02X2730551Y-4706620I0J-12751D01*
G01Y-4792980D01*
G02X2717800Y-4805731I-12751J0D01*
G01X2616200D01*
G02X2603475Y-4793005I0J12725D01*
G01X2603449Y-4787951D01*
X2593899D01*
X2505177Y-4876648D01*
X2504796Y-4877791D01*
G02X2463800Y-4907331I-40996J13677D01*
G02X2420569Y-4864100I0J43231D01*
G02X2450109Y-4823104I43217J0D01*
G01X2451252Y-4822723D01*
X2551125Y-4722825D01*
G02X2578100Y-4711649I26975J-26966D01*
G37*
G36*
G01X-2819451Y-4362425D02*
Y-4251350D01*
G02X-2837231Y-4216400I25461J34950D01*
G02X-2750769I43231J0D01*
G02X-2768549Y-4251350I-43241J0D01*
G01Y-4362425D01*
G02X-2707589Y-4445000I-25448J-82575D01*
G02X-2880411I-86411J0D01*
G02X-2819451Y-4362425I86408J0D01*
G37*
G36*
G01X2631389Y-4305300D02*
Y-4178300D01*
G02X2644140Y-4165549I12751J0D01*
G01X2771140D01*
G02X2783891Y-4178300I0J-12751D01*
G01Y-4305300D01*
G02X2771140Y-4318051I-12751J0D01*
G01X2745791D01*
Y-4439920D01*
G02X2734615Y-4466895I-38142J0D01*
G01X2705151Y-4496359D01*
Y-4505909D01*
X2717800D01*
G02X2730551Y-4518660I0J-12751D01*
G01Y-4605020D01*
G02X2717800Y-4617771I-12751J0D01*
G01X2616200D01*
G02X2603449Y-4605020I0J12751D01*
G01Y-4518660D01*
G02X2616200Y-4505909I12751J0D01*
G01X2628849D01*
Y-4480560D01*
G02X2640025Y-4453585I38142J0D01*
G01X2669489Y-4424121D01*
Y-4318051D01*
X2644140D01*
G02X2631389Y-4305300I0J12751D01*
G37*
G36*
G01X-5092700Y-4000449D02*
X-4965700D01*
G02X-4952949Y-4013200I0J-12751D01*
G01Y-4140200D01*
G02X-4965700Y-4152951I-12751J0D01*
G01X-5092700D01*
G02X-5105451Y-4140200I0J12751D01*
G01Y-4114851D01*
X-5224755D01*
G02X-5245075Y-4119931I-20333J38154D01*
G01X-5245100D01*
G02Y-4033469I0J43231D01*
G01X-5245075D01*
G02X-5224755Y-4038549I-13J-43234D01*
G01X-5105451D01*
Y-4013200D01*
G02X-5092700Y-4000449I12751J0D01*
G37*
G36*
G01X-3065983Y-4300017D02*
X-2709774Y-3943782D01*
X-2710002Y-3941394D01*
G02X-2710231Y-3937000I43000J4440D01*
G02X-2667000Y-3980231I43231J0D01*
G02X-2671394Y-3980002I46J43228D01*
G01X-2673782Y-3979774D01*
X-3022549Y-4328541D01*
Y-4362425D01*
G02X-2961589Y-4445000I-25448J-82575D01*
G02X-3134411I-86411J0D01*
G02X-3073451Y-4362425I86408J0D01*
G01Y-4318000D01*
G02X-3065983Y-4300017I25441J-23D01*
G37*
G36*
G01X-3422650Y-3701999D02*
X-3295650D01*
G02X-3282899Y-3714750I0J-12751D01*
G01Y-3778250D01*
G02X-3295650Y-3791001I-12751J0D01*
G01X-3422650D01*
G02X-3435401Y-3778250I0J12751D01*
G01Y-3771951D01*
X-3463747D01*
X-3465017Y-3775151D01*
G02X-3505200Y-3802431I-40183J15955D01*
G02Y-3715969I0J43231D01*
G01X-3505175D01*
G02X-3484855Y-3721049I-13J-43234D01*
G01X-3435401D01*
Y-3714750D01*
G02X-3422650Y-3701999I12751J0D01*
G37*
G36*
G01X-4140251Y-3832860D02*
Y-3705860D01*
G02X-4127500Y-3693109I12751J0D01*
G01X-4000500D01*
G02X-3987749Y-3705860I0J-12751D01*
G01Y-3832860D01*
G02X-4000500Y-3845611I-12751J0D01*
G01X-4038549D01*
Y-4362425D01*
G02X-3977589Y-4445000I-25448J-82575D01*
G02X-4150411I-86411J0D01*
G02X-4089451Y-4362425I86408J0D01*
G01Y-3845611D01*
X-4127500D01*
G02X-4140251Y-3832860I0J12751D01*
G37*
G36*
G01X-2927350Y-3574999D02*
X-2800350D01*
G02X-2787599Y-3587750I0J-12751D01*
G01Y-3651250D01*
G02X-2800350Y-3664001I-12751J0D01*
G01X-2927350D01*
G02X-2940101Y-3651250I0J12751D01*
G01Y-3644951D01*
X-3012059D01*
X-3022549Y-3655441D01*
Y-4191000D01*
G02X-3030017Y-4208983I-25441J23D01*
G01X-3093517Y-4272483D01*
G02X-3111500Y-4279951I-18006J17974D01*
G01X-3266059D01*
X-3276549Y-4290441D01*
Y-4362425D01*
G02Y-4527575I-25448J-82575D01*
G01Y-4688459D01*
X-3227959Y-4737049D01*
X-2296541D01*
X-2184451Y-4624959D01*
Y-4152900D01*
G02X-2176983Y-4134917I25441J-23D01*
G01X-2151583Y-4109517D01*
G02X-2133600Y-4102049I18006J-17974D01*
G01X-1940611D01*
Y-4064000D01*
G02X-1927860Y-4051249I12751J0D01*
G01X-1800860D01*
G02X-1788109Y-4064000I0J-12751D01*
G01Y-4191000D01*
G02X-1800860Y-4203751I-12751J0D01*
G01X-1927860D01*
G02X-1940611Y-4191000I0J12751D01*
G01Y-4152951D01*
X-2123059D01*
X-2133549Y-4163441D01*
Y-4635500D01*
G02X-2141017Y-4653483I-25441J23D01*
G01X-2268017Y-4780483D01*
G02X-2286000Y-4787951I-18006J17974D01*
G01X-3238500D01*
G02X-3256483Y-4780483I23J25441D01*
G01X-3319983Y-4716983D01*
G02X-3327451Y-4699000I17974J18006D01*
G01Y-4527575D01*
G02Y-4362425I25448J82575D01*
G01Y-4279900D01*
G02X-3319983Y-4261917I25441J-23D01*
G01X-3294583Y-4236517D01*
G02X-3276600Y-4229049I18006J-17974D01*
G01X-3122041D01*
X-3073451Y-4180459D01*
Y-3644900D01*
G02X-3065983Y-3626917I25441J-23D01*
G01X-3040583Y-3601517D01*
G02X-3022600Y-3594049I18006J-17974D01*
G01X-2940101D01*
Y-3587750D01*
G02X-2927350Y-3574999I12751J0D01*
G37*
G36*
G01X-3422650Y-3447999D02*
X-3295650D01*
G02X-3282899Y-3460750I0J-12751D01*
G01Y-3524250D01*
G02X-3295650Y-3537001I-12751J0D01*
G01X-3422650D01*
G02X-3435401Y-3524250I0J12751D01*
G01Y-3517951D01*
X-3520059D01*
X-3657549Y-3655441D01*
Y-4307459D01*
X-3596411Y-4368622D01*
G02X-3556000Y-4358589I40411J-76369D01*
G02X-3469589Y-4445000I0J-86411D01*
G02X-3530549Y-4527575I-86408J0D01*
G01Y-4726559D01*
X-3456559Y-4800549D01*
X-2233041D01*
X-2120951Y-4688459D01*
Y-4406900D01*
G02X-2113483Y-4388917I25441J-23D01*
G01X-2088083Y-4363517D01*
G02X-2070100Y-4356049I18006J-17974D01*
G01X-1940611D01*
Y-4318000D01*
G02X-1927860Y-4305249I12751J0D01*
G01X-1800860D01*
G02X-1788109Y-4318000I0J-12751D01*
G01Y-4445000D01*
G02X-1800860Y-4457751I-12751J0D01*
G01X-1927860D01*
G02X-1940611Y-4445000I0J12751D01*
G01Y-4406951D01*
X-2059559D01*
X-2070049Y-4417441D01*
Y-4699000D01*
G02X-2077517Y-4716983I-25441J23D01*
G01X-2204517Y-4843983D01*
G02X-2222500Y-4851451I-18006J17974D01*
G01X-3467100D01*
G02X-3485083Y-4843983I23J25441D01*
G01X-3573983Y-4755083D01*
G02X-3581451Y-4737100I17974J18006D01*
G01Y-4527575D01*
G02X-3642411Y-4445000I25448J82575D01*
G02X-3633978Y-4407789I86406J-20D01*
G01X-3632429Y-4404538D01*
X-3700983Y-4335983D01*
G02X-3708451Y-4318000I17974J18006D01*
G01Y-3644900D01*
G02X-3700983Y-3626917I25441J-23D01*
G01X-3548583Y-3474517D01*
G02X-3530600Y-3467049I18006J-17974D01*
G01X-3435401D01*
Y-3460750D01*
G02X-3422650Y-3447999I12751J0D01*
G37*
G36*
G01X-3700831Y-3479800D02*
G02X-3657600Y-3523031I43231J0D01*
G02X-3661994Y-3522802I46J43228D01*
G01X-3664382Y-3522574D01*
X-3679139Y-3537306D01*
G02X-3697122Y-3544773I-18006J17974D01*
G01X-3699281D01*
X-3784549Y-3630041D01*
Y-4362425D01*
G02Y-4527575I-25448J-82575D01*
G01Y-4815459D01*
X-3735959Y-4864049D01*
X-2169541D01*
X-2057451Y-4751959D01*
Y-4660900D01*
G02X-2049983Y-4642917I25441J-23D01*
G01X-2024583Y-4617517D01*
G02X-2006600Y-4610049I18006J-17974D01*
G01X-1940611D01*
Y-4572000D01*
G02X-1927860Y-4559249I12751J0D01*
G01X-1800860D01*
G02X-1788109Y-4572000I0J-12751D01*
G01Y-4699000D01*
G02X-1800860Y-4711751I-12751J0D01*
G01X-1927860D01*
G02X-1940611Y-4699000I0J12751D01*
G01Y-4660951D01*
X-1996059D01*
X-2006549Y-4671441D01*
Y-4762500D01*
G02X-2014017Y-4780483I-25441J23D01*
G01X-2141017Y-4907483D01*
G02X-2159000Y-4914951I-18006J17974D01*
G01X-3746500D01*
G02X-3764483Y-4907483I23J25441D01*
G01X-3827983Y-4843983D01*
G02X-3835451Y-4826000I17974J18006D01*
G01Y-4527575D01*
G02Y-4362425I25448J82575D01*
G01Y-3619500D01*
G02X-3827983Y-3601517I25441J-23D01*
G01X-3727806Y-3501339D01*
G02X-3709822Y-3493872I18006J-17974D01*
G01X-3707663D01*
X-3700374Y-3486582D01*
X-3700602Y-3484194D01*
G02X-3700831Y-3479800I43000J4440D01*
G37*
G36*
G01X-3422650Y-3320999D02*
X-3295650D01*
G02X-3282899Y-3333750I0J-12751D01*
G01Y-3397250D01*
G02X-3295650Y-3410001I-12751J0D01*
G01X-3422650D01*
G02X-3435401Y-3397250I0J12751D01*
G01Y-3390951D01*
X-3672459D01*
X-3855517Y-3573983D01*
G02X-3873500Y-3581451I-18006J17974D01*
G01X-3987749D01*
Y-3619500D01*
G02X-4000500Y-3632251I-12751J0D01*
G01X-4127500D01*
G02X-4140251Y-3619500I0J12751D01*
G01Y-3492500D01*
G02X-4127500Y-3479749I12751J0D01*
G01X-4000500D01*
G02X-3987749Y-3492500I0J-12751D01*
G01Y-3530549D01*
X-3884041D01*
X-3700983Y-3347517D01*
G02X-3683000Y-3340049I18006J-17974D01*
G01X-3435401D01*
Y-3333750D01*
G02X-3422650Y-3320999I12751J0D01*
G37*
G36*
G01X-2940101Y-3397250D02*
Y-3333750D01*
G02X-2927350Y-3320999I12751J0D01*
G01X-2800350D01*
G02X-2787599Y-3333750I0J-12751D01*
G01Y-3340049D01*
X-2774950D01*
G02X-2756967Y-3347517I-23J-25441D01*
G01X-2751709Y-3352749D01*
X-2651150D01*
G02X-2616200Y-3334969I34950J-25461D01*
G02Y-3421431I0J-43231D01*
G02X-2651150Y-3403651I0J43241D01*
G01X-2762250D01*
G02X-2775331Y-3400019I21J25445D01*
G03X-2789326Y-3403651I-5206J-8720D01*
G02X-2800350Y-3410001I-11024J6393D01*
G01X-2927350D01*
G02X-2940101Y-3397250I0J12751D01*
G37*
G36*
G01Y-3143250D02*
Y-3079750D01*
G02X-2927350Y-3066999I12751J0D01*
G01X-2800350D01*
G02X-2787599Y-3079750I0J-12751D01*
G01Y-3086049D01*
X-2692400D01*
G02X-2674417Y-3093517I-23J-25441D01*
G01X-2673731Y-3094203D01*
G02X-2667000Y-3093669I6770J-42694D01*
G02Y-3180131I0J-43231D01*
G02X-2709977Y-3141472I0J43218D01*
G01X-2710459Y-3136951D01*
X-2787599D01*
Y-3143250D01*
G02X-2800350Y-3156001I-12751J0D01*
G01X-2927350D01*
G02X-2940101Y-3143250I0J12751D01*
G37*
G36*
G01X-3422650Y-2939999D02*
X-3295650D01*
G02X-3282899Y-2952750I0J-12751D01*
G01Y-3016250D01*
G02X-3295650Y-3029001I-12751J0D01*
G01X-3422650D01*
G02X-3433674Y-3022651I0J12743D01*
G03X-3447669Y-3019019I-8789J-5088D01*
G02X-3460750Y-3022651I-13102J21813D01*
G01X-3495650D01*
G02X-3530600Y-3040431I-34950J25461D01*
G02Y-2953969I0J43231D01*
G02X-3495650Y-2971749I0J-43241D01*
G01X-3471291D01*
X-3466033Y-2966517D01*
G02X-3448050Y-2959049I18006J-17974D01*
G01X-3435401D01*
Y-2952750D01*
G02X-3422650Y-2939999I12751J0D01*
G37*
G36*
G01X-2829560Y-2705049D02*
X-2702560D01*
G02X-2689809Y-2717800I0J-12751D01*
G01Y-2844800D01*
G02X-2702560Y-2857551I-12751J0D01*
G01X-2829560D01*
G02X-2842311Y-2844800I0J12751D01*
G01Y-2819451D01*
X-2913355D01*
G02X-2933675Y-2824531I-20333J38154D01*
G01X-2933700D01*
G02Y-2738069I0J43231D01*
G01X-2933675D01*
G02X-2913355Y-2743149I-13J-43234D01*
G01X-2842311D01*
Y-2717800D01*
G02X-2829560Y-2705049I12751J0D01*
G37*
G36*
G01X2877769Y-1587500D02*
G02X2964231I43231J0D01*
G01Y-1587525D01*
G02X2959151Y-1607845I-43234J13D01*
G01Y-4165549D01*
X2984500D01*
G02X2997251Y-4178300I0J-12751D01*
G01Y-4305300D01*
G02X2984500Y-4318051I-12751J0D01*
G01X2857500D01*
G02X2844749Y-4305300I0J12751D01*
G01Y-4178300D01*
G02X2857500Y-4165549I12751J0D01*
G01X2882849D01*
Y-1607845D01*
G02X2877769Y-1587525I38154J20333D01*
G01Y-1587500D01*
G37*
G36*
G01X-4914951Y-3743960D02*
Y-1381150D01*
G02X-4932731Y-1346200I25461J34950D01*
G02X-4846269I43231J0D01*
G02X-4864049Y-1381150I-43241J0D01*
G01Y-3733419D01*
X-4853559Y-3743909D01*
X-4775251D01*
Y-3705860D01*
G02X-4762500Y-3693109I12751J0D01*
G01X-4635500D01*
G02X-4622749Y-3705860I0J-12751D01*
G01Y-3809619D01*
X-4554017Y-3878377D01*
G02X-4546549Y-3896360I-17974J-18006D01*
G01Y-4362425D01*
G02X-4485589Y-4445000I-25448J-82575D01*
G02X-4658411I-86411J0D01*
G02X-4597451Y-4362425I86408J0D01*
G01Y-3906901D01*
X-4658741Y-3845611D01*
X-4762500D01*
G02X-4775251Y-3832860I0J12751D01*
G01Y-3794811D01*
X-4864100D01*
G02X-4882083Y-3787343I23J25441D01*
G01X-4907483Y-3761943D01*
G02X-4914951Y-3743960I17974J18006D01*
G37*
G36*
G01X-4533951D02*
Y-1355750D01*
G02X-4551731Y-1320800I25461J34950D01*
G02X-4465269I43231J0D01*
G02X-4483049Y-1355750I-43241J0D01*
G01Y-3733419D01*
X-4472559Y-3743909D01*
X-4457751D01*
Y-3705860D01*
G02X-4445000Y-3693109I12751J0D01*
G01X-4318000D01*
G02X-4305249Y-3705860I0J-12751D01*
G01Y-3832860D01*
G02X-4318000Y-3845611I-12751J0D01*
G01X-4333672D01*
G03X-4340835Y-3862934I21J-10151D01*
G01X-4300017Y-3903777D01*
G02X-4292549Y-3921760I-17974J-18006D01*
G01Y-4362425D01*
G02X-4231589Y-4445000I-25448J-82575D01*
G02X-4404411I-86411J0D01*
G02X-4343451Y-4362425I86408J0D01*
G01Y-3932301D01*
X-4399483Y-3876243D01*
G02X-4406951Y-3858260I17974J18006D01*
G01Y-3845611D01*
X-4445000D01*
G02X-4457751Y-3832860I0J12751D01*
G01Y-3794811D01*
X-4483100D01*
G02X-4501083Y-3787343I23J25441D01*
G01X-4526483Y-3761943D01*
G02X-4533951Y-3743960I17974J18006D01*
G37*
G36*
G01X-3784651Y-3200400D02*
Y-1355750D01*
G02X-3802431Y-1320800I25461J34950D01*
G02X-3715969I43231J0D01*
G02X-3733749Y-1355750I-43241J0D01*
G01Y-3189859D01*
X-3723259Y-3200349D01*
X-3460750D01*
G02X-3447669Y-3203981I-21J-25445D01*
G03X-3433674Y-3200349I5206J8720D01*
G02X-3422650Y-3193999I11024J-6393D01*
G01X-3295650D01*
G02X-3282899Y-3206750I0J-12751D01*
G01Y-3270250D01*
G02X-3295650Y-3283001I-12751J0D01*
G01X-3422650D01*
G02X-3435401Y-3270250I0J12751D01*
G01Y-3263951D01*
X-3448050D01*
G02X-3466033Y-3256483I23J25441D01*
G01X-3471291Y-3251251D01*
X-3733800D01*
G02X-3751783Y-3243783I23J25441D01*
G01X-3777183Y-3218383D01*
G02X-3784651Y-3200400I17974J18006D01*
G37*
G36*
G01X-2380031Y-1168400D02*
G02X-2293569I43231J0D01*
G02X-2311349Y-1203350I-43241J0D01*
G01Y-3149600D01*
G02X-2318817Y-3167583I-25441J23D01*
G01X-2395017Y-3243783D01*
G02X-2413000Y-3251251I-18006J17974D01*
G01X-2751709D01*
X-2756967Y-3256483D01*
G02X-2774950Y-3263951I-18006J17974D01*
G01X-2787599D01*
Y-3270250D01*
G02X-2800350Y-3283001I-12751J0D01*
G01X-2927350D01*
G02X-2940101Y-3270250I0J12751D01*
G01Y-3206750D01*
G02X-2927350Y-3193999I12751J0D01*
G01X-2800350D01*
G02X-2789326Y-3200349I0J-12743D01*
G03X-2775331Y-3203981I8789J5088D01*
G02X-2762250Y-3200349I13102J-21813D01*
G01X-2423541D01*
X-2362251Y-3139059D01*
Y-1203350D01*
G02X-2380031Y-1168400I25461J34950D01*
G37*
G36*
G01X2217445Y-1041349D02*
X2285949D01*
X2285975Y-1036295D01*
G02X2298700Y-1023569I12725J0D01*
G01X2400300D01*
G02X2413051Y-1036320I0J-12751D01*
G01Y-1122680D01*
G02X2400300Y-1135431I-12751J0D01*
G01X2298700D01*
G02X2285975Y-1122705I0J12725D01*
G01X2285949Y-1117651D01*
X2217445D01*
G02X2197125Y-1122731I-20333J38154D01*
G01X2197100D01*
G02Y-1036269I0J43231D01*
G01X2197125D01*
G02X2217445Y-1041349I-13J-43234D01*
G37*
G36*
G01X2473909Y-1028700D02*
Y-942340D01*
G02X2486660Y-929589I12751J0D01*
G01X2613660D01*
G02X2626411Y-942340I0J-12751D01*
G01Y-953719D01*
X2735428D01*
X2736647Y-953008D01*
G02X2743200Y-951179I6578J-10915D01*
G01X2794000D01*
G02X2806751Y-963930I0J-12751D01*
G01Y-1007110D01*
G02X2794000Y-1019861I-12751J0D01*
G01X2743200D01*
G02X2736647Y-1018032I25J12744D01*
G01X2735428Y-1017321D01*
X2626411D01*
Y-1028700D01*
G02X2613660Y-1041451I-12751J0D01*
G01X2486660D01*
G02X2473909Y-1028700I0J12751D01*
G37*
G36*
G01X1864309Y-952500D02*
Y-825500D01*
G02X1877060Y-812749I12751J0D01*
G01X2004060D01*
G02X2016811Y-825500I0J-12751D01*
G01Y-863549D01*
X2029460D01*
G02X2039620Y-865683I-39J-25443D01*
G01X2040585Y-866089D01*
X2285949D01*
Y-848360D01*
G02X2298700Y-835609I12751J0D01*
G01X2400300D01*
G02X2413051Y-848360I0J-12751D01*
G01Y-934720D01*
G02X2400300Y-947471I-12751J0D01*
G01X2298700D01*
G02X2285949Y-934720I0J12751D01*
G01Y-916991D01*
X2032000D01*
G02X2028393Y-916711I156J25439D01*
G03X2016811Y-926770I-1424J-10058D01*
G01Y-952500D01*
G02X2004060Y-965251I-12751J0D01*
G01X1877060D01*
G02X1864309Y-952500I0J12751D01*
G37*
G36*
G01X-297231Y-825500D02*
G02X-210769I43231J0D01*
G01Y-825525D01*
G02X-215849Y-845845I-43234J13D01*
G01Y-1028700D01*
G02X-227025Y-1055675I-38142J0D01*
G01X-277825Y-1106475D01*
G02X-304800Y-1117651I-26975J26966D01*
G01X-444500D01*
G02X-471475Y-1106475I0J38142D01*
G01X-523799Y-1054151D01*
X-558749D01*
Y-1079500D01*
G02X-571500Y-1092251I-12751J0D01*
G01X-698500D01*
G02X-711251Y-1079500I0J12751D01*
G01Y-952500D01*
G02X-698500Y-939749I12751J0D01*
G01X-571500D01*
G02X-558749Y-952500I0J-12751D01*
G01Y-977849D01*
X-508000D01*
G02X-481025Y-989025I0J-38142D01*
G01X-428701Y-1041349D01*
X-320599D01*
X-292151Y-1012901D01*
Y-845845D01*
G02X-297231Y-825525I38154J20333D01*
G01Y-825500D01*
G37*
G36*
G01X-711251D02*
Y-698500D01*
G02X-698500Y-685749I12751J0D01*
G01X-571500D01*
G02X-558749Y-698500I0J-12751D01*
G01Y-723849D01*
X-444500D01*
G02X-417525Y-735025I0J-38142D01*
G01X-354025Y-798525D01*
G02X-342849Y-825500I-26966J-26975D01*
G01Y-932155D01*
G02X-337769Y-952475I-38154J-20333D01*
G01Y-952500D01*
G02X-424231I-43231J0D01*
G01Y-952475D01*
G02X-419151Y-932155I43234J-13D01*
G01Y-841299D01*
X-460299Y-800151D01*
X-558749D01*
Y-825500D01*
G02X-571500Y-838251I-12751J0D01*
G01X-698500D01*
G02X-711251Y-825500I0J12751D01*
G37*
G36*
G01X1650949Y-914451D02*
X1399311D01*
G03X1392123Y-931774I-3J-10152D01*
G01X2009699Y-1549349D01*
X2743200D01*
G02X2770175Y-1560525I0J-38142D01*
G01X2820975Y-1611325D01*
G02X2832151Y-1638300I-26966J-26975D01*
G01Y-3789655D01*
G02X2837231Y-3809975I-38154J-20333D01*
G01Y-3810000D01*
G02X2750769I-43231J0D01*
G01Y-3809975D01*
G02X2755849Y-3789655I43234J-13D01*
G01Y-1654099D01*
X2727401Y-1625651D01*
X1993900D01*
G02X1966925Y-1614475I0J38142D01*
G01X1243025Y-890575D01*
G02X1231849Y-863600I26966J26975D01*
G01Y-629945D01*
G02X1226769Y-609625I38154J20333D01*
G01Y-609600D01*
G02X1313231I43231J0D01*
G01Y-609625D01*
G02X1308151Y-629945I-43234J13D01*
G01Y-847801D01*
X1323899Y-863549D01*
X1650949D01*
Y-825500D01*
G02X1663700Y-812749I12751J0D01*
G01X1790700D01*
G02X1803451Y-825500I0J-12751D01*
G01Y-952500D01*
G02X1790700Y-965251I-12751J0D01*
G01X1663700D01*
G02X1650949Y-952500I0J12751D01*
G01Y-914451D01*
G37*
G36*
G01X-3355391Y-635000D02*
Y-508000D01*
G02X-3342640Y-495249I12751J0D01*
G01X-3215640D01*
G02X-3202889Y-508000I0J-12751D01*
G01Y-546049D01*
X-2816250D01*
G02X-2781300Y-528269I34950J-25461D01*
G02Y-614731I0J-43231D01*
G02X-2816250Y-596951I0J43241D01*
G01X-3202889D01*
Y-635000D01*
G02X-3215640Y-647751I-12751J0D01*
G01X-3342640D01*
G02X-3355391Y-635000I0J12751D01*
G37*
G36*
G01X-266751Y-467360D02*
Y-340360D01*
G02X-254000Y-327609I12751J0D01*
G01X-127000D01*
G02X-114249Y-340360I0J-12751D01*
G01Y-467360D01*
G02X-127000Y-480111I-12751J0D01*
G01X-152349D01*
Y-525755D01*
G02X-147269Y-546075I-38154J-20333D01*
G01Y-546100D01*
G02X-233731I-43231J0D01*
G01Y-546075D01*
G02X-228651Y-525755I43234J-13D01*
G01Y-480111D01*
X-254000D01*
G02X-266751Y-467360I0J12751D01*
G37*
G36*
G01X2032000Y203251D02*
X2159000D01*
G02X2171751Y190500I0J-12751D01*
G01Y63500D01*
G02X2159000Y50749I-12751J0D01*
G01X2032000D01*
G02X2019249Y63500I0J12751D01*
G01Y88849D01*
X1925345D01*
G02X1905025Y83769I-20333J38154D01*
G01X1905000D01*
G02Y170231I0J43231D01*
G01X1905025D01*
G02X1925345Y165151I-13J-43234D01*
G01X2019249D01*
Y190500D01*
G02X2032000Y203251I12751J0D01*
G37*
G36*
G01X2476500Y228651D02*
X2535072D01*
X2536596Y230454D01*
G02X2546350Y235001I9754J-8189D01*
G01X2673350D01*
G02X2686101Y222250I0J-12751D01*
G01Y158750D01*
G02X2673350Y145999I-12751J0D01*
G01X2546350D01*
G02X2536596Y150546I0J12735D01*
G01X2535072Y152349D01*
X2492299D01*
X2439975Y100025D01*
G02X2413000Y88849I-26975J26966D01*
G01X2385111D01*
Y63500D01*
G02X2372360Y50749I-12751J0D01*
G01X2268601D01*
X2202434Y-15418D01*
Y-45517D01*
G02X2194966Y-63500I-25441J23D01*
G01X2171751Y-86741D01*
Y-190500D01*
G02X2159000Y-203251I-12751J0D01*
G01X2032000D01*
G02X2019249Y-190500I0J12751D01*
G01Y-63500D01*
G02X2032000Y-50749I12751J0D01*
G01X2135759D01*
X2151532Y-34976D01*
Y-4877D01*
G02X2159000Y13106I25441J-23D01*
G01X2232609Y86741D01*
Y190500D01*
G02X2245360Y203251I12751J0D01*
G01X2372360D01*
G02X2385111Y190500I0J-12751D01*
G01Y165151D01*
X2397201D01*
X2449525Y217475D01*
G02X2476500Y228651I26975J-26966D01*
G37*
G36*
G01X-266751Y213360D02*
Y340360D01*
G02X-254000Y353111I12751J0D01*
G01X-127000D01*
G02X-114249Y340360I0J-12751D01*
G01Y315011D01*
X27915D01*
G02X48235Y320091I20333J-38154D01*
G01X48260D01*
G02Y233629I0J-43231D01*
G01X48235D01*
G02X27915Y238709I13J43234D01*
G01X-114249D01*
Y213360D01*
G02X-127000Y200609I-12751J0D01*
G01X-254000D01*
G02X-266751Y213360I0J12751D01*
G37*
G36*
G01X-2946451Y241300D02*
Y368300D01*
G02X-2933700Y381051I12751J0D01*
G01X-2806700D01*
G02X-2793949Y368300I0J-12751D01*
G01Y241300D01*
G02X-2806700Y228549I-12751J0D01*
G01X-2832049D01*
Y172745D01*
G02X-2826969Y152425I-38154J-20333D01*
G01Y152400D01*
G02X-2913431I-43231J0D01*
G01Y152425D01*
G02X-2908351Y172745I43234J-13D01*
G01Y228549D01*
X-2933700D01*
G02X-2946451Y241300I0J12751D01*
G37*
G36*
G01X2032000Y457251D02*
X2159000D01*
G02X2171751Y444500I0J-12751D01*
G01Y317500D01*
G02X2159000Y304749I-12751J0D01*
G01X2032000D01*
G02X2019249Y317500I0J12751D01*
G01Y342849D01*
X1781099D01*
X1752651Y314401D01*
Y45745D01*
G02X1757731Y25425I-38154J-20333D01*
G01Y25400D01*
G02X1671269I-43231J0D01*
G01Y25425D01*
G02X1676349Y45745I43234J-13D01*
G01Y330200D01*
G02X1687525Y357175I38142J0D01*
G01X1738325Y407975D01*
G02X1765300Y419151I26975J-26966D01*
G01X2019249D01*
Y444500D01*
G02X2032000Y457251I12751J0D01*
G37*
G36*
G01X2232609Y317500D02*
Y444500D01*
G02X2245360Y457251I12751J0D01*
G01X2372360D01*
G02X2385111Y444500I0J-12751D01*
G01Y419151D01*
X2444750D01*
G02X2471725Y407975I0J-38142D01*
G01X2524049Y355651D01*
X2535072D01*
X2536596Y357454D01*
G02X2546350Y362001I9754J-8189D01*
G01X2673350D01*
G02X2686101Y349250I0J-12751D01*
G01Y285750D01*
G02X2673350Y272999I-12751J0D01*
G01X2546350D01*
G02X2536596Y277546I0J12735D01*
G01X2535072Y279349D01*
X2508250D01*
G02X2481275Y290525I0J38142D01*
G01X2428951Y342849D01*
X2385111D01*
Y317500D01*
G02X2372360Y304749I-12751J0D01*
G01X2245360D01*
G02X2232609Y317500I0J12751D01*
G37*
G36*
G01X2578100Y723951D02*
X2603449D01*
X2603475Y729005D01*
G02X2616200Y741731I12725J0D01*
G01X2717800D01*
G02X2730551Y728980I0J-12751D01*
G01Y642620D01*
G02X2717800Y629869I-12751J0D01*
G01X2616200D01*
G02X2603475Y642595I0J12725D01*
G01X2603449Y647649D01*
X2593899D01*
X2555977Y609752D01*
X2555596Y608609D01*
G02X2514600Y579069I-40996J13677D01*
G02X2471369Y622300I0J43231D01*
G02X2500909Y663296I43217J0D01*
G01X2502052Y663677D01*
X2551125Y712775D01*
G02X2578100Y723951I26975J-26966D01*
G37*
G36*
G01X-50851Y749300D02*
Y876300D01*
G02X-38100Y889051I12751J0D01*
G01X88900D01*
G02X101651Y876300I0J-12751D01*
G01Y850951D01*
X208255D01*
G02X228575Y856031I20333J-38154D01*
G01X228600D01*
G02Y769569I0J-43231D01*
G01X228575D01*
G02X208255Y774649I13J43234D01*
G01X101651D01*
Y749300D01*
G02X88900Y736549I-12751J0D01*
G01X-38100D01*
G02X-50851Y749300I0J12751D01*
G37*
G36*
G01X-139751Y1016000D02*
Y1143000D01*
G02X-127000Y1155751I12751J0D01*
G01X0D01*
G02X12751Y1143000I0J-12751D01*
G01Y1117651D01*
X1079500D01*
G02X1106475Y1106475I0J-38142D01*
G01X1169975Y1042975D01*
G02X1181151Y1016000I-26966J-26975D01*
G01Y274345D01*
G02X1186231Y254025I-38154J-20333D01*
G01Y254000D01*
G02X1099769I-43231J0D01*
G01Y254025D01*
G02X1104849Y274345I43234J-13D01*
G01Y1000201D01*
X1063701Y1041349D01*
X12751D01*
Y1016000D01*
G02X0Y1003249I-12751J0D01*
G01X-127000D01*
G02X-139751Y1016000I0J12751D01*
G37*
G36*
G01X2631389Y1130300D02*
Y1257300D01*
G02X2644140Y1270051I12751J0D01*
G01X2771140D01*
G02X2783891Y1257300I0J-12751D01*
G01Y1130300D01*
G02X2771140Y1117549I-12751J0D01*
G01X2745791D01*
Y995680D01*
G02X2734615Y968705I-38142J0D01*
G01X2705151Y939241D01*
Y929691D01*
X2717800D01*
G02X2730551Y916940I0J-12751D01*
G01Y830580D01*
G02X2717800Y817829I-12751J0D01*
G01X2616200D01*
G02X2603449Y830580I0J12751D01*
G01Y916940D01*
G02X2616200Y929691I12751J0D01*
G01X2628849D01*
Y955040D01*
G02X2640025Y982015I38142J0D01*
G01X2669489Y1011479D01*
Y1117549D01*
X2644140D01*
G02X2631389Y1130300I0J12751D01*
G37*
G36*
G01X-139751Y1270000D02*
Y1397000D01*
G02X-127000Y1409751I12751J0D01*
G01X0D01*
G02X12751Y1397000I0J-12751D01*
G01Y1371651D01*
X1143000D01*
G02X1169975Y1360475I0J-38142D01*
G01X1296975Y1233475D01*
G02X1308151Y1206500I-26966J-26975D01*
G01Y655345D01*
G02X1313231Y635025I-38154J-20333D01*
G01Y635000D01*
G02X1226769I-43231J0D01*
G01Y635025D01*
G02X1231849Y655345I43234J-13D01*
G01Y1190701D01*
X1127201Y1295349D01*
X12751D01*
Y1270000D01*
G02X0Y1257249I-12751J0D01*
G01X-127000D01*
G02X-139751Y1270000I0J12751D01*
G37*
G36*
G01X-1765300Y1651051D02*
X-1638300D01*
G02X-1625549Y1638300I0J-12751D01*
G01Y1511300D01*
G02X-1638300Y1498549I-12751J0D01*
G01X-1765300D01*
G02X-1778051Y1511300I0J12751D01*
G01Y1536649D01*
X-1986255D01*
G02X-2006575Y1531569I-20333J38154D01*
G01X-2006600D01*
G02Y1618031I0J43231D01*
G01X-2006575D01*
G02X-1986255Y1612951I-13J-43234D01*
G01X-1778051D01*
Y1638300D01*
G02X-1765300Y1651051I12751J0D01*
G37*
G36*
G01Y1930451D02*
X-1638300D01*
G02X-1625549Y1917700I0J-12751D01*
G01Y1790700D01*
G02X-1638300Y1777949I-12751J0D01*
G01X-1765300D01*
G02X-1778051Y1790700I0J12751D01*
G01Y1816049D01*
X-1986255D01*
G02X-2006575Y1810969I-20333J38154D01*
G01X-2006600D01*
G02Y1897431I0J43231D01*
G01X-2006575D01*
G02X-1986255Y1892351I-13J-43234D01*
G01X-1778051D01*
Y1917700D01*
G02X-1765300Y1930451I12751J0D01*
G37*
G36*
G01X-3870960Y2293671D02*
X-3749040D01*
G02X-3736289Y2280920I0J-12751D01*
G01Y2087880D01*
G02X-3749040Y2075129I-12751J0D01*
G01X-3870960D01*
G02X-3883711Y2087880I0J12751D01*
G01Y2158949D01*
X-3951859D01*
X-4021226Y2089582D01*
X-4020998Y2087194D01*
G02X-4020769Y2082800I-43000J-4440D01*
G02X-4064000Y2126031I-43231J0D01*
G02X-4059606Y2125802I-46J-43228D01*
G01X-4057218Y2125574D01*
X-3980383Y2202383D01*
G02X-3962400Y2209851I18006J-17974D01*
G01X-3883711D01*
Y2280920D01*
G02X-3870960Y2293671I12751J0D01*
G37*
G36*
G01X802589Y2087880D02*
Y2280920D01*
G02X815340Y2293671I12751J0D01*
G01X937260D01*
G02X950011Y2280920I0J-12751D01*
G01Y2087880D01*
G02X937260Y2075129I-12751J0D01*
G01X901751D01*
Y2062480D01*
G02X894283Y2044497I-25441J23D01*
G01X889051Y2039239D01*
Y1610741D01*
X950341Y1549451D01*
X1193800D01*
G02X1211783Y1541983I-23J-25441D01*
G01X1516583Y1237183D01*
G02X1524051Y1219200I-17974J-18006D01*
G01Y1050950D01*
G02X1541831Y1016000I-25461J-34950D01*
G02X1455369I-43231J0D01*
G02X1473149Y1050950I43241J0D01*
G01Y1208659D01*
X1183259Y1498549D01*
X939800D01*
G02X921817Y1506017I23J25441D01*
G01X845617Y1582217D01*
G02X838149Y1600200I17974J18006D01*
G01Y2049780D01*
G02X840588Y2060651I25453J0D01*
G03X831418Y2075129I-9182J4327D01*
G01X815340D01*
G02X802589Y2087880I0J12751D01*
G37*
G36*
G01X-5674360Y2293671D02*
X-5656809D01*
G03X-5647334Y2307438I-18J10156D01*
G02X-5649011Y2316480I23767J9083D01*
G01Y2387549D01*
X-5687060D01*
G02X-5699811Y2400300I0J12751D01*
G01Y2527300D01*
G02X-5687060Y2540051I12751J0D01*
G01X-5560060D01*
G02X-5547309Y2527300I0J-12751D01*
G01Y2400300D01*
G02X-5560060Y2387549I-12751J0D01*
G01X-5598109D01*
Y2327021D01*
X-5595417Y2324303D01*
G02X-5587949Y2306320I-17974J-18006D01*
G01Y2293671D01*
X-5552440D01*
G02X-5539689Y2280920I0J-12751D01*
G01Y2087880D01*
G02X-5552440Y2075129I-12751J0D01*
G01X-5674360D01*
G02X-5687111Y2087880I0J12751D01*
G01Y2280920D01*
G02X-5674360Y2293671I12751J0D01*
G37*
G36*
G01X-4963160D02*
X-4945609D01*
G03X-4936134Y2307438I-18J10156D01*
G02X-4937811Y2316480I23767J9083D01*
G01Y2387549D01*
X-4975860D01*
G02X-4988611Y2400300I0J12751D01*
G01Y2527300D01*
G02X-4975860Y2540051I12751J0D01*
G01X-4848860D01*
G02X-4836109Y2527300I0J-12751D01*
G01Y2400300D01*
G02X-4848860Y2387549I-12751J0D01*
G01X-4886909D01*
Y2327021D01*
X-4884217Y2324303D01*
G02X-4876749Y2306320I-17974J-18006D01*
G01Y2293671D01*
X-4841240D01*
G02X-4828489Y2280920I0J-12751D01*
G01Y2087880D01*
G02X-4841240Y2075129I-12751J0D01*
G01X-4963160D01*
G02X-4975911Y2087880I0J12751D01*
G01Y2280920D01*
G02X-4963160Y2293671I12751J0D01*
G37*
G36*
G01X-3571570D02*
X-3548380D01*
G02X-3535629Y2280920I0J-12751D01*
G01Y2087880D01*
G02X-3548380Y2075129I-12751J0D01*
G01X-3670300D01*
G02X-3683051Y2087880I0J12751D01*
G01Y2280920D01*
G02X-3670300Y2293671I12751J0D01*
G01X-3634791D01*
Y2306320D01*
G02X-3632657Y2316480I25443J-39D01*
G01X-3632251Y2317445D01*
Y2387549D01*
X-3670300D01*
G02X-3683051Y2400300I0J12751D01*
G01Y2527300D01*
G02X-3670300Y2540051I12751J0D01*
G01X-3543300D01*
G02X-3530549Y2527300I0J-12751D01*
G01Y2400300D01*
G02X-3543300Y2387549I-12751J0D01*
G01X-3581349D01*
Y2308860D01*
G02X-3581629Y2305253I-25439J156D01*
G03X-3571570Y2293671I10058J-1424D01*
G37*
G36*
G01X1114730D02*
X1137920D01*
G02X1150671Y2280920I0J-12751D01*
G01Y2087880D01*
G02X1137920Y2075129I-12751J0D01*
G01X1016000D01*
G02X1003249Y2087880I0J12751D01*
G01Y2280920D01*
G02X1016000Y2293671I12751J0D01*
G01X1051509D01*
Y2306320D01*
G02X1053643Y2316480I25443J-39D01*
G01X1054049Y2317445D01*
Y2387549D01*
X1016000D01*
G02X1003249Y2400300I0J12751D01*
G01Y2527300D01*
G02X1016000Y2540051I12751J0D01*
G01X1143000D01*
G02X1155751Y2527300I0J-12751D01*
G01Y2400300D01*
G02X1143000Y2387549I-12751J0D01*
G01X1104951D01*
Y2308860D01*
G02X1104671Y2305253I-25439J156D01*
G03X1114730Y2293671I10058J-1424D01*
G37*
G36*
G01X-3482391Y2984500D02*
Y3111500D01*
G02X-3469640Y3124251I12751J0D01*
G01X-3342640D01*
G02X-3329889Y3111500I0J-12751D01*
G01Y3073451D01*
X-2727350D01*
G02X-2692400Y3091231I34950J-25461D01*
G02Y3004769I0J-43231D01*
G02X-2727350Y3022549I0J43241D01*
G01X-3329889D01*
Y2984500D01*
G02X-3342640Y2971749I-12751J0D01*
G01X-3469640D01*
G02X-3482391Y2984500I0J12751D01*
G37*
G36*
G01X-4671060Y3200451D02*
X-4544060D01*
G02X-4531309Y3187700I0J-12751D01*
G01Y3060700D01*
G02X-4544060Y3047949I-12751J0D01*
G01X-4671060D01*
G02X-4683811Y3060700I0J12751D01*
G01Y3086049D01*
X-4780255D01*
G02X-4800575Y3080969I-20333J38154D01*
G01X-4800600D01*
G02Y3167431I0J43231D01*
G01X-4800575D01*
G02X-4780255Y3162351I-13J-43234D01*
G01X-4683811D01*
Y3187700D01*
G02X-4671060Y3200451I12751J0D01*
G37*
G36*
G01X323850Y3270301D02*
X450850D01*
G02X463601Y3257550I0J-12751D01*
G01Y3194050D01*
G02X450850Y3181299I-12751J0D01*
G01X323850D01*
G02X311099Y3194050I0J12751D01*
G01Y3200349D01*
X213741D01*
X195174Y3181782D01*
X195402Y3179394D01*
G02X195631Y3175000I-43000J-4440D01*
G02X152400Y3218231I-43231J0D01*
G02X156794Y3218002I-46J-43228D01*
G01X159182Y3217774D01*
X185217Y3243783D01*
G02X203200Y3251251I18006J-17974D01*
G01X311099D01*
Y3257550D01*
G02X323850Y3270301I12751J0D01*
G37*
G36*
G01X-3482391Y3238500D02*
Y3365500D01*
G02X-3469640Y3378251I12751J0D01*
G01X-3342640D01*
G02X-3329889Y3365500I0J-12751D01*
G01Y3327451D01*
X-2625750D01*
G02X-2590800Y3345231I34950J-25461D01*
G02Y3258769I0J-43231D01*
G02X-2625750Y3276549I0J43241D01*
G01X-3329889D01*
Y3238500D01*
G02X-3342640Y3225749I-12751J0D01*
G01X-3469640D01*
G02X-3482391Y3238500I0J12751D01*
G37*
G36*
G01X-5725211Y3492500D02*
G02X-5712460Y3505251I12751J0D01*
G01X-5585460D01*
G02X-5572709Y3492500I0J-12751D01*
G01Y3365500D01*
G02X-5585460Y3352749I-12751J0D01*
G01X-5712460D01*
G02X-5725211Y3365500I0J12751D01*
G01Y3385160D01*
G03X-5741162Y3393491I-10159J-14D01*
G02X-5765800Y3385769I-24656J35504D01*
G02Y3472231I0J43231D01*
G02X-5741162Y3464509I-18J-43225D01*
G03X-5725211Y3472840I5793J8345D01*
G01Y3492500D01*
G37*
G36*
G01X-1932991Y3515360D02*
G02X-1846529I43231J0D01*
G01Y3515335D01*
G02X-1851609Y3495015I-43234J13D01*
G01Y3429051D01*
X-1826260D01*
G02X-1813509Y3416300I0J-12751D01*
G01Y3289300D01*
G02X-1826260Y3276549I-12751J0D01*
G01X-1851609D01*
Y3256356D01*
X-1851076Y3255289D01*
G02X-1846529Y3235960I-38691J-19300D01*
G02X-1851609Y3215615I-43234J-12D01*
G01Y3175051D01*
X-1826260D01*
G02X-1813509Y3162300I0J-12751D01*
G01Y3035300D01*
G02X-1826260Y3022549I-12751J0D01*
G01X-1851609D01*
Y2992145D01*
G02X-1846529Y2971800I-38154J-20333D01*
G02X-1851609Y2951455I-43234J-12D01*
G01Y2921051D01*
X-1826260D01*
G02X-1813509Y2908300I0J-12751D01*
G01Y2781300D01*
G02X-1826260Y2768549I-12751J0D01*
G01X-1851609D01*
Y2702585D01*
G02X-1846529Y2682265I-38154J-20333D01*
G01Y2682240D01*
G02X-1932991I-43231J0D01*
G01Y2682265D01*
G02X-1927911Y2702585I43234J-13D01*
G01Y2768549D01*
X-1953260D01*
G02X-1966011Y2781300I0J12751D01*
G01Y2908300D01*
G02X-1953260Y2921051I12751J0D01*
G01X-1927911D01*
Y2951455D01*
G02X-1932991Y2971800I38154J20333D01*
G02X-1927911Y2992145I43234J12D01*
G01Y3022549D01*
X-1953260D01*
G02X-1966011Y3035300I0J12751D01*
G01Y3162300D01*
G02X-1953260Y3175051I12751J0D01*
G01X-1927911D01*
Y3215615D01*
G02X-1932991Y3235960I38154J20333D01*
G02X-1928444Y3255289I43238J29D01*
G01X-1927911Y3256356D01*
Y3276549D01*
X-1953260D01*
G02X-1966011Y3289300I0J12751D01*
G01Y3416300D01*
G02X-1953260Y3429051I12751J0D01*
G01X-1927911D01*
Y3495015D01*
G02X-1932991Y3515335I38154J20333D01*
G01Y3515360D01*
G37*
G36*
G01X323850Y3651301D02*
X450850D01*
G02X463601Y3638550I0J-12751D01*
G01Y3575050D01*
G02X450850Y3562299I-12751J0D01*
G01X323850D01*
G02X311099Y3575050I0J12751D01*
G01Y3581349D01*
X213741D01*
X195783Y3563417D01*
G02X189154Y3558642I-17987J17982D01*
G02X152400Y3538169I-36754J22756D01*
G02Y3624631I0J43231D01*
G02X173965Y3618865I0J-43210D01*
G01X177343Y3616909D01*
X185217Y3624783D01*
G02X203200Y3632251I18006J-17974D01*
G01X311099D01*
Y3638550D01*
G02X323850Y3651301I12751J0D01*
G37*
G36*
G01X819150D02*
X946150D01*
G02X958901Y3638550I0J-12751D01*
G01Y3575050D01*
G02X946150Y3562299I-12751J0D01*
G01X819150D01*
G02X806399Y3575050I0J12751D01*
G01Y3581349D01*
X772541D01*
X749351Y3558159D01*
Y3431921D01*
X754583Y3426663D01*
G02X762051Y3408680I-17974J-18006D01*
G01Y3387750D01*
G02X771550Y3378251I-25451J-34950D01*
G01X806399D01*
Y3384550D01*
G02X819150Y3397301I12751J0D01*
G01X946150D01*
G02X958901Y3384550I0J-12751D01*
G01Y3321050D01*
G02X946150Y3308299I-12751J0D01*
G01X819150D01*
G02X806399Y3321050I0J12751D01*
G01Y3327349D01*
X771550D01*
G02X736600Y3309569I-34950J25461D01*
G02X693369Y3352800I0J43231D01*
G02X711149Y3387750I43241J0D01*
G01Y3398139D01*
X705917Y3403397D01*
G02X698449Y3421380I17974J18006D01*
G01Y3568700D01*
G02X705917Y3586683I25441J-23D01*
G01X744017Y3624783D01*
G02X762000Y3632251I18006J-17974D01*
G01X806399D01*
Y3638550D01*
G02X819150Y3651301I12751J0D01*
G37*
G36*
G01X1330909Y3517900D02*
Y3644900D01*
G02X1343660Y3657651I12751J0D01*
G01X1470660D01*
G02X1483411Y3644900I0J-12751D01*
G01Y3619551D01*
X1579855D01*
G02X1600175Y3624631I20333J-38154D01*
G01X1600200D01*
G02Y3538169I0J-43231D01*
G01X1600175D01*
G02X1579855Y3543249I13J43234D01*
G01X1483411D01*
Y3517900D01*
G02X1470660Y3505149I-12751J0D01*
G01X1343660D01*
G02X1330909Y3517900I0J12751D01*
G37*
G36*
G01X-5725211Y3721100D02*
G02X-5712460Y3733851I12751J0D01*
G01X-5585460D01*
G02X-5572709Y3721100I0J-12751D01*
G01Y3594100D01*
G02X-5585460Y3581349I-12751J0D01*
G01X-5712460D01*
G02X-5725211Y3594100I0J12751D01*
G01Y3613760D01*
G03X-5741162Y3622091I-10159J-14D01*
G02X-5765800Y3614369I-24656J35504D01*
G02Y3700831I0J43231D01*
G02X-5741162Y3693109I-18J-43225D01*
G03X-5725211Y3701440I5793J8345D01*
G01Y3721100D01*
G37*
G36*
G01X1333449Y3771900D02*
Y3898900D01*
G02X1346200Y3911651I12751J0D01*
G01X1473200D01*
G02X1485951Y3898900I0J-12751D01*
G01Y3873551D01*
X1579855D01*
G02X1600175Y3878631I20333J-38154D01*
G01X1600200D01*
G02Y3792169I0J-43231D01*
G01X1600175D01*
G02X1579855Y3797249I13J43234D01*
G01X1485951D01*
Y3771900D01*
G02X1473200Y3759149I-12751J0D01*
G01X1346200D01*
G02X1333449Y3771900I0J12751D01*
G37*
G36*
G01X-5725211Y3975100D02*
G02X-5712460Y3987851I12751J0D01*
G01X-5585460D01*
G02X-5572709Y3975100I0J-12751D01*
G01Y3848100D01*
G02X-5585460Y3835349I-12751J0D01*
G01X-5712460D01*
G02X-5725211Y3848100I0J12751D01*
G01Y3858489D01*
G03X-5736311Y3868572I-10158J-31D01*
G02X-5740400Y3868369I-4188J43023D01*
G02Y3954831I0J43231D01*
G02X-5736311Y3954628I-98J-43226D01*
G03X-5725211Y3964711I942J10114D01*
G01Y3975100D01*
G37*
G36*
G01X2496769Y3987800D02*
G02X2583231I43231J0D01*
G01Y3987775D01*
G02X2578151Y3967455I-43234J13D01*
G01Y3886251D01*
X2603500D01*
G02X2616251Y3873500I0J-12751D01*
G01Y3746500D01*
G02X2603500Y3733749I-12751J0D01*
G01X2476500D01*
G02X2463749Y3746500I0J12751D01*
G01Y3873500D01*
G02X2476500Y3886251I12751J0D01*
G01X2501849D01*
Y3967455D01*
G02X2496769Y3987775I38154J20333D01*
G01Y3987800D01*
G37*
G36*
G01X-1473200Y4256989D02*
G02X-1386789Y4343400I0J86411D01*
G02X-1387500Y4332376I-86408J40D01*
G01X-1387805Y4329913D01*
X-1234059Y4176141D01*
G02X-1219149Y4140200I-35930J-35968D01*
G01Y3813861D01*
X-1132840D01*
G02X-1120089Y3801110I0J-12751D01*
G01Y3539490D01*
G02X-1132840Y3526739I-12751J0D01*
G01X-1407160D01*
G02X-1419911Y3539490I0J12751D01*
G01Y3801110D01*
G02X-1407160Y3813861I12751J0D01*
G01X-1320851D01*
Y4119143D01*
X-1459713Y4258005D01*
X-1462176Y4257700D01*
G02X-1473200Y4256989I-11064J85697D01*
G37*
G36*
G01X-3449371Y4747260D02*
G02X-3362909I43231J0D01*
G01Y4747235D01*
G02X-3367989Y4726915I-43234J13D01*
G01Y4648251D01*
X-3342640D01*
G02X-3329889Y4635500I0J-12751D01*
G01Y4508500D01*
G02X-3342640Y4495749I-12751J0D01*
G01X-3367989D01*
Y4394251D01*
X-3342640D01*
G02X-3329889Y4381500I0J-12751D01*
G01Y4254500D01*
G02X-3342640Y4241749I-12751J0D01*
G01X-3367989D01*
Y4140251D01*
X-3342640D01*
G02X-3329889Y4127500I0J-12751D01*
G01Y4102151D01*
X-3144545D01*
G02X-3124225Y4107231I20333J-38154D01*
G01X-3124200D01*
G02Y4020769I0J-43231D01*
G01X-3124225D01*
G02X-3144545Y4025849I13J43234D01*
G01X-3329889D01*
Y4000500D01*
G02X-3342640Y3987749I-12751J0D01*
G01X-3367989D01*
Y3886251D01*
X-3342640D01*
G02X-3329889Y3873500I0J-12751D01*
G01Y3746500D01*
G02X-3342640Y3733749I-12751J0D01*
G01X-3367989D01*
Y3632251D01*
X-3342640D01*
G02X-3329889Y3619500I0J-12751D01*
G01Y3594151D01*
X-3119145D01*
G02X-3098825Y3599231I20333J-38154D01*
G01X-3098800D01*
G02Y3512769I0J-43231D01*
G01X-3098825D01*
G02X-3119145Y3517849I13J43234D01*
G01X-3329889D01*
Y3492500D01*
G02X-3342640Y3479749I-12751J0D01*
G01X-3469640D01*
G02X-3482391Y3492500I0J12751D01*
G01Y3619500D01*
G02X-3469640Y3632251I12751J0D01*
G01X-3444291D01*
Y3733749D01*
X-3469640D01*
G02X-3482391Y3746500I0J12751D01*
G01Y3873500D01*
G02X-3469640Y3886251I12751J0D01*
G01X-3444291D01*
Y3987749D01*
X-3469640D01*
G02X-3482391Y4000500I0J12751D01*
G01Y4127500D01*
G02X-3469640Y4140251I12751J0D01*
G01X-3444291D01*
Y4241749D01*
X-3469640D01*
G02X-3482391Y4254500I0J12751D01*
G01Y4381500D01*
G02X-3469640Y4394251I12751J0D01*
G01X-3444291D01*
Y4495749D01*
X-3469640D01*
G02X-3482391Y4508500I0J12751D01*
G01Y4635500D01*
G02X-3469640Y4648251I12751J0D01*
G01X-3444291D01*
Y4726915D01*
G02X-3449371Y4747235I38154J20333D01*
G01Y4747260D01*
G37*
G36*
G01X-4775251Y-60350D02*
G02X-4793031Y-25400I25461J34950D01*
G02X-4706569I43231J0D01*
G02X-4724349Y-60350I-43241J0D01*
G01Y-128956D01*
G03X-4705401Y-134010I10152J13D01*
G02X-4584700Y-64084I120701J-69209D01*
G02X-4445584Y-203200I0J-139116D01*
G01Y-203327D01*
G02X-4448302Y-230632I-139122J60D01*
G03X-4431157Y-239801I9960J-1991D01*
G01X-4427372Y-236017D01*
G02X-4409389Y-228549I18006J-17974D01*
G01X-4292600D01*
G02X-4274617Y-236017I-23J-25441D01*
G01X-4218559Y-292049D01*
X-3568751D01*
Y-254000D01*
G02X-3556000Y-241249I12751J0D01*
G01X-3517951D01*
Y-228600D01*
G02X-3510483Y-210617I25441J-23D01*
G01X-3472383Y-172517D01*
G02X-3454400Y-165049I18006J-17974D01*
G01X-2476500D01*
G02X-2458517Y-172517I-23J-25441D01*
G01X-2241982Y-389026D01*
X-2239594Y-388798D01*
G02X-2235200Y-388569I4440J-43000D01*
G02X-2278431Y-431800I0J-43231D01*
G02X-2278202Y-427406I43228J-46D01*
G01X-2277974Y-425018D01*
X-2487041Y-215951D01*
X-3443859D01*
X-3451835Y-223926D01*
G03X-3444672Y-241249I7184J-7172D01*
G01X-3429000D01*
G02X-3416249Y-254000I0J-12751D01*
G01Y-381000D01*
G02X-3429000Y-393751I-12751J0D01*
G01X-3467049D01*
Y-495249D01*
X-3429000D01*
G02X-3416249Y-508000I0J-12751D01*
G01Y-635000D01*
G02X-3429000Y-647751I-12751J0D01*
G01X-3556000D01*
G02X-3568751Y-635000I0J12751D01*
G01Y-508000D01*
G02X-3556000Y-495249I12751J0D01*
G01X-3517951D01*
Y-393751D01*
X-3556000D01*
G02X-3568751Y-381000I0J12751D01*
G01Y-342951D01*
X-4229100D01*
G02X-4247083Y-335483I23J25441D01*
G01X-4303141Y-279451D01*
X-4348836D01*
G03X-4354601Y-297967I-2J-10155D01*
G02X-4324274Y-355600I-39597J-57633D01*
G02X-4394200Y-425526I-69926J0D01*
G02X-4460138Y-378892I0J69934D01*
G01X-4460519Y-377800D01*
X-4464914Y-373405D01*
X-4471010Y-379476D01*
X-4470375Y-382219D01*
G02X-4469105Y-393598I-50831J-11434D01*
G01Y-393700D01*
G02X-4521149Y-445795I-52095J0D01*
G01Y-468605D01*
G02X-4469105Y-520700I-51J-52095D01*
G02X-4511853Y-571957I-52104J0D01*
G03X-4515104Y-590753I1823J-9995D01*
G02X-4445584Y-711200I-69580J-120447D01*
G02X-4498086Y-820064I-139118J0D01*
G03X-4491761Y-838149I6343J-7930D01*
G01X-2537841D01*
X-2501951Y-802259D01*
Y-635000D01*
G02X-2494483Y-617017I25441J-23D01*
G01X-2469083Y-591617D01*
G02X-2451100Y-584149I18006J-17974D01*
G01X-2270150D01*
G02X-2235200Y-566369I34950J-25461D01*
G02Y-652831I0J-43231D01*
G02X-2270150Y-635051I0J43241D01*
G01X-2440559D01*
X-2451049Y-645541D01*
Y-812800D01*
G02X-2458517Y-830783I-25441J23D01*
G01X-2499335Y-871626D01*
G03X-2492172Y-888949I7184J-7172D01*
G01X-2100021D01*
X-2032051Y-820979D01*
Y-289941D01*
X-2126818Y-195174D01*
X-2129206Y-195402D01*
G02X-2133600Y-195631I-4440J43000D01*
G02X-2090369Y-152400I0J43231D01*
G02X-2090598Y-156794I-43228J46D01*
G01X-2090826Y-159182D01*
X-1988617Y-261417D01*
G02X-1981149Y-279400I-17974J-18006D01*
G01Y-831520D01*
G02X-1988617Y-849503I-25441J23D01*
G01X-2071497Y-932383D01*
G02X-2089480Y-939851I-18006J17974D01*
G01X-3601542D01*
X-3612032Y-950341D01*
Y-3082976D01*
X-3608959Y-3086049D01*
X-3435401D01*
Y-3079750D01*
G02X-3422650Y-3066999I12751J0D01*
G01X-3295650D01*
G02X-3282899Y-3079750I0J-12751D01*
G01Y-3143250D01*
G02X-3295650Y-3156001I-12751J0D01*
G01X-3422650D01*
G02X-3435401Y-3143250I0J12751D01*
G01Y-3136951D01*
X-3619500D01*
G02X-3637483Y-3129483I23J25441D01*
G01X-3655466Y-3111500D01*
G02X-3662934Y-3093517I17974J18006D01*
G01Y-939800D01*
G02X-3655466Y-921817I25441J-23D01*
G01X-3640049Y-906374D01*
G03X-3647211Y-889051I-7184J7172D01*
G01X-4699000D01*
G02X-4716983Y-881583I23J25441D01*
G01X-4767783Y-830783D01*
G02X-4775251Y-812800I17974J18006D01*
G01Y-804139D01*
G03X-4793336Y-797814I-10155J-18D01*
G02X-4902200Y-850316I-108864J86616D01*
G01X-4902251D01*
G02X-4917008Y-849528I23J139117D01*
G03X-4925263Y-866800I-1069J-10098D01*
G01X-4801514Y-990549D01*
X-4073550D01*
G02X-4038600Y-972769I34950J-25461D01*
G02Y-1059231I0J-43231D01*
G02X-4073550Y-1041451I0J43241D01*
G01X-4812055D01*
G02X-4830039Y-1033983I23J25441D01*
G01X-5097983Y-766039D01*
G02X-5105451Y-748055I17974J18006D01*
G01Y-609600D01*
G02X-5097983Y-591617I25441J-23D01*
G01X-5047818Y-541452D01*
G02X-5029835Y-534010I17983J-18006D01*
G01X-4946625D01*
G03X-4940986Y-515391I6J10161D01*
G02X-4972126Y-457200I38800J58191D01*
G02X-4941799Y-399567I69924J0D01*
G03X-4947564Y-381051I-5763J8361D01*
G01X-5029200D01*
G02X-5047183Y-373583I23J25441D01*
G01X-5097983Y-322783D01*
G02X-5105451Y-304800I17974J18006D01*
G01Y-50800D01*
G02X-5097983Y-32817I25441J-23D01*
G01X-4991303Y73863D01*
G02X-4973320Y81331I18006J-17974D01*
G01X-4297705D01*
G02X-4279722Y73863I-23J-25441D01*
G01X-4180484Y-25349D01*
X-4124528D01*
G03X-4117365Y-8026I-21J10151D01*
G01X-4237101Y111709D01*
X-6319241D01*
G03X-6328664Y97765I-4J-10154D01*
G02X-6322009Y63525I-84838J-34256D01*
G01Y63500D01*
G02X-6413500Y154991I-91491J0D01*
G02X-6372555Y145313I0J-91457D01*
G01X-6369279Y143688D01*
X-6357823Y155143D01*
G02X-6339840Y162611I18006J-17974D01*
G01X-4226560D01*
G02X-4208577Y155143I-23J-25441D01*
G01X-4078859Y25451D01*
X-4048328D01*
G03X-4041165Y42774I-21J10151D01*
G01X-4201541Y203149D01*
X-6172200D01*
G02X-6190183Y210617I23J25441D01*
G01X-6215583Y236017D01*
G02X-6223051Y254000I17974J18006D01*
G01Y268859D01*
X-6258941Y304749D01*
X-6322797D01*
X-6323584Y300609D01*
G02X-6413500Y226009I-89916J16888D01*
G02Y408991I0J91491D01*
G02X-6330340Y355651I0J-91495D01*
G01X-6248400D01*
G02X-6230417Y348183I-23J-25441D01*
G01X-6179617Y297383D01*
G02X-6172149Y279400I-17974J-18006D01*
G01Y264541D01*
X-6161659Y254051D01*
X-4191000D01*
G02X-4173017Y246583I-23J-25441D01*
G01X-4008704Y82296D01*
X-2352091D01*
G03X-2344344Y99009I-7J10155D01*
G02X-2354631Y127000I32938J27991D01*
G02X-2311400Y170231I43231J0D01*
G02X-2276450Y152451I0J-43241D01*
G01X-2266061D01*
X-2263343Y155143D01*
G02X-2245360Y162611I18006J-17974D01*
G01X-2098472D01*
X-2097227Y165862D01*
G02X-2094154Y170485I11889J-4571D01*
G03Y185115I-7051J7315D01*
G02X-2097227Y189738I8815J9194D01*
G01X-2098472Y192989D01*
X-2387219D01*
X-2408326Y171882D01*
X-2408098Y169494D01*
G02X-2407869Y165100I-43000J-4440D01*
G02X-2451100Y208331I-43231J0D01*
G02X-2446706Y208102I-46J-43228D01*
G01X-2444318Y207874D01*
X-2415743Y236423D01*
G02X-2397760Y243891I18006J-17974D01*
G01X-2098472D01*
X-2097227Y247142D01*
G02X-2094154Y251765I11889J-4571D01*
G03Y266395I-7051J7315D01*
G02X-2097227Y271018I8815J9194D01*
G01X-2098472Y274269D01*
X-2580589D01*
Y241300D01*
G02X-2593340Y228549I-12751J0D01*
G01X-2720340D01*
G02X-2733091Y241300I0J12751D01*
G01Y368300D01*
G02X-2720340Y381051I12751J0D01*
G01X-2593340D01*
G02X-2580589Y368300I0J-12751D01*
G01Y325171D01*
X-2098472D01*
X-2097227Y328422D01*
G02X-2094154Y333045I11889J-4571D01*
G03Y347675I-7051J7315D01*
G02X-2097227Y352298I8815J9194D01*
G01X-2098472Y355549D01*
X-2276450D01*
G02X-2311400Y337769I-34950J25461D01*
G02Y424231I0J43231D01*
G02X-2276450Y406451I0J-43241D01*
G01X-2098472D01*
X-2097227Y409702D01*
G02X-2094154Y414325I11889J-4571D01*
G03Y428955I-7051J7315D01*
G02X-2097227Y433578I8815J9194D01*
G01X-2098472Y436829D01*
X-5466080D01*
G02X-5484063Y444297I23J25441D01*
G01X-5496941Y457149D01*
X-5788812D01*
G02X-5867400Y399999I-78588J25458D01*
G02Y565201I0J82601D01*
G02X-5788812Y508051I0J-82608D01*
G01X-5486400D01*
G02X-5468417Y500583I-23J-25441D01*
G01X-5455539Y487731D01*
X-2098472D01*
X-2097227Y490982D01*
G02X-2094154Y495605I11889J-4571D01*
G03Y510235I-7051J7315D01*
G02X-2097227Y514858I8815J9194D01*
G01X-2098472Y518109D01*
X-5394960D01*
G02X-5412943Y525577I23J25441D01*
G01X-5453583Y566217D01*
G02X-5461051Y584200I17974J18006D01*
G01Y700659D01*
X-5471541Y711149D01*
X-5788812D01*
G02X-5867400Y653999I-78588J25458D01*
G02Y819201I0J82601D01*
G02X-5788812Y762051I0J-82608D01*
G01X-5461000D01*
G02X-5443017Y754583I-23J-25441D01*
G01X-5417617Y729183D01*
G02X-5410149Y711200I-17974J-18006D01*
G01Y594741D01*
X-5384419Y569011D01*
X-2098472D01*
X-2097227Y572262D01*
G02X-2094154Y576885I11889J-4571D01*
G03Y591515I-7051J7315D01*
G02X-2097227Y596138I8815J9194D01*
G01X-2098472Y599389D01*
X-2314550D01*
G02X-2349500Y581609I-34950J25461D01*
G02Y668071I0J43231D01*
G02X-2314550Y650291I0J-43241D01*
G01X-2098472D01*
X-2097227Y653542D01*
G02X-2094154Y658165I11889J-4571D01*
G03Y672795I-7051J7315D01*
G02X-2097227Y677418I8815J9194D01*
G01X-2098472Y680669D01*
X-2433930D01*
G02X-2468880Y662889I-34950J25461D01*
G02Y749351I0J43231D01*
G02X-2433930Y731571I0J-43241D01*
G01X-2098472D01*
X-2097227Y734822D01*
G02X-2094154Y739445I11889J-4571D01*
G03Y754075I-7051J7315D01*
G02X-2097227Y758698I8815J9194D01*
G01X-2098472Y761949D01*
X-2555850D01*
G02X-2590800Y744169I-34950J25461D01*
G02Y830631I0J43231D01*
G02X-2555850Y812851I0J-43241D01*
G01X-2098472D01*
X-2097227Y816102D01*
G02X-2085340Y824281I11887J-4549D01*
G01X-1958340D01*
G02X-1945589Y811530I0J-12751D01*
G01Y763270D01*
G02X-1949526Y754075I-12744J16D01*
G03Y739445I7051J-7315D01*
G02X-1945589Y730250I-8807J-9211D01*
G01Y681990D01*
G02X-1949526Y672795I-12744J16D01*
G03Y658165I7051J-7315D01*
G02X-1945589Y648970I-8807J-9211D01*
G01Y600710D01*
G02X-1949526Y591515I-12744J16D01*
G03Y576885I7051J-7315D01*
G02X-1945589Y567690I-8807J-9211D01*
G01Y519430D01*
G02X-1949526Y510235I-12744J16D01*
G03Y495605I7051J-7315D01*
G02X-1945589Y486410I-8807J-9211D01*
G01Y438150D01*
G02X-1949526Y428955I-12744J16D01*
G03Y414325I7051J-7315D01*
G02X-1945589Y405130I-8807J-9211D01*
G01Y356870D01*
G02X-1949526Y347675I-12744J16D01*
G03Y333045I7051J-7315D01*
G02X-1945589Y323850I-8807J-9211D01*
G01Y275590D01*
G02X-1949526Y266395I-12744J16D01*
G03Y251765I7051J-7315D01*
G02X-1945589Y242570I-8807J-9211D01*
G01Y194310D01*
G02X-1949526Y185115I-12744J16D01*
G03Y170485I7051J-7315D01*
G02X-1945589Y161290I-8807J-9211D01*
G01Y113030D01*
G02X-1949526Y103835I-12744J16D01*
G03Y89205I7051J-7315D01*
G02X-1945589Y80010I-8807J-9211D01*
G01Y31750D01*
G02X-1949526Y22555I-12744J16D01*
G03Y7925I7051J-7315D01*
G02X-1945589Y-1270I-8807J-9211D01*
G01Y-49530D01*
G02X-1958340Y-62281I-12751J0D01*
G01X-2085340D01*
G02X-2097227Y-54102I0J12728D01*
G01X-2098472Y-50851D01*
X-2514600D01*
G02X-2532583Y-43383I23J25441D01*
G01X-2550541Y-25451D01*
X-3724072D01*
G03X-3731235Y-42774I21J-10151D01*
G01X-3672459Y-101549D01*
X-2286000D01*
G02X-2268017Y-109017I-23J-25441D01*
G01X-2090217Y-286817D01*
G02X-2082749Y-304800I-17974J-18006D01*
G01Y-676250D01*
G02X-2064969Y-711200I-25461J-34950D01*
G02X-2151431I-43231J0D01*
G02X-2133651Y-676250I43241J0D01*
G01Y-315341D01*
X-2296541Y-152451D01*
X-3683000D01*
G02X-3700983Y-144983I23J25441D01*
G01X-3769741Y-76251D01*
X-4191025D01*
G02X-4209009Y-68783I23J25441D01*
G01X-4308246Y30429D01*
X-4962779D01*
X-5054549Y-61341D01*
Y-294259D01*
X-5018659Y-330149D01*
X-4995139D01*
G03X-4988814Y-312064I-18J10155D01*
G02X-5041316Y-203200I86616J108864D01*
G02X-4902200Y-64084I139116J0D01*
G02X-4793336Y-116586I0J-139118D01*
G03X-4775251Y-110261I7930J6343D01*
G01Y-60350D01*
G37*
G36*
G01X35509Y4343400D02*
G02X218491I91491J0D01*
G02X155905Y4256608I-91473J0D01*
G01X152451Y4255440D01*
Y3759251D01*
X311099D01*
Y3765550D01*
G02X323850Y3778301I12751J0D01*
G01X450850D01*
G02X463601Y3765550I0J-12751D01*
G01Y3702050D01*
G02X450850Y3689299I-12751J0D01*
G01X323850D01*
G02X311099Y3702050I0J12751D01*
G01Y3708349D01*
X137541D01*
X68783Y3639617D01*
G02X50800Y3632149I-18006J17974D01*
G01X10211D01*
Y3594100D01*
G02X-2540Y3581349I-12751J0D01*
G01X-129540D01*
G02X-136576Y3583483I0J12667D01*
G03X-152349Y3575025I-5618J-8460D01*
G01Y3525901D01*
X-106299Y3479851D01*
X-10541D01*
X7417Y3497783D01*
G02X25400Y3505251I18006J-17974D01*
G01X311099D01*
Y3511550D01*
G02X323850Y3524301I12751J0D01*
G01X450850D01*
G02X463601Y3511550I0J-12751D01*
G01Y3448050D01*
G02X450850Y3435299I-12751J0D01*
G01X323850D01*
G02X311099Y3448050I0J12751D01*
G01Y3454349D01*
X35941D01*
X10211Y3428619D01*
Y3340100D01*
G02X-2540Y3327349I-12751J0D01*
G01X-129540D01*
G02X-142291Y3340100I0J12751D01*
G01Y3443859D01*
X-195783Y3497377D01*
G02X-203251Y3515360I17974J18006D01*
G01Y3581349D01*
X-342900D01*
G02X-355651Y3594100I0J12751D01*
G01Y3721100D01*
G02X-342900Y3733851I12751J0D01*
G01X-203251D01*
Y4267200D01*
G02X-196748Y4284193I25454J0D01*
G02X-218491Y4343400I69744J59207D01*
G02X-127000Y4251909I91491J0D01*
G02X-140691Y4252951I74J91485D01*
G03X-152349Y4242892I-1500J-10047D01*
G01Y3740175D01*
G03X-136576Y3731717I10155J2D01*
G02X-129540Y3733851I7036J-10534D01*
G01X-2540D01*
G02X10211Y3721100I0J-12751D01*
G01Y3683051D01*
X40259D01*
X101549Y3744341D01*
Y4255440D01*
X98095Y4256608D01*
G02X35509Y4343400I28887J86792D01*
G37*
G36*
G01X1889709D02*
G02X1981200Y4251909I91491J0D01*
G02X1940255Y4261587I0J91457D01*
G01X1936979Y4263212D01*
X1854251Y4180459D01*
Y3505251D01*
X1993900D01*
G02X2006651Y3492500I0J-12751D01*
G01Y3365500D01*
G02X1993900Y3352749I-12751J0D01*
G01X1854251D01*
Y3286760D01*
G02X1846783Y3268777I-25441J23D01*
G01X1793291Y3215259D01*
Y3111500D01*
G02X1780540Y3098749I-12751J0D01*
G01X1653540D01*
G02X1640789Y3111500I0J12751D01*
G01Y3149549D01*
X1407541D01*
X1236574Y2978582D01*
X1236802Y2976194D01*
G02X1237031Y2971800I-43000J-4440D01*
G02X1193800Y3015031I-43231J0D01*
G02X1198194Y3014802I-46J-43228D01*
G01X1200582Y3014574D01*
X1379017Y3192983D01*
G02X1397000Y3200451I18006J-17974D01*
G01X1640789D01*
Y3238500D01*
G02X1653540Y3251251I12751J0D01*
G01X1757299D01*
X1803349Y3297301D01*
Y3346425D01*
G03X1787576Y3354883I-10155J-2D01*
G02X1780540Y3352749I-7036J10534D01*
G01X1653540D01*
G02X1640789Y3365500I0J12751D01*
G01Y3403549D01*
X1509141D01*
X1186383Y3080817D01*
G02X1168400Y3073349I-18006J17974D01*
G01X958901D01*
Y3067050D01*
G02X946150Y3054299I-12751J0D01*
G01X819150D01*
G02X806399Y3067050I0J12751D01*
G01Y3130550D01*
G02X819150Y3143301I12751J0D01*
G01X946150D01*
G02X958901Y3130550I0J-12751D01*
G01Y3124251D01*
X1157859D01*
X1480617Y3446983D01*
G02X1498600Y3454451I18006J-17974D01*
G01X1640789D01*
Y3492500D01*
G02X1653540Y3505251I12751J0D01*
G01X1676349D01*
Y4241800D01*
G02X1679524Y4254068I25290J0D01*
G03X1676273Y4267403I-8910J4891D01*
G02X1635709Y4343400I50909J75997D01*
G02X1818691I91491J0D01*
G02X1752295Y4255414I-91496J0D01*
G01X1751025Y4255059D01*
X1727251Y4231259D01*
Y3505251D01*
X1780540D01*
G02X1787576Y3503117I0J-12667D01*
G03X1803349Y3511575I5618J8460D01*
G01Y4191000D01*
G02X1810817Y4208983I25441J-23D01*
G01X1901012Y4299179D01*
X1899387Y4302455D01*
G02X1889709Y4343400I81779J40945D01*
G37*
G36*
G01X-4354728Y4949952D02*
Y5019548D01*
G02X-4342003Y5032248I12725J-25D01*
G01X-4222013D01*
Y5032223D01*
X-4221988D01*
G02X-4161739Y4971999I25J-60223D01*
G01Y4918202D01*
X-3853688Y4610151D01*
X-3695751D01*
Y4635500D01*
G02X-3683000Y4648251I12751J0D01*
G01X-3556000D01*
G02X-3543249Y4635500I0J-12751D01*
G01Y4508500D01*
G02X-3556000Y4495749I-12751J0D01*
G01X-3683000D01*
G02X-3695751Y4508500I0J12751D01*
G01Y4533849D01*
X-3869487D01*
G02X-3896462Y4545025I0J38142D01*
G01X-4182618Y4831207D01*
X-4186149Y4828591D01*
G02X-4221988Y4816754I-35861J48405D01*
G01X-4342003D01*
G02X-4354728Y4829505I25J12751D01*
G01Y4899050D01*
X-4384243D01*
Y4829505D01*
G02X-4396994Y4816754I-12751J0D01*
G01X-4547006D01*
G02X-4559757Y4829505I0J12751D01*
G01Y4899050D01*
X-4584243D01*
Y4829505D01*
G02X-4596994Y4816754I-12751J0D01*
G01X-4747006D01*
G02X-4759757Y4829505I0J12751D01*
G01Y4899050D01*
X-4789272D01*
Y4829454D01*
G02X-4801997Y4816754I-12725J25D01*
G01X-4922012D01*
G02X-4982261Y4877003I0J60249D01*
G01Y4971999D01*
G02X-4922012Y5032248I60249J0D01*
G01X-4801997D01*
G02X-4789272Y5019497I-25J-12751D01*
G01Y4949952D01*
X-4759757D01*
Y5019497D01*
G02X-4747006Y5032248I12751J0D01*
G01X-4596994D01*
G02X-4584243Y5019497I0J-12751D01*
G01Y4949952D01*
X-4559757D01*
Y5019497D01*
G02X-4547006Y5032248I12751J0D01*
G01X-4396994D01*
G02X-4384243Y5019497I0J-12751D01*
G01Y4949952D01*
X-4354728D01*
G37*
G36*
G01X4411929Y4023360D02*
Y4206240D01*
G02X4424680Y4218991I12751J0D01*
G01X4566920D01*
G02X4579671Y4206240I0J-12751D01*
G01Y4023360D01*
G02X4566920Y4010609I-12751J0D01*
G01X4424680D01*
G02X4411929Y4023360I0J12751D01*
G37*
G36*
G01X3914089Y3602990D02*
Y3864610D01*
G02X3926840Y3877361I12751J0D01*
G01X4201160D01*
G02X4213911Y3864610I0J-12751D01*
G01Y3602990D01*
G02X4201160Y3590239I-12751J0D01*
G01X3926840D01*
G02X3914089Y3602990I0J12751D01*
G37*
G36*
G01X4818329Y1356360D02*
Y1539240D01*
G02X4831080Y1551991I12751J0D01*
G01X4973320D01*
G02X4986071Y1539240I0J-12751D01*
G01Y1356360D01*
G02X4973320Y1343609I-12751J0D01*
G01X4831080D01*
G02X4818329Y1356360I0J12751D01*
G37*
G36*
G01X4495749Y698500D02*
Y825500D01*
G02X4508500Y838251I12751J0D01*
G01X4635500D01*
G02X4648251Y825500I0J-12751D01*
G01Y698500D01*
G02X4635500Y685749I-12751J0D01*
G01X4508500D01*
G02X4495749Y698500I0J12751D01*
G37*
G36*
G01Y444500D02*
Y571500D01*
G02X4508500Y584251I12751J0D01*
G01X4635500D01*
G02X4648251Y571500I0J-12751D01*
G01Y444500D01*
G02X4635500Y431749I-12751J0D01*
G01X4508500D01*
G02X4495749Y444500I0J12751D01*
G37*
G36*
G01X4411929Y-1412240D02*
Y-1229360D01*
G02X4424680Y-1216609I12751J0D01*
G01X4566920D01*
G02X4579671Y-1229360I0J-12751D01*
G01Y-1412240D01*
G02X4566920Y-1424991I-12751J0D01*
G01X4424680D01*
G02X4411929Y-1412240I0J12751D01*
G37*
G36*
G01X3914089Y-1832610D02*
Y-1570990D01*
G02X3926840Y-1558239I12751J0D01*
G01X4201160D01*
G02X4213911Y-1570990I0J-12751D01*
G01Y-1832610D01*
G02X4201160Y-1845361I-12751J0D01*
G01X3926840D01*
G02X3914089Y-1832610I0J12751D01*
G37*
G36*
G01X4818329Y-4079240D02*
Y-3896360D01*
G02X4831080Y-3883609I12751J0D01*
G01X4973320D01*
G02X4986071Y-3896360I0J-12751D01*
G01Y-4079240D01*
G02X4973320Y-4091991I-12751J0D01*
G01X4831080D01*
G02X4818329Y-4079240I0J12751D01*
G37*
G36*
G01X5651449Y-3543300D02*
Y-2959100D01*
G02X5664200Y-2946349I12751J0D01*
G01X6223000D01*
G02X6235751Y-2959100I0J-12751D01*
G01Y-3543300D01*
G02X6223000Y-3556051I-12751J0D01*
G01X5664200D01*
G02X5651449Y-3543300I0J12751D01*
G37*
G36*
G01X4381449D02*
Y-2959100D01*
G02X4394200Y-2946349I12751J0D01*
G01X4953000D01*
G02X4965751Y-2959100I0J-12751D01*
G01Y-3543300D01*
G02X4953000Y-3556051I-12751J0D01*
G01X4394200D01*
G02X4381449Y-3543300I0J12751D01*
G37*
G36*
G01X5702249Y-2349500D02*
Y-1765300D01*
G02X5715000Y-1752549I12751J0D01*
G01X6273800D01*
G02X6286551Y-1765300I0J-12751D01*
G01Y-2349500D01*
G02X6273800Y-2362251I-12751J0D01*
G01X5715000D01*
G02X5702249Y-2349500I0J12751D01*
G37*
G36*
G01X4432249D02*
Y-1765300D01*
G02X4445000Y-1752549I12751J0D01*
G01X5003800D01*
G02X5016551Y-1765300I0J-12751D01*
G01Y-2349500D01*
G02X5003800Y-2362251I-12751J0D01*
G01X4445000D01*
G02X4432249Y-2349500I0J12751D01*
G37*
G36*
G01X4381449Y1892300D02*
Y2476500D01*
G02X4394200Y2489251I12751J0D01*
G01X4953000D01*
G02X4965751Y2476500I0J-12751D01*
G01Y1892300D01*
G02X4953000Y1879549I-12751J0D01*
G01X4394200D01*
G02X4381449Y1892300I0J12751D01*
G37*
G36*
G01X5651449D02*
Y2476500D01*
G02X5664200Y2489251I12751J0D01*
G01X6223000D01*
G02X6235751Y2476500I0J-12751D01*
G01Y1892300D01*
G02X6223000Y1879549I-12751J0D01*
G01X5664200D01*
G02X5651449Y1892300I0J12751D01*
G37*
G36*
G01X4432249Y3670300D02*
G02X4445000Y3683051I12751J0D01*
G01X5003800D01*
G02X5016551Y3670300I0J-12751D01*
G01Y3086100D01*
G02X5003800Y3073349I-12751J0D01*
G01X4445000D01*
G02X4432249Y3086100I0J12751D01*
G01Y3670300D01*
G37*
G36*
G01X5702249D02*
G02X5715000Y3683051I12751J0D01*
G01X6273800D01*
G02X6286551Y3670300I0J-12751D01*
G01Y3086100D01*
G02X6273800Y3073349I-12751J0D01*
G01X5715000D01*
G02X5702249Y3086100I0J12751D01*
G01Y3670300D01*
G37*
G36*
G01X5194249Y381000D02*
Y635000D01*
G02X5207000Y647751I12751J0D01*
G01X5461000D01*
G02X5473751Y635000I0J-12751D01*
G01Y381000D01*
G02X5461000Y368249I-12751J0D01*
G01X5207000D01*
G02X5194249Y381000I0J12751D01*
G37*
G36*
G01X5880049Y-889000D02*
Y-736600D01*
G02X5892800Y-723849I12751J0D01*
G01X6045200D01*
G02X6057951Y-736600I0J-12751D01*
G01Y-889000D01*
G02X6045200Y-901751I-12751J0D01*
G01X5892800D01*
G02X5880049Y-889000I0J12751D01*
G37*
G36*
G01X6261049D02*
Y-736600D01*
G02X6273800Y-723849I12751J0D01*
G01X6426200D01*
G02X6438951Y-736600I0J-12751D01*
G01Y-889000D01*
G02X6426200Y-901751I-12751J0D01*
G01X6273800D01*
G02X6261049Y-889000I0J12751D01*
G37*
G36*
G01X6642049D02*
Y-736600D01*
G02X6654800Y-723849I12751J0D01*
G01X6807200D01*
G02X6819951Y-736600I0J-12751D01*
G01Y-889000D01*
G02X6807200Y-901751I-12751J0D01*
G01X6654800D01*
G02X6642049Y-889000I0J12751D01*
G37*
G36*
G01X7023049D02*
Y-736600D01*
G02X7035800Y-723849I12751J0D01*
G01X7188200D01*
G02X7200951Y-736600I0J-12751D01*
G01Y-889000D01*
G02X7188200Y-901751I-12751J0D01*
G01X7035800D01*
G02X7023049Y-889000I0J12751D01*
G37*
G36*
G01X5681929Y-1229360D02*
G02X5694680Y-1216609I12751J0D01*
G01X5836920D01*
G02X5849671Y-1229360I0J-12751D01*
G01Y-1412240D01*
G02X5836920Y-1424991I-12751J0D01*
G01X5694680D01*
G02X5681929Y-1412240I0J12751D01*
G01Y-1229360D01*
G37*
G36*
G01X6088329Y1356360D02*
Y1539240D01*
G02X6101080Y1551991I12751J0D01*
G01X6243320D01*
G02X6256071Y1539240I0J-12751D01*
G01Y1356360D01*
G02X6243320Y1343609I-12751J0D01*
G01X6101080D01*
G02X6088329Y1356360I0J12751D01*
G37*
G36*
G01X7023049Y863600D02*
Y1016000D01*
G02X7035800Y1028751I12751J0D01*
G01X7188200D01*
G02X7200951Y1016000I0J-12751D01*
G01Y863600D01*
G02X7188200Y850849I-12751J0D01*
G01X7035800D01*
G02X7023049Y863600I0J12751D01*
G37*
G36*
G01X6642049D02*
Y1016000D01*
G02X6654800Y1028751I12751J0D01*
G01X6807200D01*
G02X6819951Y1016000I0J-12751D01*
G01Y863600D01*
G02X6807200Y850849I-12751J0D01*
G01X6654800D01*
G02X6642049Y863600I0J12751D01*
G37*
G36*
G01X6261049D02*
Y1016000D01*
G02X6273800Y1028751I12751J0D01*
G01X6426200D01*
G02X6438951Y1016000I0J-12751D01*
G01Y863600D01*
G02X6426200Y850849I-12751J0D01*
G01X6273800D01*
G02X6261049Y863600I0J12751D01*
G37*
G36*
G01X5880049D02*
Y1016000D01*
G02X5892800Y1028751I12751J0D01*
G01X6045200D01*
G02X6057951Y1016000I0J-12751D01*
G01Y863600D01*
G02X6045200Y850849I-12751J0D01*
G01X5892800D01*
G02X5880049Y863600I0J12751D01*
G37*
G54D49*
X-6413500Y1587500D03*
X381000Y4343400D03*
X2235200D03*
G54D48*
X-4394200Y-558800D03*
G54D47*
X-4826000Y-4445000D03*
G54D51*
X5334000Y-680720D03*
G54D50*
X-6667500Y4457700D03*
Y-4445000D03*
%LPD*%
G75*
G54D10*
X-6667500Y-4445000D03*
Y4457700D03*
X7810500Y-4445000D03*
Y4457700D03*
G54D11*
X-6413500Y-190500D03*
X-381000Y4343400D03*
X1473200D03*
G54D20*
X-4902200Y-457200D03*
X-4394200Y-558800D03*
Y-355600D03*
G54D21*
X-4871009Y3387496D03*
Y3452495D03*
Y3517494D03*
Y3582492D03*
Y3647491D03*
Y3712489D03*
Y3777488D03*
Y3842512D03*
Y3907511D03*
Y3972509D03*
Y4037508D03*
Y4102506D03*
Y4167505D03*
Y4232504D03*
X-4145991Y3387496D03*
Y3712489D03*
Y3647491D03*
Y3582492D03*
Y3517494D03*
Y3452495D03*
Y3907511D03*
Y3842512D03*
Y3777488D03*
Y4037508D03*
Y3972509D03*
Y4232504D03*
Y4167505D03*
Y4102506D03*
G54D30*
X-1640840Y-243840D03*
X-1722120D03*
X-1803400D03*
Y1005840D03*
X-1722120D03*
X-1640840D03*
X-1397000Y-243840D03*
X-1478280D03*
X-1559560D03*
Y1005840D03*
X-1478280D03*
X-1397000D03*
X-1071880Y-243840D03*
X-1153160D03*
X-1234440D03*
X-1315720D03*
Y1005840D03*
X-1234440D03*
X-1153160D03*
X-1071880D03*
X-990600Y-243840D03*
Y1005840D03*
G54D12*
X-6413500Y63500D03*
Y317500D03*
Y571500D03*
Y825500D03*
Y1079500D03*
Y1333500D03*
Y1587500D03*
X-127000Y4343400D03*
X127000D03*
X381000D03*
X1727200D03*
X1981200D03*
X2235200D03*
G54D31*
X-1270000Y3200400D03*
Y3670300D03*
X4064000Y-3606800D03*
Y-3136900D03*
Y-2171700D03*
Y-1701800D03*
Y1828800D03*
Y2298700D03*
Y3263900D03*
Y3733800D03*
X5334000Y-3568700D03*
Y-3098800D03*
Y-2209800D03*
Y-1739900D03*
Y1866900D03*
Y2336800D03*
Y3225800D03*
Y3695700D03*
G54D22*
X-4822012Y4654499D03*
X-4321988D03*
G54D40*
X5969000Y-812800D03*
Y-482600D03*
Y609600D03*
Y939800D03*
X6350000Y-812800D03*
Y-482600D03*
Y609600D03*
Y939800D03*
X6731000Y-812800D03*
Y-482600D03*
Y609600D03*
Y939800D03*
X7112000Y-812800D03*
Y-482600D03*
Y609600D03*
Y939800D03*
G54D13*
X-5867400Y482600D03*
Y736600D03*
X-5181600Y4419600D03*
X-3937000Y2946400D03*
X-444500Y-4191000D03*
X-190500D03*
X63500D03*
X317500D03*
G54D41*
G01X-2021840Y-25400D02*
X-2514600D01*
X-2540000Y0D01*
X-4089400D01*
X-4226560Y137160D01*
X-6339840D01*
X-6413500Y63500D01*
G01Y571500D02*
X-6431483Y553517D01*
Y517601D01*
X-6429299Y515417D01*
X-6393383D01*
X-6324600Y584200D01*
G01X-6413500Y317500D02*
X-6400800Y330200D01*
X-6248400D01*
X-6197600Y279400D01*
Y254000D01*
X-6172200Y228600D01*
X-4191000D01*
X-4019245Y56845D01*
X-2111705D01*
X-2110740Y55880D01*
X-2021840D01*
G01X-6413500Y825500D02*
X-6400800Y838200D01*
X-6273800D01*
X-6248400Y863600D01*
Y1244600D01*
X-6151880Y1341120D01*
X-2404720D01*
X-2391816Y1354023D01*
X-1658823D01*
X-1640840Y1336040D01*
Y1005840D01*
G01X-6400800Y584200D02*
X-6324600D01*
G01X-6413500Y1079500D02*
X-6382995D01*
X-6324600Y1137895D01*
Y1270000D01*
X-6212840Y1381760D01*
X-2421560D01*
X-2403577Y1399743D01*
X-1577543D01*
X-1559560Y1381760D01*
Y1005840D01*
G01X-6413500Y1333500D02*
X-6350000Y1397000D01*
X-6324600D01*
X-6299200Y1422400D01*
X-2438400D01*
X-2387600Y1473200D01*
Y1981200D01*
X-2362200Y2006600D01*
X-1143000D01*
X-1117600Y1981200D01*
Y1524000D01*
G01X-6324600Y584200D02*
X-6197600D01*
X-6172200Y609600D01*
Y1219200D01*
X-6101080Y1290320D01*
X-1747520D01*
X-1722120Y1264920D01*
Y1005840D01*
G01X-5867400Y482600D02*
X-5486400D01*
X-5466080Y462280D01*
X-2021840D01*
G01X-5867400Y736600D02*
X-5461000D01*
X-5435600Y711200D01*
Y584200D01*
X-5394960Y543560D01*
X-2021840D01*
G01X-5648960Y3429000D02*
X-5765800D01*
G01X-5648960Y3657600D02*
X-5765800D01*
G01X-5435600D02*
X-5486400Y3708400D01*
Y3759200D01*
X-5511800Y3784600D01*
X-5816600D01*
X-5867400Y3835400D01*
Y4064000D01*
X-5765800Y4165600D01*
X-5648960D01*
G01X-5623560Y2463800D02*
Y2316480D01*
X-5613400Y2306320D01*
Y2184400D01*
G01X-4871009Y3972509D02*
X-4971415D01*
X-4981524Y3962400D01*
X-5003800D01*
X-5308600Y3657600D01*
X-5435600D01*
G01X-5648960Y3911600D02*
X-5740400D01*
G01X-4871009Y4102506D02*
X-4971415D01*
X-4984521Y4089400D01*
X-5054600D01*
X-5232400Y3911600D01*
X-5435600D01*
G01Y4165600D02*
Y4622800D01*
X-5283200Y4775200D01*
X-4469790D01*
X-4442003Y4747412D01*
Y4654499D01*
G01X-5410200Y2463800D02*
X-5207000Y2667000D01*
Y3541903D01*
X-4971415Y3777488D01*
X-4871009D01*
G01X-4699000Y2463800D02*
X-5130800Y2895600D01*
Y3553104D01*
X-4971415Y3712489D01*
X-4871009D01*
G01X-5181600Y4419600D02*
X-4778985D01*
X-4636999Y4561586D01*
Y4654499D01*
G01X-4826000Y-4445000D02*
Y-4953000D01*
G01D02*
X-4800600Y-4978400D01*
X-1676400D01*
X-1651000Y-4953000D01*
G01X-4889500Y-1346200D02*
Y-3743960D01*
X-4864100Y-3769360D01*
X-4699000D01*
G01X-4775200Y-520700D02*
X-4813935Y-559435D01*
X-5029835D01*
X-5080000Y-609600D01*
Y-748055D01*
X-4812055Y-1016000D01*
X-4038600D01*
G01X-4775200Y-393700D02*
X-4813300Y-355600D01*
X-5029200D01*
X-5080000Y-304800D01*
Y-50800D01*
X-4973320Y55880D01*
X-4297705D01*
X-4191025Y-50800D01*
X-3759200D01*
X-3683000Y-127000D01*
X-2286000D01*
X-2108200Y-304800D01*
Y-711200D01*
G01X-4912360Y2463800D02*
Y2316480D01*
X-4902200Y2306320D01*
Y2184400D01*
G01X-4871009Y3582492D02*
X-4700092D01*
G01X-4871009Y3517494D02*
X-4765091D01*
X-4700092Y3582492D01*
G01X-4871009Y3907511D02*
X-4677689D01*
G01X-5003800Y3860800D02*
Y3875126D01*
X-4971415Y3907511D01*
G01D02*
X-4871009D01*
G01Y4037508D02*
X-4700092D01*
G01X-4871009Y3842512D02*
X-4770603D01*
X-4699000Y3770909D01*
Y3581400D01*
G01X-4871009Y4232504D02*
X-4757395D01*
X-4745203Y4220312D01*
X-4709262D01*
X-4559808Y4369765D01*
Y4536211D01*
X-4572000Y4548403D01*
Y4654499D01*
G01X-4871009Y4167505D02*
X-4757369D01*
X-4745203Y4179672D01*
X-4692421D01*
X-4519168Y4352925D01*
Y4536211D01*
X-4507001Y4548378D01*
Y4654499D01*
G01X-4701997D02*
Y4607001D01*
X-4787798Y4521200D01*
X-4902200D01*
G01X-4861992Y4924501D02*
X-4672000D01*
G01X-4572000Y-4445000D02*
Y-3896360D01*
X-4699000Y-3769360D01*
G01X-4508500Y-1320800D02*
Y-3743960D01*
X-4483100Y-3769360D01*
X-4381500D01*
G01X-4648200Y-520700D02*
X-4749800Y-622300D01*
Y-812800D01*
X-4699000Y-863600D01*
X-2527300D01*
X-2476500Y-812800D01*
Y-635000D01*
X-2451100Y-609600D01*
X-2235200D01*
G01X-4409389Y-457200D02*
X-4472889Y-520700D01*
X-4521200D01*
G01X-4749800Y-25400D02*
Y-252755D01*
X-4648200Y-354355D01*
Y-393700D01*
G01X-4521200D02*
X-4476775Y-349275D01*
Y-321386D01*
X-4409389Y-254000D01*
X-4292600D01*
X-4229100Y-317500D01*
X-3492500D01*
G01X-4677689Y3907511D02*
X-4673600Y3911600D01*
G01X-4672000Y4924501D02*
X-4472000D01*
G01X-4318000Y-4445000D02*
Y-3921760D01*
X-4381500Y-3858260D01*
Y-3769360D01*
G01X-4267200Y-457200D02*
X-4409389D01*
G01X-3937000Y2946400D02*
X-3987800Y2997200D01*
Y3048000D01*
X-4292600Y3352800D01*
Y3471291D01*
X-4246397Y3517494D01*
X-4145991D01*
G01X-4368800Y3581400D02*
X-4367708Y3582492D01*
G01D02*
X-4145991D01*
G01Y3777488D02*
X-4361688D01*
G01X-4472000Y4924501D02*
X-4282008D01*
G01X-4064000Y-3769360D02*
Y-4445000D01*
G01X-3359150Y-3365500D02*
X-3683000D01*
X-3873500Y-3556000D01*
X-4064000D01*
G01X-3810000Y2184400D02*
X-3962400D01*
X-4064000Y2082800D01*
G01X-4145991Y3387496D02*
X-4022496D01*
X-4000500Y3365500D01*
X-3937000D01*
X-3619500Y3048000D01*
G01X-3962400Y3530600D02*
X-4014292Y3582492D01*
G01D02*
X-4145991D01*
G01Y3712489D02*
X-3966489D01*
X-3810000Y3556000D01*
X-3619500D01*
G01Y3302000D02*
X-3964991Y3647491D01*
X-4145991D01*
G01Y4037508D02*
X-4026992D01*
X-3746500Y4318000D01*
X-3619500D01*
G01X-4145991Y3907511D02*
X-3971011D01*
X-3873500Y3810000D01*
X-3619500D01*
G01X-4145991Y3972509D02*
X-3964991D01*
X-3873500Y4064000D01*
X-3619500D01*
G01X-3810000Y-4445000D02*
Y-4826000D01*
X-3746500Y-4889500D01*
X-2159000D01*
X-2032000Y-4762500D01*
Y-4660900D01*
X-2006600Y-4635500D01*
X-1864360D01*
G01X-3556000Y-4445000D02*
Y-4737100D01*
X-3467100Y-4826000D01*
X-2222500D01*
X-2095500Y-4699000D01*
Y-4406900D01*
X-2070100Y-4381500D01*
X-1864360D01*
G01X-3657600Y-3479800D02*
X-3697122Y-3519322D01*
X-3709822D01*
X-3810000Y-3619500D01*
Y-4445000D01*
G01X-3556000D02*
X-3683000Y-4318000D01*
Y-3644900D01*
X-3530600Y-3492500D01*
X-3359150D01*
G01X-3759200Y-1320800D02*
Y-3200400D01*
X-3733800Y-3225800D01*
X-3460750D01*
X-3448050Y-3238500D01*
X-3359150D01*
G01X-2133600Y-152400D02*
X-2006600Y-279400D01*
Y-831520D01*
X-2089480Y-914400D01*
X-3612083D01*
X-3637483Y-939800D01*
Y-3093517D01*
X-3619500Y-3111500D01*
X-3359150D01*
G01X-3606800Y2463800D02*
Y2308860D01*
X-3609340Y2306320D01*
Y2184400D01*
G01X-3302000Y-4445000D02*
Y-4699000D01*
X-3238500Y-4762500D01*
X-2286000D01*
X-2159000Y-4635500D01*
Y-4152900D01*
X-2133600Y-4127500D01*
X-1864360D01*
G01X-2863850Y-3619500D02*
X-3022600D01*
X-3048000Y-3644900D01*
Y-4191000D01*
X-3111500Y-4254500D01*
X-3276600D01*
X-3302000Y-4279900D01*
Y-4445000D01*
G01X-3359150Y-3746500D02*
X-3492500D01*
X-3505200Y-3759200D01*
G01X-3359150Y-3619500D02*
X-3238500D01*
X-3048000Y-3429000D01*
Y-1143000D01*
X-2895600Y-990600D01*
X-1955800D01*
X-1930400Y-965200D01*
Y-101600D01*
X-1676400Y152400D01*
X-1244600D01*
X-1219200Y177800D01*
Y850900D01*
X-1153160Y916940D01*
Y1005840D01*
G01X-3530600Y-2997200D02*
X-3460750D01*
X-3448050Y-2984500D01*
X-3359150D01*
G01X-3279140Y-571500D02*
X-2781300D01*
G01X-3492500D02*
Y-317500D01*
G01D02*
Y-228600D01*
X-3454400Y-190500D01*
X-2476500D01*
X-2235200Y-431800D01*
G01X-2692400Y3048000D02*
X-3406140D01*
G01X-2590800Y3302000D02*
X-3406140D01*
G01X-2667000Y-3937000D02*
X-3048000Y-4318000D01*
Y-4445000D01*
G01X-2794000D02*
Y-4216400D01*
G01X-2108200Y-1219200D02*
Y-1275080D01*
X-2102917Y-1280363D01*
Y-3721100D01*
X-2128317Y-3746500D01*
X-2863850D01*
G01Y-3365500D02*
X-2895600D01*
G01X-2616200Y-3378200D02*
X-2762250D01*
X-2774950Y-3365500D01*
X-2863850D01*
G01X-2336800Y-1168400D02*
Y-3149600D01*
X-2413000Y-3225800D01*
X-2762250D01*
X-2774950Y-3238500D01*
X-2863850D01*
G01X-772160Y299720D02*
X-1046480D01*
X-1092200Y254000D01*
Y127000D01*
X-1117600Y101600D01*
X-1625600D01*
X-1879600Y-152400D01*
Y-1041375D01*
X-1905025Y-1066800D01*
X-2108200D01*
X-2184400Y-1143000D01*
Y-3454400D01*
X-2209800Y-3479800D01*
X-2762250D01*
X-2774950Y-3492500D01*
X-2863850D01*
G01Y-3111500D02*
X-2692400D01*
X-2667000Y-3136900D01*
G01X-2656840Y304800D02*
X-2649220D01*
X-2644140Y299720D01*
X-2021840D01*
G01X-2692400Y1143000D02*
X-1828800D01*
X-1803400Y1117600D01*
Y1005840D01*
G01X-2451100Y165100D02*
X-2397760Y218440D01*
X-2021840D01*
G01X-2311400Y127000D02*
X-2255520D01*
X-2245360Y137160D01*
X-2021840D01*
G01Y381000D02*
X-2311400D01*
G01X-2590800Y787400D02*
X-2021840D01*
G01Y706120D02*
X-2468880D01*
G01X-2349500Y624840D02*
X-2021840D01*
G01X-1651000Y-4953000D02*
Y-4635500D01*
G01D02*
Y-4381500D01*
G01D02*
Y-4127500D01*
G01D02*
Y-3731260D01*
G01D02*
X-1628140Y-3708400D01*
Y-3619500D01*
G01X-444500Y-4191000D02*
Y-3009900D01*
X-482600Y-2971800D01*
X-1727200D01*
X-1828800Y-2870200D01*
Y-609600D01*
X-1803400Y-584200D01*
Y-243840D01*
G01X-190500Y-4191000D02*
Y-2959100D01*
X-228600Y-2921000D01*
X-1701800D01*
X-1778000Y-2844800D01*
Y-660400D01*
X-1722120Y-604520D01*
Y-243840D01*
G01X63500Y-4191000D02*
Y-2908300D01*
X25400Y-2870200D01*
X-1676400D01*
X-1727200Y-2819400D01*
Y-685800D01*
X-1640840Y-599440D01*
Y-243840D01*
G01X317500Y-4191000D02*
Y-2882900D01*
X254000Y-2819400D01*
X-1651000D01*
X-1676400Y-2794000D01*
Y-711200D01*
X-1559560Y-594360D01*
Y-243840D01*
G01X-1310640Y-721360D02*
X-1422400Y-609600D01*
Y-406400D01*
X-1397000Y-381000D01*
G01X-1478280Y-243840D02*
Y-629920D01*
X-1524000Y-675640D01*
Y-825500D01*
G01X-1397000Y-381000D02*
Y-243840D01*
G01X-1333500Y-444500D02*
Y-388620D01*
X-1333703Y-388417D01*
Y-350723D01*
X-1315720Y-332740D01*
Y-243840D01*
G01X-1270000Y-76200D02*
X-1318260D01*
X-1397000Y-154940D01*
G01D02*
Y-243840D01*
G01X-1498600Y863600D02*
X-1478280Y883920D01*
G01D02*
Y1005840D01*
G01X-1488440Y1574800D02*
Y1104900D01*
G01D02*
X-1478280Y1094740D01*
G01D02*
Y1005840D01*
G01X-1488440Y1574800D02*
Y1854200D01*
G01X-1310640Y-825500D02*
Y-721360D01*
G01X-1071880Y-243840D02*
Y-447040D01*
X-1041400Y-477520D01*
Y-533400D01*
G01X-1315720Y1206500D02*
Y1005840D01*
G01X-1117600Y1346200D02*
Y1211580D01*
X-1234440Y1094740D01*
Y1005840D01*
G01X387350Y3098800D02*
X298450D01*
X228600Y3028950D01*
Y1746479D01*
X171348Y1689227D01*
X-647573D01*
X-736600Y1600200D01*
Y1295400D01*
X-762000Y1270000D01*
X-1046480D01*
X-1071880Y1244600D01*
Y1005840D01*
G01X-990600Y-243840D02*
Y-431800D01*
X-889000Y-533400D01*
G01X-736600Y-279400D02*
X-942543Y-73457D01*
Y200457D01*
X-924560Y218440D01*
X-772160D01*
G01X711200Y457200D02*
X-304800D01*
X-624840Y137160D01*
X-772160D01*
G01X-190500Y-190500D02*
X-381000D01*
X-546100Y-25400D01*
X-772160D01*
G01Y55880D02*
X-477520D01*
X-469900Y63500D01*
X-190500D01*
G01X-772160Y381000D02*
X-584200D01*
G01X-711200Y1041400D02*
X-635000Y965200D01*
Y835660D01*
X-683260Y787400D01*
X-772160D01*
G01X882650Y2971800D02*
Y2889250D01*
X812800Y2819400D01*
X482600D01*
X355600Y2692400D01*
Y1600200D01*
X254000Y1498600D01*
X-558800D01*
X-584200Y1473200D01*
Y731520D01*
X-609600Y706120D01*
X-772160D01*
G01X387350Y3352800D02*
X482600D01*
X533400Y3302000D01*
Y2946400D01*
X279400Y2692400D01*
Y1625600D01*
X254000Y1600200D01*
X-635000D01*
X-685800Y1549400D01*
Y1219200D01*
X-711200Y1193800D01*
X-965200D01*
X-990600Y1168400D01*
Y1005840D01*
G01X-584200Y381000D02*
X-187960Y777240D01*
Y812800D01*
G01X2308860Y-127000D02*
Y-269240D01*
X2260600Y-317500D01*
X1968500D01*
X1841500Y-190500D01*
X-190500D01*
G01Y63500D02*
X1143000D01*
X1587500Y508000D01*
X2832100D01*
X2857500Y482600D01*
Y0D01*
X2921000Y-63500D01*
X3105150D01*
G01X-127000Y4343400D02*
Y4318000D01*
X-177800Y4267200D01*
Y3515360D01*
X-66040Y3403600D01*
G01X387350Y3479800D02*
X25400D01*
X-50800Y3403600D01*
X-66040D01*
G01X152400Y3175000D02*
X203200Y3225800D01*
X387350D01*
G01Y3606800D02*
X203200D01*
X177800Y3581400D01*
X152400D01*
G01X127000Y4343400D02*
Y3733800D01*
G01D02*
X50800Y3657600D01*
X-66040D01*
G01X387350Y3733800D02*
X127000D01*
G01X387350Y2971800D02*
Y2914650D01*
X342900Y2870200D01*
X304800D01*
G01X876300Y2184400D02*
Y2062480D01*
X863600Y2049780D01*
Y1600200D01*
X939800Y1524000D01*
X1193800D01*
X1498600Y1219200D01*
Y1016000D01*
G01X882650Y3352800D02*
X736600D01*
G01D02*
Y3408680D01*
X723900Y3421380D01*
Y3568700D01*
X762000Y3606800D01*
X882650D01*
G01X1079500Y2463800D02*
Y2308860D01*
X1076960Y2306320D01*
Y2184400D01*
G01X882650Y3098800D02*
X1168400D01*
X1498600Y3429000D01*
X1717040D01*
G01Y3175000D02*
X1397000D01*
X1193800Y2971800D01*
G01X1727200Y-889000D02*
X1320800D01*
X1308100Y-901700D01*
G01X1981200Y4343400D02*
X1828800Y4191000D01*
Y3286760D01*
X1717040Y3175000D01*
G01Y3429000D02*
X1701800Y3444240D01*
Y4241800D01*
X1727200Y4267200D01*
Y4343400D01*
G01X2349500Y-891540D02*
X2032000D01*
X2029460Y-889000D01*
X1940560D01*
G01X2095500Y-127000D02*
X2176983Y-45517D01*
Y-4877D01*
X2308860Y127000D01*
G01X3340100Y-381000D02*
Y-535940D01*
X3342640Y-538480D01*
Y-660400D01*
G01X3543300D02*
X3784600D01*
G01X3553460Y-381000D02*
X3962400D01*
G54D23*
X-4922012Y4924501D03*
X-4221988D03*
G54D32*
X2349500Y-1079500D03*
Y-891540D03*
X2667000Y-4749800D03*
Y-4561840D03*
Y685800D03*
Y873760D03*
X5207000Y4622800D03*
Y4810760D03*
G54D14*
X-5765800Y3429000D03*
Y3657600D03*
X-5740400Y3911600D03*
X-5245100Y-4076700D03*
X-5080000Y-1117600D03*
X-4889500Y-1346200D03*
X-4800600Y3124200D03*
X-4902200Y4521200D03*
X-4508500Y-1320800D03*
X-4749800Y-25400D03*
X-4700092Y3582492D03*
Y4037508D03*
X-4140200Y-457200D03*
X-4361688Y3777488D03*
X-4038600Y-1016000D03*
X-4064000Y2082800D03*
X-3505200Y-3759200D03*
X-3657600Y-3479800D03*
X-3530600Y-2997200D03*
X-3759200Y-1320800D03*
X-3406140Y4747260D03*
X-2933700Y-2781300D03*
X-2870200Y152400D03*
X-3098800Y3556000D03*
X-3124200Y4064000D03*
X-2794000Y-4216400D03*
X-2667000Y-3937000D03*
X-2616200Y-3378200D03*
X-2590800Y-2971800D03*
X-2667000Y-3136900D03*
X-2781300Y-571500D03*
X-2590800Y787400D03*
X-2692400Y1143000D03*
Y3048000D03*
X-2590800Y3302000D03*
X-2336800Y-1168400D03*
X-2451100Y165100D03*
X-2311400Y127000D03*
Y381000D03*
X-2468880Y706120D03*
X-2349500Y624840D03*
X-2108200Y-1219200D03*
Y-711200D03*
X-2235200Y-609600D03*
Y-431800D03*
X-2133600Y-152400D03*
X-2006600Y1854200D03*
Y1574800D03*
X-1905000Y-3175000D03*
X-1889760Y2682240D03*
Y2971800D03*
Y3235960D03*
Y3515360D03*
X-1524000Y-1016000D03*
X-1333500Y-444500D03*
X-1478280Y-101600D03*
X-1397000Y304800D03*
Y838200D03*
X-1315720Y1206500D03*
X-1397000Y1346200D03*
X-1295400Y1854200D03*
Y2159000D03*
X-1041400Y-533400D03*
X-1270000Y-76200D03*
X-1117600Y431800D03*
Y660400D03*
Y1524000D03*
Y1346200D03*
X-889000Y-533400D03*
X-736600Y-279400D03*
X-919480Y462280D03*
X-711200Y1041400D03*
X-381000Y-952500D03*
X-254000Y-825500D03*
X-190500Y-546100D03*
X48260Y276860D03*
X228600Y812800D03*
X50800Y2565400D03*
X152400Y3175000D03*
Y3581400D03*
X508000Y2565400D03*
X304800Y2870200D03*
X711200Y457200D03*
X736600Y3352800D03*
X1143000Y254000D03*
X1193800Y2971800D03*
X1270000Y-609600D03*
Y635000D03*
X1498600Y1016000D03*
X1714500Y25400D03*
X1600200Y3581400D03*
Y3835400D03*
X1905000Y127000D03*
X2463800Y-4864100D03*
X2197100Y-1079500D03*
X2476500Y762000D03*
X2794000Y-3810000D03*
X2514600Y622300D03*
X2794000Y1460500D03*
X2540000Y3987800D03*
X2921000Y-1587500D03*
X3124200Y-254000D03*
X3060700Y431800D03*
X3175000Y-4495800D03*
X3149600Y-1193800D03*
X3175000Y939800D03*
X3683000Y127000D03*
Y381000D03*
X3784600Y-660400D03*
X4318000Y-4114800D03*
Y1320800D03*
X4381500Y4559300D03*
X5143500Y-1460500D03*
X5080000Y4660900D03*
X5537200Y-3987800D03*
X5524500Y1130300D03*
X5537200Y1447800D03*
X5778500Y-1016000D03*
X6477000Y-1320800D03*
Y4114800D03*
G54D42*
G01X-5029200Y-4076700D02*
X-5245100D01*
G01X-5207000Y-1041400D02*
X-5156200D01*
X-5080000Y-1117600D01*
G01X-4607560Y3124200D02*
X-4800600D01*
G01X-4241800Y-457200D02*
X-4140200D01*
G01X-4221988Y4924501D02*
X-3869487Y4572000D01*
X-3619500D01*
G01X-3406140Y3556000D02*
Y3810000D01*
G01Y3556000D02*
X-3098800D01*
G01X-3406140Y3810000D02*
Y4064000D01*
G01D02*
Y4318000D01*
G01Y4064000D02*
X-3124200D01*
G01X-3406140Y4318000D02*
Y4572000D01*
G01D02*
Y4747260D01*
G01X-2766060Y-2781300D02*
X-2933700D01*
G01X-2552700Y-2862631D02*
Y-2933700D01*
X-2590800Y-2971800D01*
G01X-2870200Y304800D02*
Y152400D01*
G01X-2540000Y-2590800D02*
X-2552700Y-2603500D01*
Y-2699969D01*
G01X-1701800Y1854200D02*
X-2006600D01*
G01X-1701800Y1574800D02*
X-2006600D01*
G01X-1727200Y-3276600D02*
X-1828800Y-3175000D01*
X-1905000D01*
G01X-1889760Y2844800D02*
Y2682240D01*
G01Y3098800D02*
Y3235960D01*
G01Y3098800D02*
Y2971800D01*
G01D02*
Y2844800D01*
G01Y3352800D02*
Y3515360D01*
G01Y3352800D02*
Y3235960D01*
G01X-1524000Y-825500D02*
Y-1016000D01*
G01X-1478280Y-243840D02*
Y-101600D01*
G01X-1397000Y304800D02*
X-1473200Y381000D01*
G01X-1397000Y1005840D02*
Y838200D01*
G01Y1005840D02*
Y1346200D01*
G01X-1407109Y1854200D02*
X-1295400D01*
G01X-772160Y381000D02*
X-1066800D01*
X-1117600Y431800D01*
G01X-919480Y462280D02*
X-1117600Y660400D01*
G01X-1295400Y2159000D02*
Y2286000D01*
G01X-772160Y462280D02*
X-919480D01*
G01X-254000Y-825500D02*
Y-1028700D01*
X-304800Y-1079500D01*
X-444500D01*
X-508000Y-1016000D01*
X-635000D01*
G01X-381000Y-952500D02*
Y-825500D01*
X-444500Y-762000D01*
X-635000D01*
G01X-190500Y-403860D02*
Y-546100D01*
G01Y276860D02*
X48260D01*
G01X-63500Y1079500D02*
X1079500D01*
X1143000Y1016000D01*
Y254000D01*
G01X-63500Y1333500D02*
X1143000D01*
X1270000Y1206500D01*
Y635000D01*
G01X25400Y812800D02*
X228600D01*
G01X76200Y2387600D02*
X50800Y2413000D01*
Y2565400D01*
G01X457200D02*
Y2540000D01*
X558800Y2438400D01*
G01X1308100Y-901700D02*
X1993900Y-1587500D01*
X2743200D01*
X2794000Y-1638300D01*
Y-3810000D01*
G01X1270000Y-609600D02*
Y-863600D01*
X1308100Y-901700D01*
G01X1407160Y3581400D02*
X1600200D01*
G01X1409700Y3835400D02*
X1600200D01*
G01X1714500Y25400D02*
Y330200D01*
X1765300Y381000D01*
X2095500D01*
G01X1905000Y127000D02*
X2095500D01*
G01X2667000Y-4749800D02*
X2578100D01*
X2463800Y-4864100D01*
G01X2349500Y-1079500D02*
X2197100D01*
G01X2308860Y-127000D02*
X2499360Y63500D01*
X2609850D01*
G01Y190500D02*
X2476500D01*
X2413000Y127000D01*
X2308860D01*
G01Y381000D02*
X2444750D01*
X2508250Y317500D01*
X2609850D01*
G01X2476500Y762000D02*
Y1396975D01*
X2794000Y1714475D01*
Y4254500D01*
X3175000Y4635500D01*
X4254500D01*
X4368800Y4749800D01*
X4699000D01*
G01X2707640Y-4241800D02*
Y-4439920D01*
X2667000Y-4480560D01*
Y-4561840D01*
G01X2609850Y-63500D02*
Y-133350D01*
G01D02*
X2730500Y-254000D01*
G01X2667000Y685800D02*
X2578100D01*
X2514600Y622300D01*
G01X2707640Y1193800D02*
Y995680D01*
X2667000Y955040D01*
Y873760D01*
G01X2540000Y3810000D02*
Y3987800D01*
G01X2921000Y-1587500D02*
Y-4241800D01*
G01X2946400Y-1079500D02*
X3035300D01*
X3149600Y-1193800D01*
G01X2943860Y-254000D02*
X3124200D01*
G01X3105150Y317500D02*
Y387350D01*
X3060700Y431800D01*
G01X2921000Y1460500D02*
Y1193800D01*
G01X4381500Y4559300D02*
X3238500D01*
X2921000Y4241800D01*
Y1460500D01*
G01X2794000D02*
X2921000D01*
G01X3175000Y-4660900D02*
Y-4495800D01*
G01X3105150Y-63500D02*
X3279140D01*
X3342640Y-127000D01*
G01Y127000D02*
X3433089Y36551D01*
Y-4089D01*
X3556000Y-127000D01*
G01X3105150Y63500D02*
X3238500D01*
X3302000Y127000D01*
X3342640D01*
G01Y381000D02*
X3210839Y249199D01*
X3195599D01*
X3136900Y190500D01*
X3105150D01*
G01X3175000Y774700D02*
Y939800D01*
G01X3683000Y127000D02*
X3556000D01*
G01X3683000Y381000D02*
X3556000D01*
G01X4318000Y-2095500D02*
X4356100Y-2057400D01*
G01X4318000Y-2222500D02*
X4572000D01*
X4724400Y-2070100D01*
G01X4356100Y-2057400D02*
X4660900D01*
G01X4572000Y-2413000D02*
Y-2286000D01*
X4724400Y-2133600D01*
G01Y-2057400D02*
X4660900D01*
G01X4381500Y-1905000D02*
X4508500D01*
X4660900Y-2057400D01*
G01X4572000Y-1651000D02*
Y-1841500D01*
X4724400Y-1993900D01*
G01X4889500Y-2476500D02*
Y-2286000D01*
X4724400Y-2120900D01*
G01X4699000Y-2476500D02*
X4724400Y-2451100D01*
G01D02*
Y-2133600D01*
G01Y-2057400D02*
X4737100D01*
G01D02*
X4787900D01*
G01X4724400Y-2120900D02*
Y-2070100D01*
G01Y-1993900D02*
Y-2057400D01*
G01Y-2133600D02*
Y-2120900D01*
G01Y-2070100D02*
Y-2057400D01*
G01X4889500Y-1651000D02*
Y-1905000D01*
X4737100Y-2057400D01*
G01X5080000Y-2222500D02*
X4953000D01*
X4787900Y-2057400D01*
G01X4724400Y-1993900D02*
Y-1676400D01*
G01X5054600Y-2057400D02*
X4787900D01*
G01X4724400Y-1676400D02*
X4699000Y-1651000D01*
G01X4953000Y-1320800D02*
X5062220D01*
G01X4785360Y508000D02*
X5080000D01*
G01X4785360Y762000D02*
X5016500D01*
X5143500Y635000D01*
G01X5080000Y-2032000D02*
X5054600Y-2057400D01*
G01X5247640Y-1270000D02*
X5113020D01*
X5062220Y-1320800D01*
G01D02*
X5143500Y-1402080D01*
Y-1460500D01*
G01X5229860Y1016000D02*
Y777240D01*
X5334000Y673100D01*
G01X5207000Y4622800D02*
X5118100D01*
X5080000Y4660900D01*
G01X5715000Y-3987800D02*
X5537200D01*
G01X5397500Y-952500D02*
X5461000Y-1016000D01*
G01D02*
Y-1270000D01*
G01X5715000Y1447800D02*
X5537200D01*
G01X5842000Y-2400300D02*
Y-2209800D01*
X5994400Y-2057400D01*
G01X5867400D02*
X5930900D01*
G01X5994400D02*
X5930900D01*
G01X5651500Y-2209800D02*
X5715000D01*
X5867400Y-2057400D01*
G01X5651500Y-2095500D02*
X5689600Y-2057400D01*
G01X5651500Y-1905000D02*
X5778500D01*
X5930900Y-2057400D01*
G01X5689600D02*
X5867400D01*
G01X5969000Y-2413000D02*
X5994400Y-2387600D01*
G01X6159500Y-2476500D02*
Y-2349500D01*
X5994400Y-2184400D01*
G01Y-2387600D02*
Y-2184400D01*
G01X6350000Y-2222500D02*
X6159500D01*
X5994400Y-2057400D01*
G01D02*
X6070600D01*
G01X5994400Y-2184400D02*
Y-2057400D01*
G01X6413500Y-1905000D02*
X6223000D01*
X6070600Y-2057400D01*
G01X5994400Y-1739900D02*
Y-1993900D01*
G01X6324600Y-2057400D02*
X6070600D01*
G01X5969000Y-1714500D02*
X5994400Y-1739900D01*
G01X6477000Y-1320800D02*
X6223000D01*
G01X6477000Y4114800D02*
X6223000D01*
G01X6858000Y-2336800D02*
X6540500D01*
G01X6350000Y-2032000D02*
X6324600Y-2057400D01*
G54D24*
X-4861992Y4924501D03*
X-4282008D03*
G54D15*
X-5613400Y2184400D03*
X-5412740D03*
X-4902200D03*
X-4701540D03*
X-3810000D03*
X-3609340D03*
X876300D03*
X1076960D03*
X3342640Y-660400D03*
X3543300D03*
G54D33*
X2550160Y-985520D03*
X2867660Y-4655820D03*
Y779780D03*
X5407660Y4716780D03*
G54D43*
G01X-6413500Y1490929D02*
Y1587500D01*
G01D02*
Y1684071D01*
G01X-6510071Y1587500D02*
X-6413500D01*
G01D02*
X-6316929D01*
G01X-5412740Y2070049D02*
Y2184400D01*
G01D02*
Y2298751D01*
G01X-5491531Y2184400D02*
X-5412740D01*
G01D02*
X-5333949D01*
G01X-5435600Y3347669D02*
Y3429000D01*
G01D02*
Y3510331D01*
G01X-5516931Y3429000D02*
X-5435600D01*
G01D02*
X-5354269D01*
G01X-4826000Y-4445000D02*
Y-4353509D01*
G01X-4917491Y-4445000D02*
X-4826000D01*
G01D02*
X-4734509D01*
G01X-4815840Y-4158031D02*
Y-4076700D01*
G01D02*
Y-3995369D01*
G01X-4897171Y-4076700D02*
X-4815840D01*
G01D02*
X-4734509D01*
G01X-4780331Y-3556000D02*
X-4699000D01*
G01X-4780331Y2184400D02*
X-4701540D01*
G01X-4699000Y-3637331D02*
Y-3556000D01*
G01D02*
Y-3474669D01*
G01Y-3556000D02*
X-4617669D01*
G01X-4701540Y2070049D02*
Y2184400D01*
G01D02*
Y2298751D01*
G01Y2184400D02*
X-4622749D01*
G01X-4475531Y3124200D02*
X-4394200D01*
G01X-4381500Y-3637331D02*
Y-3556000D01*
G01D02*
Y-3474669D01*
G01Y-3556000D02*
X-4300169D01*
G01X-4394200Y3042869D02*
Y3124200D01*
G01D02*
Y3205531D01*
G01Y3124200D02*
X-4312869D01*
G01X-3901491Y2463800D02*
X-3820160D01*
G01Y2382469D02*
Y2463800D01*
G01D02*
Y2545131D01*
G01Y2463800D02*
X-3738829D01*
G01X-3279140Y-398831D02*
Y-317500D01*
G01X-3360471D02*
X-3279140D01*
G01D02*
X-3197809D01*
G01X-2945181Y-2984500D02*
X-2863850D01*
G01D02*
Y-2934919D01*
G01Y-2984500D02*
X-2782519D01*
G01X-2634031Y-2781300D02*
X-2552700D01*
G01Y-2862631D02*
Y-2781300D01*
G01D02*
Y-2699969D01*
G01Y-2781300D02*
X-2471369D01*
G01X-1732331Y-4635500D02*
X-1651000D01*
G01D02*
X-1569669D01*
G01X-1732331Y-4381500D02*
X-1651000D01*
G01D02*
X-1569669D01*
G01X-1732331Y-4127500D02*
X-1651000D01*
G01D02*
X-1569669D01*
G01X-1676400Y2763469D02*
Y2844800D01*
G01Y3017469D02*
Y3098800D01*
G01D02*
Y3180131D01*
G01X-1757731Y3098800D02*
X-1676400D01*
G01D02*
X-1595069D01*
G01X-1676400Y2844800D02*
Y2926131D01*
G01X-1757731Y2844800D02*
X-1676400D01*
G01D02*
X-1595069D01*
G01X-1676400Y3271469D02*
Y3352800D01*
G01D02*
Y3434131D01*
G01X-1757731Y3352800D02*
X-1676400D01*
G01D02*
X-1595069D01*
G01X-1310640Y-906831D02*
Y-825500D01*
G01X-1391971D02*
X-1310640D01*
G01D02*
X-1229309D01*
G01X-1569771Y1574800D02*
X-1488440D01*
G01D02*
X-1407109D01*
G01X-1488440Y1854200D02*
Y1935531D01*
G01X-1569771Y1854200D02*
X-1488440D01*
G01D02*
X-1407109D01*
G01X-1424991Y3200400D02*
X-1270000D01*
G01Y3670300D02*
Y4140200D01*
X-1473200Y4343400D01*
G01X-1270000Y3051759D02*
Y3200400D01*
G01D02*
Y3349041D01*
G01Y3200400D02*
X-1115009D01*
G01X-360731Y3403600D02*
X-279400D01*
G01X-360731Y3657600D02*
X-279400D01*
G01X-187960Y812800D02*
Y894131D01*
G01X-269291Y812800D02*
X-187960D01*
G01D02*
X-106629D01*
G01X-279400Y3322269D02*
Y3403600D01*
G01D02*
Y3484931D01*
G01Y3403600D02*
X-198069D01*
G01X-279400Y3576269D02*
Y3657600D01*
G01D02*
Y3738931D01*
G01X381000Y4246829D02*
Y4343400D01*
G01D02*
Y4439971D01*
G01X284429Y4343400D02*
X381000D01*
G01D02*
X477571D01*
G01X866140Y2382469D02*
Y2463800D01*
G01D02*
Y2545131D01*
G01X784809Y2463800D02*
X866140D01*
G01D02*
X947471D01*
G01X882650Y3733800D02*
Y3783381D01*
G01X801319Y3733800D02*
X882650D01*
G01D02*
X963981D01*
G01X1196340Y3754069D02*
Y3835400D01*
G01X1193800Y3500069D02*
Y3581400D01*
G01D02*
Y3662731D01*
G01X1112469Y3581400D02*
X1193800D01*
G01D02*
X1275131D01*
G01X1196340Y3835400D02*
Y3916731D01*
G01X1115009Y3835400D02*
X1196340D01*
G01D02*
X1277671D01*
G01X1849069Y3175000D02*
X1930400D01*
G01Y3093669D02*
Y3175000D01*
G01Y3347669D02*
Y3429000D01*
G01D02*
Y3510331D01*
G01Y3429000D02*
X2011731D01*
G01X1930400Y3175000D02*
Y3256331D01*
G01Y3175000D02*
X2011731D01*
G01X2138629Y4343400D02*
X2235200D01*
G01X2326640Y3728669D02*
Y3810000D01*
G01D02*
Y3891331D01*
G01X2245309Y3810000D02*
X2326640D01*
G01D02*
X2407971D01*
G01X2235200Y4246829D02*
Y4343400D01*
G01D02*
Y4439971D01*
G01Y4343400D02*
X2331771D01*
G01X2528519Y-63500D02*
X2609850D01*
G01D02*
X2691181D01*
G01X2730500Y-335331D02*
Y-254000D01*
G01D02*
Y-172669D01*
G01X2649169Y-254000D02*
X2730500D01*
G01D02*
X2811831D01*
G01X4064000Y-3606800D02*
X3683000D01*
G01X3619500Y-3416300D02*
X3987800D01*
X4064000Y-3492500D01*
Y-3606800D01*
G01Y1828800D02*
X3683000D01*
G01X3619500Y2019300D02*
X3987800D01*
X4064000Y1943100D01*
Y1828800D01*
G01X3937000Y-4069131D02*
Y-3987800D01*
G01D02*
Y-3906469D01*
G01X3855669Y-3987800D02*
X3937000D01*
G01X3746500Y-3797300D02*
X4000500D01*
X4064000Y-3733800D01*
Y-3606800D01*
G01X3909009Y-3136900D02*
X4064000D01*
G01X3909009Y-2171700D02*
X4064000D01*
G01X3909009Y-1701800D02*
X4064000D01*
G01X3937000Y1366469D02*
Y1447800D01*
G01D02*
Y1529131D01*
G01X3855669Y1447800D02*
X3937000D01*
G01X3746500Y1638300D02*
X4000500D01*
X4064000Y1701800D01*
Y1828800D01*
G01X3909009Y2298700D02*
X4064000D01*
G01X3909009Y3263900D02*
X4064000D01*
G01X3909009Y3733800D02*
X4064000D01*
G01X4318000Y-3238500D02*
X4330700Y-3251200D01*
G01D02*
X4597400D01*
G01X4318000Y-3098800D02*
X4445000D01*
X4597400Y-3251200D01*
G01X4064000Y-3136900D02*
Y-2988259D01*
G01Y-3136900D02*
X4218991D01*
G01X4064000Y-2320341D02*
Y-2171700D01*
G01D02*
X4218991D01*
G01X4064000Y-1850441D02*
Y-1701800D01*
G01D02*
Y-1553159D01*
G01Y2298700D02*
Y2447341D01*
G01Y2298700D02*
X4218991D01*
G01X4546600Y2184400D02*
X4381500Y2349500D01*
X4343400D01*
G01X4064000Y3115259D02*
Y3263900D01*
G01D02*
X4218991D01*
G01X4064000Y3585159D02*
Y3733800D01*
G01D02*
Y3882441D01*
G01X4699000Y-3683000D02*
X4673600Y-3657600D01*
G01X4508500Y-3619500D02*
Y-3429000D01*
X4673600Y-3263900D01*
G01Y-3657600D02*
Y-3340100D01*
G01Y-3251200D02*
Y-3149600D01*
G01Y-3251200D02*
Y-3263900D01*
G01X5016500Y-3098800D02*
X4826000D01*
X4673600Y-3251200D01*
G01D02*
X4597400D01*
G01X4673600Y-3340100D02*
Y-3263900D01*
G01X4826000Y-3619500D02*
Y-3492500D01*
X4673600Y-3340100D01*
G01X5016500Y-3416300D02*
X4826000D01*
X4673600Y-3263900D01*
G01Y-3136900D02*
Y-3149600D01*
G01X4826000Y-2857500D02*
Y-2984500D01*
X4673600Y-3136900D01*
G01X4508500Y-2857500D02*
Y-2984500D01*
X4673600Y-3149600D01*
G01X4635500Y-2857500D02*
X4673600Y-2895600D01*
G01D02*
Y-3136900D01*
G01X4495800Y-1430071D02*
Y-1320800D01*
G01D02*
Y-1211529D01*
G01X4406849Y-1320800D02*
X4495800D01*
G01D02*
X4584751D01*
G01X4572000Y426669D02*
Y508000D01*
G01D02*
Y589331D01*
G01X4490669Y508000D02*
X4572000D01*
G01D02*
X4653331D01*
G01X4572000Y680669D02*
Y762000D01*
G01D02*
Y843331D01*
G01X4490669Y762000D02*
X4572000D01*
G01D02*
X4653331D01*
G01X4508500Y1841500D02*
Y1968500D01*
X4673600Y2133600D01*
G01Y1874469D02*
Y2120900D01*
G01X4381500Y2032000D02*
X4508500D01*
X4660900Y2184400D01*
G01X4673600Y2133600D02*
Y2120900D01*
G01Y2184400D02*
Y2133600D01*
G01X4826000Y1841500D02*
Y1968500D01*
X4673600Y2120900D01*
G01X4376369Y2184400D02*
X4546600D01*
G01X4673600Y2197100D02*
Y2494331D01*
G01Y2184400D02*
Y2197100D01*
G01X4826000Y2540000D02*
Y2349500D01*
X4673600Y2197100D01*
G01X4508500Y2540000D02*
Y2349500D01*
X4673600Y2184400D01*
G01X4660900D02*
X4546600D01*
G01X4673600D02*
X4660900D01*
G01X4673600D02*
X4737100D01*
G01X4572000Y2984500D02*
Y3175000D01*
X4724400Y3327400D01*
G01X4427169Y3378200D02*
X4622800D01*
G01X4381500Y3556000D02*
X4445000D01*
X4622800Y3378200D01*
G01X4648200D02*
X4622800D01*
G01X4724400D02*
X4648200D01*
G01X4381500Y3238500D02*
X4508500D01*
X4648200Y3378200D01*
G01X4724400Y3403600D02*
X4572000Y3556000D01*
Y3746500D01*
G01X4495800Y4005529D02*
Y4114800D01*
G01X4635500Y4241800D02*
Y4432300D01*
X4699000Y4495800D01*
G01X4495800Y4114800D02*
Y4224071D01*
G01X4406849Y4114800D02*
X4495800D01*
G01D02*
X4584751D01*
G01X4902200Y-4097071D02*
Y-3987800D01*
G01X4813249D02*
X4902200D01*
G01D02*
X4991151D01*
G01X4935169Y1016000D02*
X5016500D01*
G01X4902200Y1338529D02*
Y1447800D01*
G01X4813249D02*
X4902200D01*
G01D02*
X4991151D01*
G01X5016500Y2032000D02*
X4889500D01*
X4737100Y2184400D01*
G01X5016500Y2349500D02*
X4953000D01*
X4787900Y2184400D01*
G01X4737100D02*
X4787900D01*
G01D02*
X4970831D01*
G01X4724400Y3022600D02*
X4762500Y2984500D01*
G01X4724400Y3327400D02*
Y3022600D01*
G01X4889500Y2984500D02*
Y3175000D01*
X4724400Y3340100D01*
G01D02*
Y3327400D01*
G01Y3378200D02*
Y3340100D01*
G01X4813300Y3378200D02*
X5021631D01*
G01X5080000Y3238500D02*
X4953000D01*
X4813300Y3378200D01*
G01X4775200D02*
X4813300D01*
G01X4724400D02*
X4775200D01*
G01X5016500Y3556000D02*
X4953000Y3492500D01*
X4889500D01*
X4775200Y3378200D01*
G01X4889500Y3746500D02*
Y3619500D01*
X4724400Y3454400D01*
G01Y3403600D02*
Y3454400D01*
G01Y3378200D02*
Y3403600D01*
G01Y3454400D02*
Y3688131D01*
G01X6172200Y-3987800D02*
Y-4102100D01*
X5969000Y-4305300D01*
X5524500D01*
X5334000Y-4114800D01*
Y-3568700D01*
G01X5179009Y-3098800D02*
X5334000D01*
G01X5179009Y-2209800D02*
X5334000D01*
G01X5232400Y-1739900D02*
X5334000D01*
G01X5189169Y-680720D02*
X5334000D01*
G01X5189169Y-284480D02*
X5334000D01*
G01X5189169Y111760D02*
X5334000D01*
G01X5189169Y508000D02*
X5334000D01*
G01X5016500Y1016000D02*
Y1097331D01*
G01X5179009Y2336800D02*
X5334000D01*
G01X5179009Y3225800D02*
X5334000D01*
G01X5588000Y-3238500D02*
X5600700Y-3251200D01*
G01D02*
X5854700D01*
G01X5588000Y-3111500D02*
X5715000D01*
X5854700Y-3251200D01*
G01X5334000Y-3098800D02*
Y-2950159D01*
G01Y-3098800D02*
X5488991D01*
G01X5334000Y-2358441D02*
Y-2209800D01*
G01D02*
X5488991D01*
G01X5643880Y-1436370D02*
X5340350Y-1739900D01*
X5334000D01*
G01Y-825551D02*
Y-680720D01*
G01D02*
Y-535889D01*
G01Y-680720D02*
X5478831D01*
G01X5334000Y-429311D02*
Y-284480D01*
G01D02*
X5478831D01*
G01X5334000Y111760D02*
Y256591D01*
G01Y111760D02*
X5478831D01*
G01X5334000Y363169D02*
Y508000D01*
G01D02*
Y652831D01*
G01Y508000D02*
X5478831D01*
G01X5334000Y2336800D02*
Y2485441D01*
G01Y2336800D02*
X5488991D01*
G01X5588000Y2349500D02*
X5715000D01*
X5778500Y2286000D01*
G01X5334000Y3077159D02*
Y3225800D01*
G01D02*
X5488991D01*
G01X5969000Y-3619500D02*
X5943600Y-3594100D01*
G01X5778500Y-3683000D02*
Y-3492500D01*
X5943600Y-3327400D01*
G01Y-3594100D02*
Y-3340100D01*
G01Y-3251200D02*
X5956300D01*
G01X5943600Y-3263900D02*
Y-3327400D01*
G01Y-3251200D02*
Y-3263900D01*
G01Y-3251200D02*
X5930900D01*
G01D02*
X5854700D01*
G01X5943600Y-3327400D02*
Y-3340100D01*
G01X6286500Y-3416300D02*
X6096000D01*
X5943600Y-3263900D01*
G01X6096000Y-3619500D02*
Y-3492500D01*
X5943600Y-3340100D01*
G01X5778500Y-2908300D02*
Y-3098800D01*
X5930900Y-3251200D01*
G01X5943600D02*
Y-2895600D01*
G01X6096000Y-2921000D02*
Y-3111500D01*
X5956300Y-3251200D01*
G01X5943600Y-2895600D02*
X5905500Y-2857500D01*
G01X5842000Y-1714500D02*
Y-1841500D01*
X5994400Y-1993900D01*
G01X5643880Y-1436370D02*
Y-1397000D01*
G01X5765800Y-1320800D02*
Y-1211529D01*
G01X5676849Y-1320800D02*
X5765800D01*
G01D02*
X5854751D01*
G01X5874969Y-812800D02*
X5969000D01*
G01X5874969Y-482600D02*
X5969000D01*
G01X5874969Y609600D02*
X5969000D01*
G01X5778500Y1841500D02*
Y2032000D01*
X5930900Y2184400D01*
G01X5943600Y1874469D02*
Y2184400D01*
G01X5880100D02*
X5778500Y2286000D01*
G01X5651500Y2032000D02*
X5715000D01*
X5867400Y2184400D01*
G01X5943600D02*
Y2494331D01*
G01X5646369Y2184400D02*
X5867400D01*
G01X5778500Y2540000D02*
Y2286000D01*
G01X6096000Y1841500D02*
Y2032000D01*
X5943600Y2184400D01*
G01D02*
X5994400D01*
G01X5880100D02*
X5867400D01*
G01X5930900D02*
X5880100D01*
G01X5943600D02*
X5930900D01*
G01X5842000Y3048000D02*
Y3175000D01*
X5994400Y3327400D01*
G01X5697169Y3378200D02*
X5956300D01*
G01X5651500Y3238500D02*
X5842000D01*
X5981700Y3378200D01*
G01X5651500Y3556000D02*
X5778500D01*
X5956300Y3378200D01*
G01X5842000Y3746500D02*
Y3619500D01*
X5994400Y3467100D01*
G01X6019800Y-3251200D02*
X5956300D01*
G01X6350000Y-3111500D02*
X6159500D01*
X6019800Y-3251200D01*
G01X6286500Y-3238500D02*
X6273800Y-3251200D01*
G01D02*
X6019800D01*
G01X6159500Y-2857500D02*
X6096000Y-2921000D01*
G01X5994400Y-2057400D02*
Y-2006600D01*
G01D02*
Y-1993900D01*
G01X6159500Y-1714500D02*
Y-1841500D01*
X5994400Y-2006600D01*
G01X5969000Y-906831D02*
Y-812800D01*
G01D02*
X6063031D01*
G01X6255969D02*
X6350000D01*
G01X6255969Y-482600D02*
X6350000D01*
G01X5969000D02*
Y-388569D01*
G01Y-482600D02*
X6063031D01*
G01X5969000Y515569D02*
Y609600D01*
G01D02*
X6063031D01*
G01X6255969D02*
X6350000D01*
G01X5969000Y939800D02*
Y1033831D01*
G01Y939800D02*
X6063031D01*
G01X6255969D02*
X6350000D01*
G01X6172200Y1338529D02*
Y1447800D01*
G01X6083249D02*
X6172200D01*
G01D02*
X6261151D01*
G01X6350000Y2032000D02*
X6159500D01*
X6007100Y2184400D01*
G01X5994400D02*
X6096000Y2286000D01*
G01Y2540000D02*
Y2286000D01*
G01X6007100Y2184400D02*
X6240831D01*
G01X5994400D02*
X6007100D01*
G01X6286500Y2349500D02*
X6159500D01*
X6096000Y2286000D01*
G01X5994400Y3009900D02*
X5969000Y2984500D01*
G01X6159500Y3048000D02*
Y3175000D01*
X6096000Y3238500D01*
G01X5994400Y3327400D02*
Y3009900D01*
G01Y3378200D02*
X6291631D01*
G01X6350000Y3238500D02*
X6096000D01*
G01X5994400Y3340100D02*
X6096000Y3238500D01*
G01X5994400Y3340100D02*
Y3327400D01*
G01Y3378200D02*
Y3340100D01*
G01X5981700Y3378200D02*
X5956300D01*
G01X5994400D02*
X5981700D01*
G01X5994400Y3390900D02*
X6159500Y3556000D01*
X6350000D01*
G01X5994400Y3390900D02*
Y3454400D01*
G01Y3378200D02*
Y3390900D01*
G01X6159500Y3746500D02*
Y3619500D01*
X5994400Y3454400D01*
G01Y3467100D02*
Y3688131D01*
G01Y3454400D02*
Y3467100D01*
G01X6350000Y-906831D02*
Y-812800D01*
G01D02*
X6444031D01*
G01X6350000Y-482600D02*
Y-388569D01*
G01Y-482600D02*
X6444031D01*
G01X6350000Y515569D02*
Y609600D01*
G01D02*
X6444031D01*
G01X6350000Y939800D02*
Y1033831D01*
G01Y939800D02*
X6444031D01*
G01X6858000Y3098800D02*
X6540500D01*
G01X6858000Y-2336800D02*
Y-2191969D01*
G01X6713169Y-2481631D02*
X6858000Y-2336800D01*
G01X6713169Y-2191969D02*
X6858000Y-2336800D01*
G01X6731000Y-906831D02*
Y-812800D01*
G01X6636969D02*
X6731000D01*
G01D02*
X6825031D01*
G01X6731000Y-482600D02*
Y-388569D01*
G01X6636969Y-482600D02*
X6731000D01*
G01D02*
X6825031D01*
G01X6731000Y515569D02*
Y609600D01*
G01X6636969D02*
X6731000D01*
G01D02*
X6825031D01*
G01X6731000Y939800D02*
Y1033831D01*
G01X6636969Y939800D02*
X6731000D01*
G01D02*
X6825031D01*
G01X6858000Y3098800D02*
Y3243631D01*
G01X6713169Y2953969D02*
X6858000Y3098800D01*
G01X6713169Y3243631D02*
X6858000Y3098800D01*
G01X7112000Y-906831D02*
Y-812800D01*
G01X7017969D02*
X7112000D01*
G01D02*
X7206031D01*
G01X7112000Y-482600D02*
Y-388569D01*
G01X7017969Y-482600D02*
X7112000D01*
G01D02*
X7206031D01*
G01X7112000Y515569D02*
Y609600D01*
G01X7017969D02*
X7112000D01*
G01D02*
X7206031D01*
G01X7112000Y939800D02*
Y1033831D01*
G01X7017969Y939800D02*
X7112000D01*
G01D02*
X7206031D01*
G54D25*
X-4701997Y4654499D03*
X-4636999D03*
X-4572000D03*
X-4507001D03*
X-4442003D03*
G54D34*
X2768600Y-1176020D03*
Y-985520D03*
X2946400Y-1079500D03*
G54D16*
X-5410200Y2463800D03*
X-5623560D03*
X-5435600Y3429000D03*
X-5648960D03*
X-5435600Y3657600D03*
X-5648960D03*
X-5435600Y3911600D03*
X-5648960D03*
X-5435600Y4165600D03*
X-5648960D03*
X-5029200Y-4076700D03*
X-4815840D03*
X-4912360Y2463800D03*
X-4699000Y-3556000D03*
Y-3769360D03*
Y2463800D03*
X-4607560Y3124200D03*
X-4381500Y-3556000D03*
Y-3769360D03*
X-4394200Y3124200D03*
X-4064000Y-3556000D03*
Y-3769360D03*
X-3820160Y2463800D03*
X-3492500Y-317500D03*
Y-571500D03*
X-3606800Y2463800D03*
X-3619500Y3048000D03*
Y3302000D03*
Y3556000D03*
Y3810000D03*
Y4064000D03*
Y4318000D03*
Y4572000D03*
X-3279140Y-317500D03*
Y-571500D03*
X-3406140Y3048000D03*
Y3302000D03*
Y3556000D03*
Y3810000D03*
Y4064000D03*
Y4318000D03*
Y4572000D03*
X-2870200Y304800D03*
X-2552700Y-2781300D03*
X-2766060D03*
X-2656840Y304800D03*
X-1651000Y-4635500D03*
X-1864360D03*
X-1651000Y-4381500D03*
X-1864360D03*
X-1651000Y-4127500D03*
X-1864360D03*
X-1701800Y1574800D03*
Y1854200D03*
X-1676400Y2844800D03*
X-1889760D03*
X-1676400Y3098800D03*
X-1889760D03*
X-1676400Y3352800D03*
X-1889760D03*
X-1524000Y-825500D03*
X-1310640D03*
X-1488440Y1574800D03*
Y1854200D03*
X-848360Y-1016000D03*
Y-762000D03*
X-635000Y-1016000D03*
Y-762000D03*
X-190500Y-403860D03*
Y-190500D03*
Y63500D03*
Y276860D03*
X-187960Y812800D03*
X-63500Y1079500D03*
X-276860D03*
X-63500Y1333500D03*
X-276860D03*
X-279400Y3403600D03*
X-66040D03*
X-279400Y3657600D03*
X-66040D03*
X25400Y812800D03*
X866140Y2463800D03*
X1079500D03*
X1193800Y3581400D03*
X1196340Y3835400D03*
X1407160Y3581400D03*
X1409700Y3835400D03*
X1727200Y-889000D03*
X1717040Y3175000D03*
Y3429000D03*
X1940560Y-889000D03*
X2095500Y-127000D03*
Y127000D03*
Y381000D03*
X1930400Y3175000D03*
Y3429000D03*
X2308860Y-127000D03*
Y127000D03*
Y381000D03*
X2326640Y3810000D03*
X2707640Y-4241800D03*
X2730500Y-254000D03*
X2707640Y1193800D03*
X2540000Y3810000D03*
X2921000Y-4241800D03*
X2943860Y-254000D03*
X2921000Y1193800D03*
X3340100Y-381000D03*
X3342640Y-127000D03*
Y127000D03*
Y381000D03*
X3553460Y-381000D03*
X3556000Y-127000D03*
Y127000D03*
Y381000D03*
X3937000Y-3987800D03*
Y1447800D03*
X4150360Y-3987800D03*
Y1447800D03*
X4572000Y508000D03*
Y762000D03*
X4699000Y4495800D03*
Y4749800D03*
X4785360Y508000D03*
Y762000D03*
X5016500Y1016000D03*
X4912360Y4495800D03*
Y4749800D03*
X5247640Y-1270000D03*
X5229860Y1016000D03*
X5461000Y-1270000D03*
G54D44*
G01X5524500Y1130300D02*
X5334000Y1320800D01*
Y1866900D01*
G01X5765800Y4114800D02*
X5546090D01*
X5334000Y3902710D01*
Y3695700D01*
G01X5969000Y1130300D02*
X5524500D01*
G54D26*
X-4672000Y4924501D03*
X-4472000D03*
G54D35*
X3081020Y-4838700D03*
Y596900D03*
X3271520Y-4838700D03*
X3175000Y-4660900D03*
X3271520Y596900D03*
X3175000Y774700D03*
X5237480Y4330700D03*
X5427980D03*
X5334000Y4152900D03*
G54D17*
X-4826000Y-4445000D03*
X-4572000D03*
X-4318000D03*
X-3810000D03*
X-4064000D03*
X-3556000D03*
X-3302000D03*
X-3048000D03*
X-2794000D03*
X-1473200Y4343400D03*
G54D45*
G01X-1234440Y-243840D02*
Y-594360D01*
X-1079500Y-749300D01*
Y-952500D01*
X-1016000Y-1016000D01*
X-848360D01*
G01Y-762000D02*
X-943610D01*
X-1153160Y-552450D01*
Y-243840D01*
G01X-772160Y543560D02*
X-510540D01*
X-444500Y609600D01*
Y1016000D01*
X-381000Y1079500D01*
X-276860D01*
G01X-772160Y624840D02*
X-546100D01*
X-508000Y662940D01*
Y1270000D01*
X-444500Y1333500D01*
X-276860D01*
G01X2347087Y-868553D02*
X2349500Y-870966D01*
Y-891540D01*
G01X2768600Y-985520D02*
X2550160D01*
G01X2867660Y-4655820D02*
X2950921D01*
X2982951Y-4687849D01*
Y-4811751D01*
X3009900Y-4838700D01*
X3081020D01*
G01X2867660Y779780D02*
X2950921D01*
X2982951Y747751D01*
Y623849D01*
X3009900Y596900D01*
X3081020D01*
G01X4150360Y-3987800D02*
X4445000D01*
G01X4318000Y-4114800D02*
X4445000Y-3987800D01*
G01X4150360Y1447800D02*
X4445000D01*
G01D02*
X4318000Y1320800D01*
G01X4953000Y4114800D02*
Y4455160D01*
X4912360Y4495800D01*
G01X4953000Y4114800D02*
X5295900D01*
X5334000Y4152900D01*
G01X5207000Y4810760D02*
X5068570D01*
X5007610Y4749800D01*
X4912360D01*
G01X5407660Y4716780D02*
Y4408170D01*
X5427980Y4387850D01*
Y4330700D01*
G54D36*
X4445000Y-3987800D03*
X4495800Y-1320800D03*
X4445000Y1447800D03*
X4495800Y4114800D03*
X4902200Y-3987800D03*
X4953000Y-1320800D03*
X4902200Y1447800D03*
X4953000Y4114800D03*
X5715000Y-3987800D03*
X5765800Y-1320800D03*
X5715000Y1447800D03*
X5765800Y4114800D03*
X6172200Y-3987800D03*
X6223000Y-1320800D03*
X6172200Y1447800D03*
X6223000Y4114800D03*
G54D27*
X-3359150Y-3619500D03*
Y-3746500D03*
Y-3238500D03*
Y-3365500D03*
Y-3492500D03*
Y-2984500D03*
Y-3111500D03*
X-2863850Y-3619500D03*
Y-3746500D03*
Y-3238500D03*
Y-3492500D03*
Y-3365500D03*
Y-3111500D03*
Y-2984500D03*
X387350Y3098800D03*
Y2971800D03*
Y3352800D03*
Y3225800D03*
Y3733800D03*
Y3606800D03*
Y3479800D03*
X882650Y3098800D03*
Y2971800D03*
Y3225800D03*
Y3352800D03*
Y3606800D03*
Y3733800D03*
Y3479800D03*
X2609850Y-63500D03*
Y63500D03*
Y190500D03*
Y317500D03*
X3105150Y-63500D03*
Y63500D03*
Y190500D03*
Y317500D03*
G54D18*
X-4902200Y-711200D03*
Y-203200D03*
X-4584700Y-711200D03*
Y-203200D03*
G54D46*
G01X6921500Y1320800D02*
X7239000Y1638300D01*
Y4051300D01*
X6794500Y4495800D01*
X5966460D01*
X5765800Y4295140D01*
Y4114800D01*
G01X7048500Y-1079500D02*
X7239000Y-1270000D01*
Y-3683000D01*
X6858000Y-4064000D01*
X6248400D01*
X6172200Y-3987800D01*
G01X6477000Y-3048000D02*
X6791960Y-2733040D01*
X6858000D01*
G01X6477000Y2463800D02*
X6715760Y2702560D01*
X6858000D01*
G01X7048500Y-1016000D02*
Y-1079500D01*
G54D37*
X4673600Y-3251200D03*
X4724400Y-2057400D03*
X4673600Y2184400D03*
X4724400Y3378200D03*
X5943600Y-3251200D03*
X5994400Y-2057400D03*
X5943600Y2184400D03*
X5994400Y3378200D03*
G54D19*
X-4775200Y-393700D03*
Y-520700D03*
X-4521200Y-393700D03*
Y-520700D03*
X-4648200Y-393700D03*
Y-520700D03*
G54D28*
X-2540000Y-4445000D03*
X-1727200Y4343400D03*
G54D29*
X-2021840Y-25400D03*
Y55880D03*
Y137160D03*
Y218440D03*
Y462280D03*
Y543560D03*
Y299720D03*
Y381000D03*
Y624840D03*
Y706120D03*
Y787400D03*
X-772160Y218440D03*
Y137160D03*
Y55880D03*
Y-25400D03*
Y299720D03*
Y543560D03*
Y462280D03*
Y381000D03*
Y787400D03*
Y706120D03*
Y624840D03*
G54D38*
X5334000Y-680720D03*
Y-284480D03*
Y111760D03*
X6858000Y-3129280D03*
Y-2733040D03*
Y2306320D03*
Y2702560D03*
G54D39*
X5334000Y508000D03*
X6858000Y-2336800D03*
Y3098800D03*
M02*
