G04 ================== begin FILE IDENTIFICATION RECORD ==================*
G04 Layout Name:  radiotelescope.brd*
G04 Film Name:    BOT_MASK*
G04 File Format:  Gerber RS274X*
G04 File Origin:  Cadence Allegro 17.4-S035*
G04 Origin Date:  Mon Feb 20 10:10:36 2023*
G04 *
G04 Layer:  VIA CLASS/SOLDERMASK_BOTTOM*
G04 Layer:  PIN/SOLDERMASK_BOTTOM*
G04 Layer:  PACKAGE GEOMETRY/SOLDERMASK_BOTTOM*
G04 Layer:  BOARD GEOMETRY/SOLDERMASK_BOTTOM*
G04 *
G04 Offset:    (0.00 0.00)*
G04 Mirror:    No*
G04 Mode:      Positive*
G04 Rotation:  0*
G04 FullContactRelief:  No*
G04 UndefLineWidth:     0.00*
G04 ================== end FILE IDENTIFICATION RECORD ====================*
%FSLAX35Y35*MOMM*%
%IR0*IPPOS*OFA0.00000B0.00000*MIA0B0*SFA1.00000B1.00000*%
%ADD13C,1.524*%
%ADD14C,1.1176*%
%ADD12C,1.5748*%
%ADD15C,1.4732*%
%ADD17C,.991108*%
%ADD11R,1.5748X1.5748*%
%ADD16C,2.3749*%
%ADD20R,1.4732X1.4732*%
%ADD18C,1.649984*%
%ADD21C,2.54*%
%ADD10C,2.667*%
%ADD22R,2.54X2.54*%
%ADD19O,1.150112X2.100072*%
%LPD*%
G75*
G54D10*
X-6667500Y-4699000D03*
Y4826000D03*
X7810500Y-4699000D03*
X7747000Y4762500D03*
G54D20*
X-2540000Y-4445000D03*
X-1727200Y4343400D03*
G54D11*
X-6413500Y-190500D03*
X-381000Y4343400D03*
X1473200D03*
G54D21*
X5334000Y-680720D03*
Y-284480D03*
Y111760D03*
X6858000Y-3129280D03*
Y-2733040D03*
Y2306320D03*
Y2702560D03*
G54D12*
X-6413500Y63500D03*
Y317500D03*
Y571500D03*
Y825500D03*
Y1079500D03*
Y1333500D03*
Y1587500D03*
X-127000Y4343400D03*
X127000D03*
X381000D03*
X1727200D03*
X1981200D03*
X2235200D03*
G54D22*
X5334000Y508000D03*
X6858000Y-2336800D03*
Y3098800D03*
G54D13*
X-5867400Y482600D03*
Y736600D03*
X-5181600Y4419600D03*
X-3937000Y2946400D03*
X-444500Y-4191000D03*
X-190500D03*
X63500D03*
X317500D03*
G54D14*
X-5765800Y3429000D03*
Y3657600D03*
X-5740400Y3911600D03*
X-5245100Y-4076700D03*
X-5080000Y-1117600D03*
X-4889500Y-1346200D03*
X-4800600Y3124200D03*
X-4902200Y4521200D03*
X-4508500Y-1320800D03*
X-4749800Y-25400D03*
X-4700092Y3582492D03*
Y4037508D03*
X-4140200Y-457200D03*
X-4361688Y3777488D03*
X-4038600Y-1016000D03*
X-4064000Y2082800D03*
X-3505200Y-3759200D03*
X-3657600Y-3479800D03*
X-3530600Y-2997200D03*
X-3759200Y-1320800D03*
X-3406140Y4747260D03*
X-2933700Y-2781300D03*
X-2870200Y152400D03*
X-3098800Y3556000D03*
X-3124200Y4064000D03*
X-2794000Y-4216400D03*
X-2667000Y-3937000D03*
X-2616200Y-3378200D03*
X-2590800Y-2971800D03*
X-2667000Y-3136900D03*
X-2781300Y-571500D03*
X-2590800Y787400D03*
X-2692400Y1143000D03*
Y3048000D03*
X-2590800Y3302000D03*
X-2336800Y-1168400D03*
X-2451100Y165100D03*
X-2311400Y127000D03*
Y381000D03*
X-2468880Y706120D03*
X-2349500Y624840D03*
X-2108200Y-1219200D03*
Y-711200D03*
X-2235200Y-609600D03*
Y-431800D03*
X-2133600Y-152400D03*
X-2006600Y1854200D03*
Y1574800D03*
X-1905000Y-3175000D03*
X-1889760Y2682240D03*
Y2971800D03*
Y3235960D03*
Y3515360D03*
X-1524000Y-1016000D03*
X-1333500Y-444500D03*
X-1478280Y-101600D03*
X-1397000Y304800D03*
Y838200D03*
X-1315720Y1206500D03*
X-1397000Y1346200D03*
X-1295400Y1854200D03*
Y2159000D03*
X-1041400Y-533400D03*
X-1270000Y-76200D03*
X-1117600Y431800D03*
Y660400D03*
Y1524000D03*
Y1346200D03*
X-889000Y-533400D03*
X-736600Y-279400D03*
X-919480Y462280D03*
X-711200Y1041400D03*
X-381000Y-952500D03*
X-254000Y-825500D03*
X-190500Y-546100D03*
X48260Y276860D03*
X228600Y812800D03*
X50800Y2565400D03*
X152400Y3175000D03*
Y3581400D03*
X508000Y2565400D03*
X304800Y2870200D03*
X711200Y457200D03*
X736600Y3352800D03*
X1143000Y254000D03*
X1193800Y2971800D03*
X1270000Y-609600D03*
Y635000D03*
X1498600Y1016000D03*
X1714500Y25400D03*
X1600200Y3581400D03*
Y3835400D03*
X1905000Y127000D03*
X2463800Y-4864100D03*
X2197100Y-1079500D03*
X2476500Y762000D03*
X2794000Y-3810000D03*
X2514600Y622300D03*
X2794000Y1460500D03*
X2540000Y3987800D03*
X2921000Y-1587500D03*
X3124200Y-254000D03*
X3060700Y431800D03*
X3175000Y-4495800D03*
X3149600Y-1193800D03*
X3175000Y939800D03*
X3683000Y127000D03*
Y381000D03*
X3784600Y-660400D03*
X4318000Y-4114800D03*
Y1320800D03*
X4381500Y4559300D03*
X5143500Y-1460500D03*
X5080000Y4660900D03*
X5537200Y-3987800D03*
X5524500Y1130300D03*
X5537200Y1447800D03*
X5778500Y-1016000D03*
X6477000Y-1320800D03*
Y4114800D03*
G54D15*
X-4826000Y-4445000D03*
X-4572000D03*
X-4318000D03*
X-3810000D03*
X-4064000D03*
X-3556000D03*
X-3302000D03*
X-3048000D03*
X-2794000D03*
X-1473200Y4343400D03*
G54D16*
X-4902200Y-711200D03*
Y-203200D03*
X-4584700Y-711200D03*
Y-203200D03*
G54D17*
X-4902200Y-457200D03*
X-4394200Y-558800D03*
Y-355600D03*
G54D18*
X-4822012Y4654499D03*
X-4321988D03*
G54D19*
X-4922012Y4924501D03*
X-4221988D03*
M02*
